<?xml version="1.0" standalone="no"?>
<!DOCTYPE svg PUBLIC "-//W3C//DTD SVG 1.1//EN" "http://www.w3.org/Graphics/SVG/1.1/DTD/svg11.dtd" >
<svg xmlns="http://www.w3.org/2000/svg" xmlns:xlink="http://www.w3.org/1999/xlink" version="1.1">
<metadata>
Created by FontForge 20170924 at Sat Apr  6 21:59:54 2019
 By www-data
Copyright \(c\)2015, HK Grotesk Pro by Alfredo Marco Pradil \(ammpradil@gmail.com\).
</metadata>
<defs>
<font id="HKGroteskPro-Medium" horiz-adv-x="0" >
  <font-face 
    font-family="HK Grotesk Pro Medium"
    font-weight="500"
    font-stretch="normal"
    units-per-em="1000"
    panose-1="0 0 6 0 0 0 0 0 0 0"
    ascent="800"
    descent="-200"
    x-height="488"
    cap-height="690"
    bbox="-713 -253 1290 1129"
    underline-thickness="43"
    underline-position="-120"
    stemh="50"
    stemv="83"
    unicode-range="U+0020-FB02"
  />
<missing-glyph horiz-adv-x="567" 
d="M82 0v468h403v-468h-403zM119 37h330v394h-330v-394z" />
    <glyph glyph-name="f_f" unicode="ff" horiz-adv-x="601" 
d="M100 0v418h-84v70h84v42c0 105 86 168 191 168c43 0 85 -10 122 -32c27 21 62 32 102 32c29 0 55 -7 80 -19l-28 -68c-14 8 -29 13 -44 13c-44 0 -71 -22 -71 -72v-64h139v-70h-139v-418h-86v418h-184v-418h-82zM182 488h185v72c0 20 4 37 11 51c-23 13 -51 20 -83 20
c-73 0 -113 -41 -113 -102v-41z" />
    <glyph glyph-name="f_f_i" unicode="ffi" horiz-adv-x="796" 
d="M100 0v418h-84v70h84v42c0 105 86 168 191 168c47 0 94 -12 133 -39c33 26 78 39 125 39c69 0 117 -17 162 -48l-39 -58c-33 25 -72 39 -119 39c-68 0 -104 -35 -104 -106v-37h267v-488h-82v418h-185v-418h-83v418h-184v-418h-82zM182 488h184v39c0 33 7 59 18 80
c-24 15 -54 24 -89 24c-73 0 -113 -41 -113 -102v-41z" />
    <glyph glyph-name="f_f_l" unicode="ffl" horiz-adv-x="831" 
d="M730 -8c-67 0 -96 34 -96 109v511c-23 12 -50 19 -81 19c-68 0 -104 -35 -104 -106v-37h105v-70h-105v-418h-83v418h-184v-418h-82v418h-84v70h84v42c0 105 86 168 191 168c47 0 95 -12 134 -39c32 26 76 39 124 39c69 0 117 -17 167 -50v-525c0 -33 8 -57 51 -57
c10 0 25 2 39 4l1 -70c-23 -4 -53 -8 -77 -8zM182 488h184v39c0 33 7 59 19 80c-24 15 -55 24 -90 24c-73 0 -113 -41 -113 -102v-41z" />
    <glyph glyph-name="fi" unicode="fi" horiz-adv-x="525" 
d="M444 488v-488h-77v418h-185v-418h-82v418h-84v70h84v39c0 114 82 171 182 171c69 0 117 -17 162 -48l-39 -58c-33 25 -71 39 -119 39c-68 0 -104 -35 -104 -106v-37h262z" />
    <glyph glyph-name="fl" unicode="fl" horiz-adv-x="563" 
d="M464 -8c-65 0 -94 34 -94 109v506c-26 16 -56 24 -90 24c-66 0 -100 -35 -100 -106v-37h105v-70h-105v-418h-83v418h-81v70h81v39c0 114 81 171 179 171c68 0 107 -10 176 -49v-526c0 -33 9 -57 49 -57c9 0 23 2 37 4l1 -70c-23 -4 -52 -8 -75 -8z" />
    <glyph glyph-name="h_d_c_o.liga" unicode="hdco" horiz-adv-x="868" 
d="M434 -30c-209 0 -378 169 -378 378s169 378 378 378s378 -169 378 -378s-169 -378 -378 -378zM434 5c190 0 343 153 343 343s-153 343 -343 343s-343 -153 -343 -343s153 -343 343 -343zM237 200c-9 0 -17 7 -17 17v262c0 10 8 18 17 18c10 0 18 -8 18 -18v-262
c0 -10 -8 -17 -18 -17zM434 200c-10 0 -17 7 -17 17v262c0 10 7 18 17 18s17 -8 17 -18v-262c0 -10 -7 -17 -17 -17zM630 200c-4 0 -8 1 -11 5l-132 131c-3 4 -4 8 -4 12c0 5 1 9 4 12l131 129c4 5 9 7 13 7c9 0 17 -8 17 -17c0 -4 -1 -8 -5 -12l-119 -119l119 -119
c4 -4 5 -8 5 -12c0 -9 -9 -17 -18 -17zM303 331c-10 0 -17 7 -17 17s7 17 17 17h65c10 0 18 -7 18 -17s-8 -17 -18 -17h-65z" />
    <glyph glyph-name=".notdef" horiz-adv-x="567" 
d="M82 0v468h403v-468h-403zM119 37h330v394h-330v-394z" />
    <glyph glyph-name="space" unicode=" " horiz-adv-x="251" 
 />
    <glyph glyph-name="A" unicode="A" horiz-adv-x="642" 
d="M24 0l263 690h69l262 -690h-93l-58 161h-290l-59 -161h-94zM204 235h236l-118 332z" />
    <glyph glyph-name="Aacute" unicode="&#xc1;" horiz-adv-x="642" 
d="M280 752l108 140h89l-135 -140h-62zM24 0l263 690h69l262 -690h-93l-58 161h-290l-59 -161h-94zM204 235h236l-118 332z" />
    <glyph glyph-name="Abreve" unicode="&#x102;" horiz-adv-x="642" 
d="M321 762c-103 0 -151 46 -151 130h59c0 -54 37 -80 92 -80c56 0 91 27 91 80h59c0 -87 -52 -130 -150 -130zM24 0l263 690h69l262 -690h-93l-58 161h-290l-59 -161h-94zM204 235h236l-118 332z" />
    <glyph glyph-name="uni1EAE" unicode="&#x1eae;" horiz-adv-x="642" 
d="M280 954l108 140h89l-135 -140h-62zM321 762c-103 0 -151 46 -151 130h59c0 -54 37 -80 92 -80c56 0 91 27 91 80h59c0 -87 -52 -130 -150 -130zM24 0l263 690h69l262 -690h-93l-58 161h-290l-59 -161h-94zM204 235h236l-118 332z" />
    <glyph glyph-name="uni1EB6" unicode="&#x1eb6;" horiz-adv-x="642" 
d="M321 762c-103 0 -151 46 -151 130h59c0 -54 37 -80 92 -80c56 0 91 27 91 80h59c0 -87 -52 -130 -150 -130zM24 0l263 690h69l262 -690h-93l-58 161h-290l-59 -161h-94zM204 235h236l-118 332zM277 -202v103h86v-103h-86z" />
    <glyph glyph-name="uni1EB0" unicode="&#x1eb0;" horiz-adv-x="642" 
d="M297 947l-134 147h88l108 -147h-62zM321 762c-103 0 -151 46 -151 130h59c0 -54 37 -80 92 -80c56 0 91 27 91 80h59c0 -87 -52 -130 -150 -130zM24 0l263 690h69l262 -690h-93l-58 161h-290l-59 -161h-94zM204 235h236l-118 332z" />
    <glyph glyph-name="uni1EB2" unicode="&#x1eb2;" horiz-adv-x="642" 
d="M293 935v59c37 8 55 26 55 50c0 22 -15 37 -39 37c-13 0 -28 -5 -41 -18l-27 41c18 14 43 25 77 25c56 0 90 -32 90 -80c0 -46 -29 -66 -61 -75v-39h-54zM320 762c-102 0 -150 46 -150 130h59c0 -54 36 -80 91 -80c57 0 91 27 91 80h60c0 -87 -52 -130 -151 -130zM24 0
l263 690h69l262 -690h-93l-58 161h-290l-59 -161h-94zM204 235h236l-118 332z" />
    <glyph glyph-name="uni1EB4" unicode="&#x1eb4;" horiz-adv-x="642" 
d="M387 957c-80 0 -85 82 -133 82c-27 0 -44 -28 -44 -75h-48c0 81 36 127 95 127c73 0 83 -81 131 -81c24 0 41 29 41 77h51c0 -81 -36 -130 -93 -130zM321 762c-103 0 -151 46 -151 130h59c0 -54 37 -80 92 -80c56 0 91 27 91 80h59c0 -87 -52 -130 -150 -130zM24 0
l263 690h69l262 -690h-93l-58 161h-290l-59 -161h-94zM204 235h236l-118 332z" />
    <glyph glyph-name="uni01CD" unicode="&#x1cd;" horiz-adv-x="642" 
d="M320 738l-150 154h67l83 -86l83 86h67zM24 0l263 690h69l262 -690h-93l-58 161h-290l-59 -161h-94zM204 235h236l-118 332z" />
    <glyph glyph-name="Acircumflex" unicode="&#xc2;" horiz-adv-x="642" 
d="M171 743l149 161l150 -161h-67l-83 89l-83 -89h-66zM24 0l263 690h69l262 -690h-93l-58 161h-290l-59 -161h-94zM204 235h236l-118 332z" />
    <glyph glyph-name="uni1EA4" unicode="&#x1ea4;" horiz-adv-x="642" 
d="M280 953l108 140h89l-135 -140h-62zM171 743l149 161l150 -161h-67l-83 89l-83 -89h-66zM24 0l263 690h69l262 -690h-93l-58 161h-290l-59 -161h-94zM204 235h236l-118 332z" />
    <glyph glyph-name="uni1EAC" unicode="&#x1eac;" horiz-adv-x="642" 
d="M171 743l149 161l150 -161h-67l-83 89l-83 -89h-66zM24 0l263 690h69l262 -690h-93l-58 161h-290l-59 -161h-94zM204 235h236l-118 332zM277 -202v103h86v-103h-86z" />
    <glyph glyph-name="uni1EA6" unicode="&#x1ea6;" horiz-adv-x="642" 
d="M297 946l-134 147h88l108 -147h-62zM171 743l149 161l150 -161h-67l-83 89l-83 -89h-66zM24 0l263 690h69l262 -690h-93l-58 161h-290l-59 -161h-94zM204 235h236l-118 332z" />
    <glyph glyph-name="uni1EA8" unicode="&#x1ea8;" horiz-adv-x="642" 
d="M293 935v59c37 7 55 25 55 50c0 21 -15 37 -39 37c-13 0 -28 -6 -41 -18l-27 40c18 15 43 25 77 25c56 0 90 -32 90 -80c0 -46 -29 -65 -61 -75v-38h-54zM170 743l150 161l150 -161h-67l-83 89l-83 -89h-67zM24 0l263 690h69l262 -690h-93l-58 161h-290l-59 -161h-94z
M204 235h236l-118 332z" />
    <glyph glyph-name="uni1EAA" unicode="&#x1eaa;" horiz-adv-x="642" 
d="M387 957c-80 0 -85 82 -133 82c-27 0 -44 -28 -44 -75h-48c0 81 36 127 95 127c73 0 83 -81 131 -81c24 0 41 29 41 77h51c0 -81 -36 -130 -93 -130zM171 743l149 161l150 -161h-67l-83 89l-83 -89h-66zM24 0l263 690h69l262 -690h-93l-58 161h-290l-59 -161h-94z
M204 235h236l-118 332z" />
    <glyph glyph-name="Adieresis" unicode="&#xc4;" horiz-adv-x="642" 
d="M194 789v103h70v-103h-70zM376 789v103h70v-103h-70zM24 0l263 690h69l262 -690h-93l-58 161h-290l-59 -161h-94zM204 235h236l-118 332z" />
    <glyph glyph-name="uni1EA0" unicode="&#x1ea0;" horiz-adv-x="642" 
d="M24 0l263 690h69l262 -690h-93l-58 161h-290l-59 -161h-94zM204 235h236l-118 332zM277 -202v103h86v-103h-86z" />
    <glyph glyph-name="Agrave" unicode="&#xc0;" horiz-adv-x="642" 
d="M297 745l-134 147h88l108 -147h-62zM24 0l263 690h69l262 -690h-93l-58 161h-290l-59 -161h-94zM204 235h236l-118 332z" />
    <glyph glyph-name="uni1EA2" unicode="&#x1ea2;" horiz-adv-x="642" 
d="M294 733v59c37 8 55 26 55 50c0 22 -16 37 -40 37c-13 0 -28 -5 -41 -18l-27 41c19 14 43 25 77 25c56 0 90 -32 90 -80c0 -46 -29 -66 -61 -75v-39h-53zM24 0l263 690h69l262 -690h-93l-58 161h-290l-59 -161h-94zM204 235h236l-118 332z" />
    <glyph glyph-name="Amacron" unicode="&#x100;" horiz-adv-x="642" 
d="M186 786v50h269v-50h-269zM24 0l263 690h69l262 -690h-93l-58 161h-290l-59 -161h-94zM204 235h236l-118 332z" />
    <glyph glyph-name="Aogonek" unicode="&#x104;" horiz-adv-x="642" 
d="M618 -134l43 -29c-25 -36 -58 -59 -106 -59c-62 0 -104 37 -104 95c0 72 68 118 98 127h-24l-58 161h-290l-59 -161h-94l263 690h69l262 -690c-38 -11 -117 -54 -117 -116c0 -39 22 -54 52 -54c28 0 48 12 65 36zM204 235h236l-118 332z" />
    <glyph glyph-name="Aring" unicode="&#xc5;" horiz-adv-x="642" 
d="M319 732c-56 0 -100 46 -100 101c0 56 45 101 100 101s101 -45 101 -101s-44 -101 -101 -101zM319 778c32 0 55 24 55 56c0 30 -22 54 -55 54c-31 0 -54 -24 -54 -54c0 -32 24 -56 54 -56zM24 0l263 690h69l262 -690h-93l-58 161h-290l-59 -161h-94zM204 235h236
l-118 332z" />
    <glyph glyph-name="Aringacute" unicode="&#x1fa;" horiz-adv-x="642" 
d="M319 732c-56 0 -100 46 -100 101c0 56 45 101 100 101c20 0 38 -6 54 -16l79 103h89l-134 -139c8 -14 13 -31 13 -49c0 -56 -44 -101 -101 -101zM319 888c-31 0 -54 -24 -54 -54c0 -32 24 -56 54 -56c32 0 55 24 55 56c0 20 -10 38 -27 47h-3l1 1c-8 4 -16 6 -26 6z
M356 690l262 -690h-93l-58 161h-290l-59 -161h-94l263 690h69zM204 235h236l-118 332z" />
    <glyph glyph-name="Atilde" unicode="&#xc3;" horiz-adv-x="642" 
d="M387 755c-80 0 -85 82 -133 82c-27 0 -44 -28 -44 -75h-48c0 81 36 127 95 127c73 0 83 -81 131 -81c24 0 41 29 41 77h51c0 -81 -36 -130 -93 -130zM24 0l263 690h69l262 -690h-93l-58 161h-290l-59 -161h-94zM204 235h236l-118 332z" />
    <glyph glyph-name="AE" unicode="&#xc6;" horiz-adv-x="925" 
d="M24 0l261 690h579v-76h-364v-232h318v-72h-318v-232h364v-78h-450v161h-239l-57 -161h-94zM202 228h212v389h-74z" />
    <glyph glyph-name="AEacute" unicode="&#x1fc;" horiz-adv-x="925" 
d="M432 752l108 140h89l-135 -140h-62zM24 0l261 690h579v-76h-364v-232h318v-72h-318v-232h364v-78h-450v161h-239l-57 -161h-94zM202 228h212v389h-74z" />
    <glyph glyph-name="B" unicode="B" horiz-adv-x="621" 
d="M103 0v690h219c112 0 211 -51 211 -180c0 -68 -40 -123 -88 -144c72 -20 122 -92 122 -172c0 -125 -97 -194 -222 -194h-242zM189 396h151c61 0 114 33 114 109c0 71 -51 107 -131 107h-134v-216zM189 82h157c88 0 136 40 136 121c0 69 -47 118 -126 118h-167v-239z" />
    <glyph glyph-name="C" unicode="C" horiz-adv-x="707" 
d="M376 -8c-213 0 -319 154 -319 354c0 199 106 353 322 353c136 0 235 -65 288 -190l-81 -32c-32 99 -104 140 -208 140c-160 0 -236 -111 -236 -268c0 -155 70 -275 234 -275c102 0 170 42 212 142l80 -33c-55 -125 -156 -191 -292 -191z" />
    <glyph glyph-name="Cacute" unicode="&#x106;" horiz-adv-x="707" 
d="M328 752l108 140h89l-135 -140h-62zM376 -8c-213 0 -319 154 -319 354c0 199 106 353 322 353c136 0 235 -65 288 -190l-81 -32c-32 99 -104 140 -208 140c-160 0 -236 -111 -236 -268c0 -155 70 -275 234 -275c102 0 170 42 212 142l80 -33
c-55 -125 -156 -191 -292 -191z" />
    <glyph glyph-name="Ccaron" unicode="&#x10c;" horiz-adv-x="707" 
d="M368 738l-150 154h67l83 -86l83 86h67zM376 -8c-213 0 -319 154 -319 354c0 199 106 353 322 353c136 0 235 -65 288 -190l-81 -32c-32 99 -104 140 -208 140c-160 0 -236 -111 -236 -268c0 -155 70 -275 234 -275c102 0 170 42 212 142l80 -33
c-55 -125 -156 -191 -292 -191z" />
    <glyph glyph-name="Ccedilla" unicode="&#xc7;" horiz-adv-x="707" 
d="M668 183c-50 -114 -138 -179 -257 -189l-35 -54c11 0 21 -2 30 -4c51 -12 78 -43 78 -88c0 -59 -43 -101 -105 -101c-44 0 -86 23 -98 73l47 19c7 -23 27 -43 53 -43c33 0 53 19 53 49c0 34 -32 58 -86 61h-40l52 86c-202 8 -303 159 -303 354c0 199 106 353 322 353
c136 0 235 -65 288 -190l-81 -32c-32 99 -104 140 -208 140c-160 0 -236 -111 -236 -268c0 -155 70 -275 234 -275c102 0 170 42 212 142z" />
    <glyph glyph-name="Cdotaccent" unicode="&#x10a;" horiz-adv-x="707" 
d="M325 789v103h86v-103h-86zM376 -8c-213 0 -319 154 -319 354c0 199 106 353 322 353c136 0 235 -65 288 -190l-81 -32c-32 99 -104 140 -208 140c-160 0 -236 -111 -236 -268c0 -155 70 -275 234 -275c102 0 170 42 212 142l80 -33c-55 -125 -156 -191 -292 -191z" />
    <glyph glyph-name="D" unicode="D" horiz-adv-x="703" 
d="M103 0v690h190c231 0 355 -126 355 -350c0 -216 -127 -340 -356 -340h-189zM189 79h95c173 0 278 79 278 264c0 183 -84 268 -270 268h-103v-532z" />
    <glyph glyph-name="uni01F1" unicode="&#x1f1;" horiz-adv-x="1325" 
d="M293 690c231 0 355 -126 355 -350c0 -216 -127 -340 -356 -340h-189v690h190zM1280 690v-65l-430 -547h429v-78h-547v63l432 548h-409v79h525zM284 79c173 0 278 79 278 264c0 183 -84 268 -270 268h-103v-532h95z" />
    <glyph glyph-name="uni01C4" unicode="&#x1c4;" horiz-adv-x="1325" 
d="M1157 892l-150 -154l-150 154h67l83 -86l83 86h67zM293 690c231 0 355 -126 355 -350c0 -216 -127 -340 -356 -340h-189v690h190zM1280 690v-65l-430 -547h429v-78h-547v63l432 548h-409v79h525zM284 79c173 0 278 79 278 264c0 183 -84 268 -270 268h-103v-532h95z" />
    <glyph glyph-name="Eth" unicode="&#xd0;" horiz-adv-x="703" 
d="M293 690c231 0 355 -126 355 -350c0 -216 -127 -340 -356 -340h-189v317h-73v56h73v317h190zM284 79c173 0 278 79 278 264c0 183 -84 268 -270 268h-103v-238h151v-56h-151v-238h95z" />
    <glyph glyph-name="Dcaron" unicode="&#x10e;" horiz-adv-x="703" 
d="M360 738l-150 154h67l83 -86l83 86h67zM103 0v690h190c231 0 355 -126 355 -350c0 -216 -127 -340 -356 -340h-189zM189 79h95c173 0 278 79 278 264c0 183 -84 268 -270 268h-103v-532z" />
    <glyph glyph-name="Dcroat" unicode="&#x110;" horiz-adv-x="703" 
d="M293 690c231 0 355 -126 355 -350c0 -216 -127 -340 -356 -340h-189v317h-73v56h73v317h190zM284 79c173 0 278 79 278 264c0 183 -84 268 -270 268h-103v-238h151v-56h-151v-238h95z" />
    <glyph glyph-name="uni01F2" unicode="&#x1f2;" horiz-adv-x="1187" 
d="M293 690c231 0 355 -126 355 -350c0 -216 -127 -340 -356 -340h-189v690h190zM284 79c173 0 278 79 278 264c0 183 -84 268 -270 268h-103v-532h95zM1150 488v-63l-303 -355h301v-70h-412v58l309 360h-294v70h399z" />
    <glyph glyph-name="uni01C5" unicode="&#x1c5;" horiz-adv-x="1187" 
d="M293 690c231 0 355 -126 355 -350c0 -216 -127 -340 -356 -340h-189v690h190zM1092 690l-150 -154l-150 154h67l83 -86l83 86h67zM284 79c173 0 278 79 278 264c0 183 -84 268 -270 268h-103v-532h95zM1150 488v-63l-303 -355h301v-70h-412v58l309 360h-294v70h399z" />
    <glyph glyph-name="E" unicode="E" horiz-adv-x="617" 
d="M103 0v690h453v-79h-367v-225h334v-80h-334v-225h367v-81h-453z" />
    <glyph glyph-name="Eacute" unicode="&#xc9;" horiz-adv-x="617" 
d="M289 752l108 140h89l-135 -140h-62zM103 0v690h453v-79h-367v-225h334v-80h-334v-225h367v-81h-453z" />
    <glyph glyph-name="Ebreve" unicode="&#x114;" horiz-adv-x="617" 
d="M330 762c-103 0 -151 46 -151 130h59c0 -54 37 -80 92 -80c56 0 91 27 91 80h59c0 -87 -52 -130 -150 -130zM103 0v690h453v-79h-367v-225h334v-80h-334v-225h367v-81h-453z" />
    <glyph glyph-name="Ecaron" unicode="&#x11a;" horiz-adv-x="617" 
d="M330 738l-150 154h67l83 -86l83 86h67zM103 0v690h453v-79h-367v-225h334v-80h-334v-225h367v-81h-453z" />
    <glyph glyph-name="Ecircumflex" unicode="&#xca;" horiz-adv-x="617" 
d="M180 743l149 161l150 -161h-67l-83 89l-83 -89h-66zM103 0v690h453v-79h-367v-225h334v-80h-334v-225h367v-81h-453z" />
    <glyph glyph-name="uni1EBE" unicode="&#x1ebe;" horiz-adv-x="617" 
d="M289 953l108 140h89l-135 -140h-62zM180 743l149 161l150 -161h-67l-83 89l-83 -89h-66zM103 0v690h453v-79h-367v-225h334v-80h-334v-225h367v-81h-453z" />
    <glyph glyph-name="uni1EC6" unicode="&#x1ec6;" horiz-adv-x="617" 
d="M180 743l149 161l150 -161h-67l-83 89l-83 -89h-66zM103 0v690h453v-79h-367v-225h334v-80h-334v-225h367v-81h-453zM287 -202v103h86v-103h-86z" />
    <glyph glyph-name="uni1EC0" unicode="&#x1ec0;" horiz-adv-x="617" 
d="M307 946l-134 147h88l108 -147h-62zM180 743l149 161l150 -161h-67l-83 89l-83 -89h-66zM103 0v690h453v-79h-367v-225h334v-80h-334v-225h367v-81h-453z" />
    <glyph glyph-name="uni1EC2" unicode="&#x1ec2;" horiz-adv-x="617" 
d="M303 935v59c37 7 55 25 55 50c0 21 -15 37 -39 37c-13 0 -28 -6 -41 -18l-27 40c18 15 43 25 77 25c56 0 90 -32 90 -80c0 -46 -29 -65 -61 -75v-38h-54zM180 743l150 161l150 -161h-67l-83 89l-83 -89h-67zM103 0v690h453v-79h-367v-225h334v-80h-334v-225h367v-81h-453
z" />
    <glyph glyph-name="uni1EC4" unicode="&#x1ec4;" horiz-adv-x="617" 
d="M396 957c-80 0 -85 82 -133 82c-27 0 -44 -28 -44 -75h-48c0 81 36 127 95 127c73 0 83 -81 131 -81c24 0 41 29 41 77h51c0 -81 -36 -130 -93 -130zM180 743l149 161l150 -161h-67l-83 89l-83 -89h-66zM103 0v690h453v-79h-367v-225h334v-80h-334v-225h367v-81h-453z
" />
    <glyph glyph-name="Edieresis" unicode="&#xcb;" horiz-adv-x="617" 
d="M203 789v103h70v-103h-70zM385 789v103h70v-103h-70zM103 0v690h453v-79h-367v-225h334v-80h-334v-225h367v-81h-453z" />
    <glyph glyph-name="Edotaccent" unicode="&#x116;" horiz-adv-x="617" 
d="M287 789v103h86v-103h-86zM103 0v690h453v-79h-367v-225h334v-80h-334v-225h367v-81h-453z" />
    <glyph glyph-name="uni1EB8" unicode="&#x1eb8;" horiz-adv-x="617" 
d="M103 0v690h453v-79h-367v-225h334v-80h-334v-225h367v-81h-453zM287 -202v103h86v-103h-86z" />
    <glyph glyph-name="Egrave" unicode="&#xc8;" horiz-adv-x="617" 
d="M307 745l-134 147h88l108 -147h-62zM103 0v690h453v-79h-367v-225h334v-80h-334v-225h367v-81h-453z" />
    <glyph glyph-name="uni1EBA" unicode="&#x1eba;" horiz-adv-x="617" 
d="M303 733v59c37 8 55 26 55 50c0 22 -16 37 -40 37c-13 0 -28 -5 -41 -18l-27 41c19 14 43 25 77 25c56 0 90 -32 90 -80c0 -46 -29 -66 -61 -75v-39h-53zM103 0v690h453v-79h-367v-225h334v-80h-334v-225h367v-81h-453z" />
    <glyph glyph-name="Emacron" unicode="&#x112;" horiz-adv-x="617" 
d="M196 786v50h269v-50h-269zM103 0v690h453v-79h-367v-225h334v-80h-334v-225h367v-81h-453z" />
    <glyph glyph-name="Eogonek" unicode="&#x118;" horiz-adv-x="617" 
d="M556 -134l43 -29c-25 -36 -58 -59 -106 -59c-62 0 -104 37 -104 95c0 72 68 118 98 127h-384v690h453v-79h-367v-225h334v-80h-334v-225h367v-81c-38 -11 -117 -54 -117 -116c0 -39 22 -54 52 -54c28 0 48 12 65 36z" />
    <glyph glyph-name="uni1EBC" unicode="&#x1ebc;" horiz-adv-x="617" 
d="M396 755c-80 0 -85 82 -133 82c-27 0 -44 -28 -44 -75h-48c0 81 36 127 95 127c73 0 83 -81 131 -81c24 0 41 29 41 77h51c0 -81 -36 -130 -93 -130zM103 0v690h453v-79h-367v-225h334v-80h-334v-225h367v-81h-453z" />
    <glyph glyph-name="F" unicode="F" horiz-adv-x="611" 
d="M103 0v690h473v-79h-387v-225h341v-80h-341v-306h-86z" />
    <glyph glyph-name="G" unicode="G" horiz-adv-x="751" 
d="M376 -8c-213 0 -319 154 -319 354c0 199 105 353 322 353c136 0 235 -65 287 -190l-77 -32c-35 101 -109 147 -211 147c-160 0 -236 -118 -236 -275c0 -155 70 -280 234 -280c117 0 196 61 212 178l2 44h-164v70h249v-361h-69l-7 115c-42 -77 -120 -123 -223 -123z" />
    <glyph glyph-name="Gbreve" unicode="&#x11e;" horiz-adv-x="751" 
d="M377 762c-103 0 -151 46 -151 130h59c0 -54 37 -80 92 -80c56 0 91 27 91 80h59c0 -87 -52 -130 -150 -130zM376 -8c-213 0 -319 154 -319 354c0 199 105 353 322 353c136 0 235 -65 287 -190l-77 -32c-35 101 -109 147 -211 147c-160 0 -236 -118 -236 -275
c0 -155 70 -280 234 -280c117 0 196 61 212 178l2 44h-164v70h249v-361h-69l-7 115c-42 -77 -120 -123 -223 -123z" />
    <glyph glyph-name="Gcaron" unicode="&#x1e6;" horiz-adv-x="751" 
d="M376 738l-150 154h67l83 -86l83 86h67zM376 -8c-213 0 -319 154 -319 354c0 199 105 353 322 353c136 0 235 -65 287 -190l-77 -32c-35 101 -109 147 -211 147c-160 0 -236 -118 -236 -275c0 -155 70 -280 234 -280c117 0 196 61 212 178l2 44h-164v70h249v-361h-69
l-7 115c-42 -77 -120 -123 -223 -123z" />
    <glyph glyph-name="Gcircumflex" unicode="&#x11c;" horiz-adv-x="751" 
d="M227 743l149 161l150 -161h-67l-83 89l-83 -89h-66zM376 -8c-213 0 -319 154 -319 354c0 199 105 353 322 353c136 0 235 -65 287 -190l-77 -32c-35 101 -109 147 -211 147c-160 0 -236 -118 -236 -275c0 -155 70 -280 234 -280c117 0 196 61 212 178l2 44h-164v70h249
v-361h-69l-7 115c-42 -77 -120 -123 -223 -123z" />
    <glyph glyph-name="uni0122" unicode="&#x122;" horiz-adv-x="751" 
d="M376 -8c-213 0 -319 154 -319 354c0 199 105 353 322 353c136 0 235 -65 287 -190l-77 -32c-35 101 -109 147 -211 147c-160 0 -236 -118 -236 -275c0 -155 70 -280 234 -280c117 0 196 61 212 178l2 44h-164v70h249v-361h-69l-7 115c-42 -77 -120 -123 -223 -123z
M263 -220l81 166h87l-118 -166h-50z" />
    <glyph glyph-name="Gdotaccent" unicode="&#x120;" horiz-adv-x="751" 
d="M333 789v103h86v-103h-86zM376 -8c-213 0 -319 154 -319 354c0 199 105 353 322 353c136 0 235 -65 287 -190l-77 -32c-35 101 -109 147 -211 147c-160 0 -236 -118 -236 -275c0 -155 70 -280 234 -280c117 0 196 61 212 178l2 44h-164v70h249v-361h-69l-7 115
c-42 -77 -120 -123 -223 -123z" />
    <glyph glyph-name="H" unicode="H" horiz-adv-x="719" 
d="M103 0v690h86v-304h342v304h86v-690h-86v307h-342v-307h-86z" />
    <glyph glyph-name="Hbar" unicode="&#x126;" horiz-adv-x="719" 
d="M677 569v-50h-60v-519h-86v307h-342v-307h-86v519h-61v50h61v121h86v-121h342v121h86v-121h60zM531 386v133h-342v-133h342z" />
    <glyph glyph-name="Hcircumflex" unicode="&#x124;" horiz-adv-x="719" 
d="M210 743l149 161l150 -161h-67l-83 89l-83 -89h-66zM103 0v690h86v-304h342v304h86v-690h-86v307h-342v-307h-86z" />
    <glyph glyph-name="I" unicode="I" horiz-adv-x="291" 
d="M103 0v690h86v-690h-86z" />
    <glyph glyph-name="IJ" unicode="&#x132;" horiz-adv-x="858" 
d="M103 0v690h86v-690h-86zM546 -8c-134 0 -215 93 -224 214l84 9c6 -83 53 -143 140 -143c102 0 136 62 136 177v362h-273v79h359v-439c0 -155 -65 -259 -222 -259z" />
    <glyph glyph-name="Iacute" unicode="&#xcd;" horiz-adv-x="291" 
d="M104 752l108 140h89l-135 -140h-62zM103 0v690h86v-690h-86z" />
    <glyph glyph-name="Ibreve" unicode="&#x12c;" horiz-adv-x="291" 
d="M146 762c-103 0 -151 46 -151 130h59c0 -54 37 -80 92 -80c56 0 91 27 91 80h59c0 -87 -52 -130 -150 -130zM103 0v690h86v-690h-86z" />
    <glyph glyph-name="uni01CF" unicode="&#x1cf;" horiz-adv-x="291" 
d="M145 738l-150 154h67l83 -86l83 86h67zM103 0v690h86v-690h-86z" />
    <glyph glyph-name="Icircumflex" unicode="&#xce;" horiz-adv-x="291" 
d="M-4 743l149 161l150 -161h-67l-83 89l-83 -89h-66zM103 0v690h86v-690h-86z" />
    <glyph glyph-name="Idieresis" unicode="&#xcf;" horiz-adv-x="291" 
d="M19 789v103h70v-103h-70zM201 789v103h70v-103h-70zM103 0v690h86v-690h-86z" />
    <glyph glyph-name="Idotaccent" unicode="&#x130;" horiz-adv-x="291" 
d="M102 789v103h86v-103h-86zM103 0v690h86v-690h-86z" />
    <glyph glyph-name="uni1ECA" unicode="&#x1eca;" horiz-adv-x="291" 
d="M103 0v690h86v-690h-86zM102 -202v103h86v-103h-86z" />
    <glyph glyph-name="Igrave" unicode="&#xcc;" horiz-adv-x="291" 
d="M122 745l-134 147h88l108 -147h-62zM103 0v690h86v-690h-86z" />
    <glyph glyph-name="uni1EC8" unicode="&#x1ec8;" horiz-adv-x="291" 
d="M119 733v59c37 8 55 26 55 50c0 22 -16 37 -40 37c-13 0 -28 -5 -41 -18l-27 41c19 14 43 25 77 25c56 0 90 -32 90 -80c0 -46 -29 -66 -61 -75v-39h-53zM103 0v690h86v-690h-86z" />
    <glyph glyph-name="Imacron" unicode="&#x12a;" horiz-adv-x="291" 
d="M11 786v50h269v-50h-269zM103 0v690h86v-690h-86z" />
    <glyph glyph-name="Iogonek" unicode="&#x12e;" horiz-adv-x="291" 
d="M188 -134l43 -29c-25 -36 -58 -59 -106 -59c-62 0 -104 37 -104 95c0 72 68 118 98 127h-16v690h86v-690h-1c-38 -11 -117 -54 -117 -116c0 -39 22 -54 52 -54c28 0 48 12 65 36z" />
    <glyph glyph-name="Itilde" unicode="&#x128;" horiz-adv-x="291" 
d="M211 755c-80 0 -85 82 -133 82c-27 0 -44 -28 -44 -75h-48c0 81 36 127 95 127c73 0 83 -81 131 -81c24 0 41 29 41 77h51c0 -81 -36 -130 -93 -130zM103 0v690h86v-690h-86z" />
    <glyph glyph-name="J" unicode="J" horiz-adv-x="567" 
d="M255 -8c-134 0 -215 93 -224 214l84 9c6 -83 53 -143 140 -143c102 0 136 62 136 177v362h-273v79h359v-439c0 -155 -65 -259 -222 -259z" />
    <glyph glyph-name="uni00A40301" horiz-adv-x="567" 
d="M240 752l108 140h89l-135 -140h-62zM255 -8c-134 0 -215 93 -224 214l84 9c6 -83 53 -143 140 -143c102 0 136 62 136 177v362h-273v79h359v-439c0 -155 -65 -259 -222 -259z" />
    <glyph glyph-name="Jcircumflex" unicode="&#x134;" horiz-adv-x="567" 
d="M131 743l149 161l150 -161h-67l-83 89l-83 -89h-66zM255 -8c-134 0 -215 93 -224 214l84 9c6 -83 53 -143 140 -143c102 0 136 62 136 177v362h-273v79h359v-439c0 -155 -65 -259 -222 -259z" />
    <glyph glyph-name="K" unicode="K" horiz-adv-x="715" 
d="M103 0v690h86v-396l375 396h115l-268 -276l279 -414h-107l-232 357l-162 -169v-188h-86z" />
    <glyph glyph-name="uni0136" unicode="&#x136;" horiz-adv-x="715" 
d="M103 0v690h86v-396l375 396h115l-268 -276l279 -414h-107l-232 357l-162 -169v-188h-86zM234 -220l81 166h87l-118 -166h-50z" />
    <glyph glyph-name="L" unicode="L" horiz-adv-x="522" 
d="M103 0v690h86v-609h308v-81h-394z" />
    <glyph glyph-name="uni01C7" unicode="&#x1c7;" horiz-adv-x="1107" 
d="M103 0v690h86v-609h308v-81h-394zM795 -8c-134 0 -215 93 -224 214l84 9c6 -83 53 -143 140 -143c102 0 136 62 136 177v362h-273v79h359v-439c0 -155 -65 -259 -222 -259z" />
    <glyph glyph-name="Lacute" unicode="&#x139;" horiz-adv-x="522" 
d="M105 752l108 140h89l-135 -140h-62zM103 0v690h86v-609h308v-81h-394z" />
    <glyph glyph-name="Lcaron" unicode="&#x13d;" horiz-adv-x="522" 
d="M103 0v690h86v-609h308v-81h-394zM314 479l57 211h87l-93 -211h-51z" />
    <glyph glyph-name="uni013B" unicode="&#x13b;" horiz-adv-x="522" 
d="M103 0v690h86v-609h308v-81h-394zM183 -220l81 166h87l-118 -166h-50z" />
    <glyph glyph-name="Ldot" unicode="&#x13f;" horiz-adv-x="539" 
d="M103 0v690h86v-609h308v-81h-394zM416 291c-38 0 -67 31 -67 68c0 38 30 67 67 67c38 0 68 -29 68 -67c0 -37 -30 -68 -68 -68z" />
    <glyph glyph-name="uni01C8" unicode="&#x1c8;" horiz-adv-x="776" 
d="M103 0v690h86v-609h308v-81h-394zM607 587v103h88v-103h-88zM559 -212c-26 0 -60 7 -81 15l22 72c18 -7 38 -12 51 -12c40 0 58 23 58 73v552h84v-546c0 -90 -42 -154 -134 -154z" />
    <glyph glyph-name="Lslash" unicode="&#x141;" horiz-adv-x="522" 
d="M189 81h308v-81h-394v177l-68 -77v93l68 77v420h86v-323l141 160v-92l-141 -160v-194z" />
    <glyph glyph-name="M" unicode="M" horiz-adv-x="871" 
d="M651 690h117v-690h-82v574l-209 -516h-83l-209 516v-574h-82v690h117l216 -536z" />
    <glyph glyph-name="N" unicode="N" horiz-adv-x="702" 
d="M516 690h83v-690h-89l-325 551v-551h-82v690h88l325 -549v549z" />
    <glyph glyph-name="uni01CA" unicode="&#x1ca;" horiz-adv-x="1268" 
d="M516 141v549h83v-690h-89l-325 551v-551h-82v690h88zM820 690h359v-439c0 -155 -65 -259 -222 -259c-134 0 -215 93 -224 214l84 9c6 -83 53 -143 140 -143c102 0 136 62 136 177v362h-273v79z" />
    <glyph glyph-name="Nacute" unicode="&#x143;" horiz-adv-x="702" 
d="M507 892l-135 -140h-62l108 140h89zM516 690h83v-690h-89l-325 551v-551h-82v690h88l325 -549v549z" />
    <glyph glyph-name="Ncaron" unicode="&#x147;" horiz-adv-x="702" 
d="M500 892l-150 -154l-150 154h67l83 -86l83 86h67zM516 690h83v-690h-89l-325 551v-551h-82v690h88l325 -549v549z" />
    <glyph glyph-name="uni0145" unicode="&#x145;" horiz-adv-x="702" 
d="M516 690h83v-690h-89l-325 551v-551h-82v690h88l325 -549v549zM233 -220l81 166h87l-118 -166h-50z" />
    <glyph glyph-name="Eng" unicode="&#x14a;" horiz-adv-x="702" 
d="M516 690h82v-738c0 -88 -34 -162 -144 -162c-20 0 -46 3 -71 9l2 55c16 -4 34 -7 47 -7c59 0 92 29 92 80v47l-339 580v-554h-82v690h88l325 -551v551z" />
    <glyph glyph-name="uni01CB" unicode="&#x1cb;" horiz-adv-x="951" 
d="M516 141v549h83v-690h-89l-325 551v-551h-82v690h88zM783 690h88v-103h-88v103zM785 -64v552h84v-546c0 -90 -42 -154 -134 -154c-26 0 -60 7 -81 15l22 72c18 -7 38 -12 51 -12c40 0 58 23 58 73z" />
    <glyph glyph-name="Ntilde" unicode="&#xd1;" horiz-adv-x="702" 
d="M284 837c-27 0 -44 -28 -44 -75h-48c0 81 36 127 95 127c73 0 83 -81 131 -81c24 0 41 29 41 77h51c0 -81 -36 -130 -93 -130c-80 0 -85 82 -133 82zM516 690h83v-690h-89l-325 551v-551h-82v690h88l325 -549v549z" />
    <glyph glyph-name="O" unicode="O" horiz-adv-x="756" 
d="M378 -8c-220 0 -322 165 -322 353s102 353 322 353s322 -165 322 -353s-102 -353 -322 -353zM378 68c164 0 231 128 231 277s-67 277 -231 277s-231 -128 -231 -277s67 -277 231 -277z" />
    <glyph glyph-name="Oacute" unicode="&#xd3;" horiz-adv-x="756" 
d="M337 752l108 140h89l-135 -140h-62zM378 -8c-220 0 -322 165 -322 353s102 353 322 353s322 -165 322 -353s-102 -353 -322 -353zM378 68c164 0 231 128 231 277s-67 277 -231 277s-231 -128 -231 -277s67 -277 231 -277z" />
    <glyph glyph-name="Obreve" unicode="&#x14e;" horiz-adv-x="756" 
d="M378 762c-103 0 -151 46 -151 130h59c0 -54 37 -80 92 -80c56 0 91 27 91 80h59c0 -87 -52 -130 -150 -130zM378 -8c-220 0 -322 165 -322 353s102 353 322 353s322 -165 322 -353s-102 -353 -322 -353zM378 68c164 0 231 128 231 277s-67 277 -231 277
s-231 -128 -231 -277s67 -277 231 -277z" />
    <glyph glyph-name="uni01D1" unicode="&#x1d1;" horiz-adv-x="756" 
d="M377 738l-150 154h67l83 -86l83 86h67zM378 -8c-220 0 -322 165 -322 353s102 353 322 353s322 -165 322 -353s-102 -353 -322 -353zM378 68c164 0 231 128 231 277s-67 277 -231 277s-231 -128 -231 -277s67 -277 231 -277z" />
    <glyph glyph-name="Ocircumflex" unicode="&#xd4;" horiz-adv-x="756" 
d="M228 743l149 161l150 -161h-67l-83 89l-83 -89h-66zM378 -8c-220 0 -322 165 -322 353s102 353 322 353s322 -165 322 -353s-102 -353 -322 -353zM378 68c164 0 231 128 231 277s-67 277 -231 277s-231 -128 -231 -277s67 -277 231 -277z" />
    <glyph glyph-name="uni1ED0" unicode="&#x1ed0;" horiz-adv-x="756" 
d="M337 953l108 140h89l-135 -140h-62zM228 743l149 161l150 -161h-67l-83 89l-83 -89h-66zM378 -8c-220 0 -322 165 -322 353s102 353 322 353s322 -165 322 -353s-102 -353 -322 -353zM378 68c164 0 231 128 231 277s-67 277 -231 277s-231 -128 -231 -277
s67 -277 231 -277z" />
    <glyph glyph-name="uni1ED8" unicode="&#x1ed8;" horiz-adv-x="756" 
d="M228 743l149 161l150 -161h-67l-83 89l-83 -89h-66zM378 -8c-220 0 -322 165 -322 353s102 353 322 353s322 -165 322 -353s-102 -353 -322 -353zM378 68c164 0 231 128 231 277s-67 277 -231 277s-231 -128 -231 -277s67 -277 231 -277zM334 -202v103h86v-103h-86z" />
    <glyph glyph-name="uni1ED2" unicode="&#x1ed2;" horiz-adv-x="756" 
d="M354 946l-134 147h88l108 -147h-62zM228 743l149 161l150 -161h-67l-83 89l-83 -89h-66zM378 -8c-220 0 -322 165 -322 353s102 353 322 353s322 -165 322 -353s-102 -353 -322 -353zM378 68c164 0 231 128 231 277s-67 277 -231 277s-231 -128 -231 -277
s67 -277 231 -277z" />
    <glyph glyph-name="uni1ED4" unicode="&#x1ed4;" horiz-adv-x="756" 
d="M350 935v59c37 7 55 25 55 50c0 21 -15 37 -39 37c-13 0 -28 -6 -41 -18l-27 40c18 15 43 25 77 25c56 0 90 -32 90 -80c0 -46 -29 -65 -61 -75v-38h-54zM227 743l150 161l150 -161h-67l-83 89l-83 -89h-67zM378 -8c-220 0 -322 165 -322 353s102 353 322 353
s322 -165 322 -353s-102 -353 -322 -353zM378 68c164 0 231 128 231 277s-67 277 -231 277s-231 -128 -231 -277s67 -277 231 -277z" />
    <glyph glyph-name="uni1ED6" unicode="&#x1ed6;" horiz-adv-x="756" 
d="M444 957c-80 0 -85 82 -133 82c-27 0 -44 -28 -44 -75h-48c0 81 36 127 95 127c73 0 83 -81 131 -81c24 0 41 29 41 77h51c0 -81 -36 -130 -93 -130zM228 743l149 161l150 -161h-67l-83 89l-83 -89h-66zM378 -8c-220 0 -322 165 -322 353s102 353 322 353
s322 -165 322 -353s-102 -353 -322 -353zM378 68c164 0 231 128 231 277s-67 277 -231 277s-231 -128 -231 -277s67 -277 231 -277z" />
    <glyph glyph-name="Odieresis" unicode="&#xd6;" horiz-adv-x="756" 
d="M251 789v103h70v-103h-70zM433 789v103h70v-103h-70zM378 -8c-220 0 -322 165 -322 353s102 353 322 353s322 -165 322 -353s-102 -353 -322 -353zM378 68c164 0 231 128 231 277s-67 277 -231 277s-231 -128 -231 -277s67 -277 231 -277z" />
    <glyph glyph-name="uni1ECC" unicode="&#x1ecc;" horiz-adv-x="756" 
d="M378 -8c-220 0 -322 165 -322 353s102 353 322 353s322 -165 322 -353s-102 -353 -322 -353zM378 68c164 0 231 128 231 277s-67 277 -231 277s-231 -128 -231 -277s67 -277 231 -277zM334 -202v103h86v-103h-86z" />
    <glyph glyph-name="Ograve" unicode="&#xd2;" horiz-adv-x="756" 
d="M354 745l-134 147h88l108 -147h-62zM378 -8c-220 0 -322 165 -322 353s102 353 322 353s322 -165 322 -353s-102 -353 -322 -353zM378 68c164 0 231 128 231 277s-67 277 -231 277s-231 -128 -231 -277s67 -277 231 -277z" />
    <glyph glyph-name="uni1ECE" unicode="&#x1ece;" horiz-adv-x="756" 
d="M351 733v59c37 8 55 26 55 50c0 22 -16 37 -40 37c-13 0 -28 -5 -41 -18l-27 41c19 14 43 25 77 25c56 0 90 -32 90 -80c0 -46 -29 -66 -61 -75v-39h-53zM378 -8c-220 0 -322 165 -322 353s102 353 322 353s322 -165 322 -353s-102 -353 -322 -353zM378 68
c164 0 231 128 231 277s-67 277 -231 277s-231 -128 -231 -277s67 -277 231 -277z" />
    <glyph glyph-name="Ohorn" unicode="&#x1a0;" horiz-adv-x="756" 
d="M727 718c0 -73 -27 -128 -90 -147c43 -62 63 -142 63 -226c0 -188 -102 -353 -322 -353s-322 165 -322 353s102 353 322 353c94 0 166 -30 218 -79c51 5 68 46 68 93v51h63v-45zM378 68c164 0 231 128 231 277s-67 277 -231 277s-231 -128 -231 -277s67 -277 231 -277z
" />
    <glyph glyph-name="uni1EDA" unicode="&#x1eda;" horiz-adv-x="756" 
d="M534 892l-135 -140h-62l108 140h89zM727 718c0 -73 -27 -128 -90 -147c43 -62 63 -142 63 -226c0 -188 -102 -353 -322 -353s-322 165 -322 353s102 353 322 353c94 0 166 -30 218 -79c51 5 68 46 68 93v51h63v-45zM378 68c164 0 231 128 231 277s-67 277 -231 277
s-231 -128 -231 -277s67 -277 231 -277z" />
    <glyph glyph-name="uni1EE2" unicode="&#x1ee2;" horiz-adv-x="756" 
d="M727 718c0 -73 -27 -128 -90 -147c43 -62 63 -142 63 -226c0 -188 -102 -353 -322 -353s-322 165 -322 353s102 353 322 353c94 0 166 -30 218 -79c51 5 68 46 68 93v51h63v-45zM378 68c164 0 231 128 231 277s-67 277 -231 277s-231 -128 -231 -277s67 -277 231 -277z
M334 -202v103h86v-103h-86z" />
    <glyph glyph-name="uni1EDC" unicode="&#x1edc;" horiz-adv-x="756" 
d="M416 745h-62l-134 147h88zM727 718c0 -73 -27 -128 -90 -147c43 -62 63 -142 63 -226c0 -188 -102 -353 -322 -353s-322 165 -322 353s102 353 322 353c94 0 166 -30 218 -79c51 5 68 46 68 93v51h63v-45zM378 68c164 0 231 128 231 277s-67 277 -231 277
s-231 -128 -231 -277s67 -277 231 -277z" />
    <glyph glyph-name="uni1EDE" unicode="&#x1ede;" horiz-adv-x="756" 
d="M366 879c-13 0 -28 -5 -41 -18l-27 41c19 14 43 25 77 25c56 0 90 -32 90 -80c0 -46 -29 -66 -61 -75v-39h-53v59c37 8 55 26 55 50c0 22 -16 37 -40 37zM727 718c0 -73 -27 -128 -90 -147c43 -62 63 -142 63 -226c0 -188 -102 -353 -322 -353s-322 165 -322 353
s102 353 322 353c94 0 166 -30 218 -79c51 5 68 46 68 93v51h63v-45zM378 68c164 0 231 128 231 277s-67 277 -231 277s-231 -128 -231 -277s67 -277 231 -277z" />
    <glyph glyph-name="uni1EE0" unicode="&#x1ee0;" horiz-adv-x="756" 
d="M311 837c-27 0 -44 -28 -44 -75h-48c0 81 36 127 95 127c73 0 83 -81 131 -81c24 0 41 29 41 77h51c0 -81 -36 -130 -93 -130c-80 0 -85 82 -133 82zM727 718c0 -73 -27 -128 -90 -147c43 -62 63 -142 63 -226c0 -188 -102 -353 -322 -353s-322 165 -322 353
s102 353 322 353c94 0 166 -30 218 -79c51 5 68 46 68 93v51h63v-45zM378 68c164 0 231 128 231 277s-67 277 -231 277s-231 -128 -231 -277s67 -277 231 -277z" />
    <glyph glyph-name="Ohungarumlaut" unicode="&#x150;" horiz-adv-x="756" 
d="M259 739l108 153h75l-121 -153h-62zM434 739l107 153h89l-134 -153h-62zM378 -8c-220 0 -322 165 -322 353s102 353 322 353s322 -165 322 -353s-102 -353 -322 -353zM378 68c164 0 231 128 231 277s-67 277 -231 277s-231 -128 -231 -277s67 -277 231 -277z" />
    <glyph glyph-name="Omacron" unicode="&#x14c;" horiz-adv-x="756" 
d="M243 786v50h269v-50h-269zM378 -8c-220 0 -322 165 -322 353s102 353 322 353s322 -165 322 -353s-102 -353 -322 -353zM378 68c164 0 231 128 231 277s-67 277 -231 277s-231 -128 -231 -277s67 -277 231 -277z" />
    <glyph glyph-name="uni01EA" unicode="&#x1ea;" horiz-adv-x="756" 
d="M450 -1c-39 -14 -112 -56 -112 -115c0 -39 22 -54 52 -54c28 0 48 12 65 36l43 -29c-25 -36 -58 -59 -106 -59c-62 0 -104 37 -104 95c0 59 47 101 80 119c-213 5 -312 168 -312 353c0 188 102 353 322 353s322 -165 322 -353c0 -166 -80 -314 -250 -346zM147 345
c0 -149 67 -277 231 -277s231 128 231 277s-67 277 -231 277s-231 -128 -231 -277z" />
    <glyph glyph-name="Oslash" unicode="&#xd8;" horiz-adv-x="756" 
d="M584 630c79 -66 116 -171 116 -285c0 -188 -102 -353 -322 -353c-64 0 -119 14 -163 39l-19 -31h-63l38 61c-78 66 -115 171 -115 284c0 188 102 353 322 353c64 0 117 -14 162 -38l18 30h63zM147 345c0 -83 21 -160 68 -212l283 459c-33 19 -72 30 -120 30
c-164 0 -231 -128 -231 -277zM378 68c164 0 231 128 231 277c0 84 -21 161 -69 213l-283 -459c32 -20 72 -31 121 -31z" />
    <glyph glyph-name="Oslashacute" unicode="&#x1fe;" horiz-adv-x="756" 
d="M534 892l-135 -140h-62l108 140h89zM584 630c79 -66 116 -171 116 -285c0 -188 -102 -353 -322 -353c-64 0 -119 14 -163 39l-19 -31h-63l38 61c-78 66 -115 171 -115 284c0 188 102 353 322 353c64 0 117 -14 162 -38l18 30h63zM147 345c0 -83 21 -160 68 -212l283 459
c-33 19 -72 30 -120 30c-164 0 -231 -128 -231 -277zM378 68c164 0 231 128 231 277c0 84 -21 161 -69 213l-283 -459c32 -20 72 -31 121 -31z" />
    <glyph glyph-name="Otilde" unicode="&#xd5;" horiz-adv-x="756" 
d="M444 755c-80 0 -85 82 -133 82c-27 0 -44 -28 -44 -75h-48c0 81 36 127 95 127c73 0 83 -81 131 -81c24 0 41 29 41 77h51c0 -81 -36 -130 -93 -130zM378 -8c-220 0 -322 165 -322 353s102 353 322 353s322 -165 322 -353s-102 -353 -322 -353zM378 68
c164 0 231 128 231 277s-67 277 -231 277s-231 -128 -231 -277s67 -277 231 -277z" />
    <glyph glyph-name="OE" unicode="&#x152;" horiz-adv-x="1128" 
d="M1067 611h-367v-225h334v-80h-334v-225h367v-81h-453v89c-53 -59 -131 -97 -236 -97c-220 0 -322 165 -322 353s102 353 322 353c105 0 183 -38 236 -97v89h453v-79zM378 68c164 0 231 128 231 277s-67 277 -231 277s-231 -128 -231 -277s67 -277 231 -277z" />
    <glyph glyph-name="P" unicode="P" horiz-adv-x="575" 
d="M103 0v690h198c140 0 236 -73 236 -198c0 -126 -95 -195 -236 -195h-113v-297h-85zM188 377h113c102 0 151 41 151 115s-51 117 -151 117h-113v-232z" />
    <glyph glyph-name="Thorn" unicode="&#xde;" horiz-adv-x="575" 
d="M103 0v690h86v-117h112c140 0 236 -73 236 -199c0 -125 -95 -195 -236 -195h-112v-179h-86zM189 260h112c102 0 151 40 151 114c0 75 -51 118 -151 118h-112v-232z" />
    <glyph glyph-name="Q" unicode="Q" horiz-adv-x="770" 
d="M655 -28l-84 79c-50 -37 -114 -59 -194 -59c-219 0 -321 165 -321 353s102 353 321 353c220 0 323 -165 323 -353c0 -93 -25 -178 -75 -241l83 -79zM377 68c54 0 98 15 132 40l-110 105l56 51l105 -101c33 48 49 112 49 182c0 149 -67 277 -232 277
c-164 0 -231 -128 -231 -277s67 -277 231 -277z" />
    <glyph glyph-name="R" unicode="R" horiz-adv-x="618" 
d="M103 0v690h203c131 0 232 -71 232 -196c0 -91 -56 -155 -142 -178l191 -316h-98l-176 307c-14 -1 -30 -1 -45 -1h-79v-306h-86zM189 377h124c89 2 140 44 140 116c0 75 -55 120 -147 120h-117v-236z" />
    <glyph glyph-name="Racute" unicode="&#x154;" horiz-adv-x="618" 
d="M263 752l108 140h89l-135 -140h-62zM103 0v690h203c131 0 232 -71 232 -196c0 -91 -56 -155 -142 -178l191 -316h-98l-176 307c-14 -1 -30 -1 -45 -1h-79v-306h-86zM189 377h124c89 2 140 44 140 116c0 75 -55 120 -147 120h-117v-236z" />
    <glyph glyph-name="Rcaron" unicode="&#x158;" horiz-adv-x="618" 
d="M304 738l-150 154h67l83 -86l83 86h67zM103 0v690h203c131 0 232 -71 232 -196c0 -91 -56 -155 -142 -178l191 -316h-98l-176 307c-14 -1 -30 -1 -45 -1h-79v-306h-86zM189 377h124c89 2 140 44 140 116c0 75 -55 120 -147 120h-117v-236z" />
    <glyph glyph-name="uni0156" unicode="&#x156;" horiz-adv-x="618" 
d="M103 0v690h203c131 0 232 -71 232 -196c0 -91 -56 -155 -142 -178l191 -316h-98l-176 307c-14 -1 -30 -1 -45 -1h-79v-306h-86zM189 377h124c89 2 140 44 140 116c0 75 -55 120 -147 120h-117v-236zM221 -220l81 166h87l-118 -166h-50z" />
    <glyph glyph-name="S" unicode="S" horiz-adv-x="559" 
d="M287 -7c-120 0 -228 67 -249 194l86 21c12 -92 78 -138 164 -138c87 0 141 50 141 116c0 168 -348 113 -348 332c0 112 91 180 202 180c84 0 155 -35 200 -114l-71 -44c-30 54 -74 82 -132 82c-64 0 -113 -42 -113 -100c0 -153 348 -101 348 -329
c0 -122 -101 -200 -228 -200z" />
    <glyph glyph-name="Sacute" unicode="&#x15a;" horiz-adv-x="559" 
d="M240 752l108 140h89l-135 -140h-62zM287 -7c-120 0 -228 67 -249 194l86 21c12 -92 78 -138 164 -138c87 0 141 50 141 116c0 168 -348 113 -348 332c0 112 91 180 202 180c84 0 155 -35 200 -114l-71 -44c-30 54 -74 82 -132 82c-64 0 -113 -42 -113 -100
c0 -153 348 -101 348 -329c0 -122 -101 -200 -228 -200z" />
    <glyph glyph-name="Scaron" unicode="&#x160;" horiz-adv-x="559" 
d="M280 738l-150 154h67l83 -86l83 86h67zM287 -7c-120 0 -228 67 -249 194l86 21c12 -92 78 -138 164 -138c87 0 141 50 141 116c0 168 -348 113 -348 332c0 112 91 180 202 180c84 0 155 -35 200 -114l-71 -44c-30 54 -74 82 -132 82c-64 0 -113 -42 -113 -100
c0 -153 348 -101 348 -329c0 -122 -101 -200 -228 -200z" />
    <glyph glyph-name="Scedilla" unicode="&#x15e;" horiz-adv-x="559" 
d="M515 193c0 -118 -95 -195 -217 -200l-35 -53c11 0 21 -2 30 -4c51 -12 78 -43 78 -88c0 -59 -43 -101 -105 -101c-44 0 -86 23 -98 73l47 19c7 -23 27 -43 53 -43c33 0 53 19 53 49c0 34 -32 58 -86 61h-40l54 89c-104 13 -192 79 -211 192l86 21
c12 -92 78 -138 164 -138c87 0 141 50 141 116c0 168 -348 113 -348 332c0 112 91 180 202 180c84 0 155 -35 200 -114l-71 -44c-30 54 -74 82 -132 82c-64 0 -113 -42 -113 -100c0 -153 348 -101 348 -329z" />
    <glyph glyph-name="uni0218" unicode="&#x218;" horiz-adv-x="559" 
d="M287 -7c-120 0 -228 67 -249 194l86 21c12 -92 78 -138 164 -138c87 0 141 50 141 116c0 168 -348 113 -348 332c0 112 91 180 202 180c84 0 155 -35 200 -114l-71 -44c-30 54 -74 82 -132 82c-64 0 -113 -42 -113 -100c0 -153 348 -101 348 -329
c0 -122 -101 -200 -228 -200zM159 -220l81 166h87l-118 -166h-50z" />
    <glyph glyph-name="uni1E9E" unicode="&#x1e9e;" horiz-adv-x="561" 
d="M340 -8c-36 0 -70 8 -105 20l24 71c29 -13 55 -21 82 -21c57 0 93 36 93 96c0 67 -43 94 -82 124c-31 24 -60 50 -60 96l105 195c-14 24 -48 56 -101 56c-106 0 -126 -135 -126 -235v-394h-82v394c0 197 73 305 204 305c101 0 171 -66 185 -124l-108 -197
c0 -19 25 -36 55 -59c41 -31 92 -74 92 -159c0 -99 -68 -168 -176 -168z" />
    <glyph glyph-name="T" unicode="T" horiz-adv-x="600" 
d="M257 0v613h-233v77h551v-77h-232v-613h-86z" />
    <glyph glyph-name="Tbar" unicode="&#x166;" horiz-adv-x="600" 
d="M575 613h-232v-240h113v-56h-113v-317h-86v317h-111v56h111v240h-233v77h551v-77z" />
    <glyph glyph-name="Tcaron" unicode="&#x164;" horiz-adv-x="600" 
d="M300 738l-150 154h67l83 -86l83 86h67zM257 0v613h-233v77h551v-77h-232v-613h-86z" />
    <glyph glyph-name="uni0162" unicode="&#x162;" horiz-adv-x="600" 
d="M257 0v613h-233v77h551v-77h-232v-613h-86zM290 -253c-44 0 -86 23 -98 73l47 19c7 -23 27 -43 53 -43c33 0 53 19 53 49c0 34 -32 58 -86 61h-40l56 93h51l-39 -59c11 0 21 -2 30 -4c51 -12 78 -43 78 -88c0 -59 -43 -101 -105 -101z" />
    <glyph glyph-name="uni021A" unicode="&#x21a;" horiz-adv-x="600" 
d="M257 0v613h-233v77h551v-77h-232v-613h-86zM183 -220l81 166h87l-118 -166h-50z" />
    <glyph glyph-name="U" unicode="U" horiz-adv-x="681" 
d="M340 -8c-172 0 -252 103 -252 270v428h86v-418c0 -127 45 -197 166 -197c122 0 167 71 167 198v417h86v-423c0 -171 -80 -275 -253 -275z" />
    <glyph glyph-name="Uacute" unicode="&#xda;" horiz-adv-x="681" 
d="M299 752l108 140h89l-135 -140h-62zM340 -8c-172 0 -252 103 -252 270v428h86v-418c0 -127 45 -197 166 -197c122 0 167 71 167 198v417h86v-423c0 -171 -80 -275 -253 -275z" />
    <glyph glyph-name="uni01D3" unicode="&#x1d3;" horiz-adv-x="681" 
d="M339 738l-150 154h67l83 -86l83 86h67zM340 -8c-172 0 -252 103 -252 270v428h86v-418c0 -127 45 -197 166 -197c122 0 167 71 167 198v417h86v-423c0 -171 -80 -275 -253 -275z" />
    <glyph glyph-name="Ucircumflex" unicode="&#xdb;" horiz-adv-x="681" 
d="M190 743l149 161l150 -161h-67l-83 89l-83 -89h-66zM340 -8c-172 0 -252 103 -252 270v428h86v-418c0 -127 45 -197 166 -197c122 0 167 71 167 198v417h86v-423c0 -171 -80 -275 -253 -275z" />
    <glyph glyph-name="Udieresis" unicode="&#xdc;" horiz-adv-x="681" 
d="M213 789v103h70v-103h-70zM395 789v103h70v-103h-70zM340 -8c-172 0 -252 103 -252 270v428h86v-418c0 -127 45 -197 166 -197c122 0 167 71 167 198v417h86v-423c0 -171 -80 -275 -253 -275z" />
    <glyph glyph-name="uni01D7" unicode="&#x1d7;" horiz-adv-x="681" 
d="M299 954l108 140h89l-135 -140h-62zM213 789v103h70v-103h-70zM395 789v103h70v-103h-70zM340 -8c-172 0 -252 103 -252 270v428h86v-418c0 -127 45 -197 166 -197c122 0 167 71 167 198v417h86v-423c0 -171 -80 -275 -253 -275z" />
    <glyph glyph-name="uni01D9" unicode="&#x1d9;" horiz-adv-x="681" 
d="M339 940l-150 154h67l83 -86l83 86h67zM213 789v103h70v-103h-70zM395 789v103h70v-103h-70zM340 -8c-172 0 -252 103 -252 270v428h86v-418c0 -127 45 -197 166 -197c122 0 167 71 167 198v417h86v-423c0 -171 -80 -275 -253 -275z" />
    <glyph glyph-name="uni01DB" unicode="&#x1db;" horiz-adv-x="681" 
d="M316 947l-134 147h88l108 -147h-62zM213 789v103h70v-103h-70zM395 789v103h70v-103h-70zM340 -8c-172 0 -252 103 -252 270v428h86v-418c0 -127 45 -197 166 -197c122 0 167 71 167 198v417h86v-423c0 -171 -80 -275 -253 -275z" />
    <glyph glyph-name="uni01D5" unicode="&#x1d5;" horiz-adv-x="681" 
d="M205 988v50h269v-50h-269zM213 789v103h70v-103h-70zM395 789v103h70v-103h-70zM340 -8c-172 0 -252 103 -252 270v428h86v-418c0 -127 45 -197 166 -197c122 0 167 71 167 198v417h86v-423c0 -171 -80 -275 -253 -275z" />
    <glyph glyph-name="uni1EE4" unicode="&#x1ee4;" horiz-adv-x="681" 
d="M340 -8c-172 0 -252 103 -252 270v428h86v-418c0 -127 45 -197 166 -197c122 0 167 71 167 198v417h86v-423c0 -171 -80 -275 -253 -275zM296 -202v103h86v-103h-86z" />
    <glyph glyph-name="Ugrave" unicode="&#xd9;" horiz-adv-x="681" 
d="M316 745l-134 147h88l108 -147h-62zM340 -8c-172 0 -252 103 -252 270v428h86v-418c0 -127 45 -197 166 -197c122 0 167 71 167 198v417h86v-423c0 -171 -80 -275 -253 -275z" />
    <glyph glyph-name="uni1EE6" unicode="&#x1ee6;" horiz-adv-x="681" 
d="M313 733v59c37 8 55 26 55 50c0 22 -16 37 -40 37c-13 0 -28 -5 -41 -18l-27 41c19 14 43 25 77 25c56 0 90 -32 90 -80c0 -46 -29 -66 -61 -75v-39h-53zM340 -8c-172 0 -252 103 -252 270v428h86v-418c0 -127 45 -197 166 -197c122 0 167 71 167 198v417h86v-423
c0 -171 -80 -275 -253 -275z" />
    <glyph glyph-name="Uhorn" unicode="&#x1af;" horiz-adv-x="681" 
d="M648 763h63v-45c0 -83 -35 -143 -118 -153v-298c0 -171 -80 -275 -253 -275c-172 0 -252 103 -252 270v428h86v-418c0 -127 45 -197 166 -197c122 0 167 71 167 198v417h86v-68c41 9 55 47 55 90v51z" />
    <glyph glyph-name="uni1EE8" unicode="&#x1ee8;" horiz-adv-x="681" 
d="M496 892l-135 -140h-62l108 140h89zM648 763h63v-45c0 -83 -35 -143 -118 -153v-298c0 -171 -80 -275 -253 -275c-172 0 -252 103 -252 270v428h86v-418c0 -127 45 -197 166 -197c122 0 167 71 167 198v417h86v-68c41 9 55 47 55 90v51z" />
    <glyph glyph-name="uni1EF0" unicode="&#x1ef0;" horiz-adv-x="681" 
d="M648 763h63v-45c0 -83 -35 -143 -118 -153v-298c0 -171 -80 -275 -253 -275c-172 0 -252 103 -252 270v428h86v-418c0 -127 45 -197 166 -197c122 0 167 71 167 198v417h86v-68c41 9 55 47 55 90v51zM296 -202v103h86v-103h-86z" />
    <glyph glyph-name="uni1EEA" unicode="&#x1eea;" horiz-adv-x="681" 
d="M378 745h-62l-134 147h88zM648 763h63v-45c0 -83 -35 -143 -118 -153v-298c0 -171 -80 -275 -253 -275c-172 0 -252 103 -252 270v428h86v-418c0 -127 45 -197 166 -197c122 0 167 71 167 198v417h86v-68c41 9 55 47 55 90v51z" />
    <glyph glyph-name="uni1EEC" unicode="&#x1eec;" horiz-adv-x="681" 
d="M328 879c-13 0 -28 -5 -41 -18l-27 41c19 14 43 25 77 25c56 0 90 -32 90 -80c0 -46 -29 -66 -61 -75v-39h-53v59c37 8 55 26 55 50c0 22 -16 37 -40 37zM648 763h63v-45c0 -83 -35 -143 -118 -153v-298c0 -171 -80 -275 -253 -275c-172 0 -252 103 -252 270v428h86v-418
c0 -127 45 -197 166 -197c122 0 167 71 167 198v417h86v-68c41 9 55 47 55 90v51z" />
    <glyph glyph-name="uni1EEE" unicode="&#x1eee;" horiz-adv-x="681" 
d="M273 837c-27 0 -44 -28 -44 -75h-48c0 81 36 127 95 127c73 0 83 -81 131 -81c24 0 41 29 41 77h51c0 -81 -36 -130 -93 -130c-80 0 -85 82 -133 82zM648 763h63v-45c0 -83 -35 -143 -118 -153v-298c0 -171 -80 -275 -253 -275c-172 0 -252 103 -252 270v428h86v-418
c0 -127 45 -197 166 -197c122 0 167 71 167 198v417h86v-68c41 9 55 47 55 90v51z" />
    <glyph glyph-name="Uhungarumlaut" unicode="&#x170;" horiz-adv-x="681" 
d="M221 739l108 153h75l-121 -153h-62zM396 739l107 153h89l-134 -153h-62zM340 -8c-172 0 -252 103 -252 270v428h86v-418c0 -127 45 -197 166 -197c122 0 167 71 167 198v417h86v-423c0 -171 -80 -275 -253 -275z" />
    <glyph glyph-name="Umacron" unicode="&#x16a;" horiz-adv-x="681" 
d="M205 786v50h269v-50h-269zM340 -8c-172 0 -252 103 -252 270v428h86v-418c0 -127 45 -197 166 -197c122 0 167 71 167 198v417h86v-423c0 -171 -80 -275 -253 -275z" />
    <glyph glyph-name="Uogonek" unicode="&#x172;" horiz-adv-x="681" 
d="M507 690h86v-423c0 -138 -52 -232 -163 -264c-37 -20 -76 -54 -76 -98c0 -39 22 -54 52 -54c28 0 48 12 65 36l43 -29c-25 -36 -58 -59 -106 -59c-62 0 -104 37 -104 95c0 43 24 76 50 98h-14c-172 0 -252 103 -252 270v428h86v-418c0 -127 45 -197 166 -197
c122 0 167 71 167 198v417z" />
    <glyph glyph-name="Uring" unicode="&#x16e;" horiz-adv-x="681" 
d="M338 732c-56 0 -100 46 -100 101c0 56 45 101 100 101s101 -45 101 -101s-44 -101 -101 -101zM338 778c32 0 55 24 55 56c0 30 -22 54 -55 54c-31 0 -54 -24 -54 -54c0 -32 24 -56 54 -56zM340 -8c-172 0 -252 103 -252 270v428h86v-418c0 -127 45 -197 166 -197
c122 0 167 71 167 198v417h86v-423c0 -171 -80 -275 -253 -275z" />
    <glyph glyph-name="Utilde" unicode="&#x168;" horiz-adv-x="681" 
d="M406 755c-80 0 -85 82 -133 82c-27 0 -44 -28 -44 -75h-48c0 81 36 127 95 127c73 0 83 -81 131 -81c24 0 41 29 41 77h51c0 -81 -36 -130 -93 -130zM340 -8c-172 0 -252 103 -252 270v428h86v-418c0 -127 45 -197 166 -197c122 0 167 71 167 198v417h86v-423
c0 -171 -80 -275 -253 -275z" />
    <glyph glyph-name="V" unicode="V" horiz-adv-x="662" 
d="M544 690h95l-274 -690h-67l-274 690h95l213 -555z" />
    <glyph glyph-name="W" unicode="W" horiz-adv-x="970" 
d="M231 0l-201 690h89l161 -566l171 528h68l171 -528l161 566h90l-202 -690h-85l-169 516l-168 -516h-86z" />
    <glyph glyph-name="Wacute" unicode="&#x1e82;" horiz-adv-x="970" 
d="M446 747l108 140h89l-135 -140h-62zM231 0l-201 690h89l161 -566l171 528h68l171 -528l161 566h90l-202 -690h-85l-169 516l-168 -516h-86z" />
    <glyph glyph-name="Wcircumflex" unicode="&#x174;" horiz-adv-x="970" 
d="M337 738l149 161l150 -161h-67l-83 89l-83 -89h-66zM231 0l-201 690h89l161 -566l171 528h68l171 -528l161 566h90l-202 -690h-85l-169 516l-168 -516h-86z" />
    <glyph glyph-name="Wdieresis" unicode="&#x1e84;" horiz-adv-x="970" 
d="M360 784v103h70v-103h-70zM542 784v103h70v-103h-70zM231 0l-201 690h89l161 -566l171 528h68l171 -528l161 566h90l-202 -690h-85l-169 516l-168 -516h-86z" />
    <glyph glyph-name="Wgrave" unicode="&#x1e80;" horiz-adv-x="970" 
d="M463 740l-134 147h88l108 -147h-62zM231 0l-201 690h89l161 -566l171 528h68l171 -528l161 566h90l-202 -690h-85l-169 516l-168 -516h-86z" />
    <glyph glyph-name="X" unicode="X" horiz-adv-x="650" 
d="M29 0l237 347l-234 343h103l190 -288l190 288h103l-234 -343l237 -347h-102l-195 289l-193 -289h-102z" />
    <glyph glyph-name="Y" unicode="Y" horiz-adv-x="647" 
d="M279 0v265l-261 425h104l201 -341l202 341h104l-261 -425v-265h-89z" />
    <glyph glyph-name="Yacute" unicode="&#xdd;" horiz-adv-x="647" 
d="M282 752l108 140h89l-135 -140h-62zM279 0v265l-261 425h104l201 -341l202 341h104l-261 -425v-265h-89z" />
    <glyph glyph-name="Ycircumflex" unicode="&#x176;" horiz-adv-x="647" 
d="M173 743l149 161l150 -161h-67l-83 89l-83 -89h-66zM279 0v265l-261 425h104l201 -341l202 341h104l-261 -425v-265h-89z" />
    <glyph glyph-name="Ydieresis" unicode="&#x178;" horiz-adv-x="647" 
d="M196 789v103h70v-103h-70zM378 789v103h70v-103h-70zM279 0v265l-261 425h104l201 -341l202 341h104l-261 -425v-265h-89z" />
    <glyph glyph-name="uni1EF4" unicode="&#x1ef4;" horiz-adv-x="647" 
d="M279 0v265l-261 425h104l201 -341l202 341h104l-261 -425v-265h-89zM279 -202v103h86v-103h-86z" />
    <glyph glyph-name="Ygrave" unicode="&#x1ef2;" horiz-adv-x="647" 
d="M299 745l-134 147h88l108 -147h-62zM279 0v265l-261 425h104l201 -341l202 341h104l-261 -425v-265h-89z" />
    <glyph glyph-name="uni1EF6" unicode="&#x1ef6;" horiz-adv-x="647" 
d="M296 733v59c37 8 55 26 55 50c0 22 -16 37 -40 37c-13 0 -28 -5 -41 -18l-27 41c19 14 43 25 77 25c56 0 90 -32 90 -80c0 -46 -29 -66 -61 -75v-39h-53zM279 0v265l-261 425h104l201 -341l202 341h104l-261 -425v-265h-89z" />
    <glyph glyph-name="uni0232" unicode="&#x232;" horiz-adv-x="647" 
d="M188 786v50h269v-50h-269zM279 0v265l-261 425h104l201 -341l202 341h104l-261 -425v-265h-89z" />
    <glyph glyph-name="uni1EF8" unicode="&#x1ef8;" horiz-adv-x="647" 
d="M389 755c-80 0 -85 82 -133 82c-27 0 -44 -28 -44 -75h-48c0 81 36 127 95 127c73 0 83 -81 131 -81c24 0 41 29 41 77h51c0 -81 -36 -130 -93 -130zM279 0v265l-261 425h104l201 -341l202 341h104l-261 -425v-265h-89z" />
    <glyph glyph-name="Z" unicode="Z" horiz-adv-x="632" 
d="M587 690v-65l-430 -547h429v-78h-547v63l432 548h-409v79h525z" />
    <glyph glyph-name="Zacute" unicode="&#x179;" horiz-adv-x="632" 
d="M471 892l-135 -140h-62l108 140h89zM587 690v-65l-430 -547h429v-78h-547v63l432 548h-409v79h525z" />
    <glyph glyph-name="Zcaron" unicode="&#x17d;" horiz-adv-x="632" 
d="M464 892l-150 -154l-150 154h67l83 -86l83 86h67zM587 690v-65l-430 -547h429v-78h-547v63l432 548h-409v79h525z" />
    <glyph glyph-name="Zdotaccent" unicode="&#x17b;" horiz-adv-x="632" 
d="M357 892v-103h-86v103h86zM587 690v-65l-430 -547h429v-78h-547v63l432 548h-409v79h525z" />
    <glyph glyph-name="a" unicode="a" horiz-adv-x="518" 
d="M250 496c127 0 200 -77 200 -199v-297h-69l-6 86c-35 -63 -102 -94 -168 -94c-100 0 -172 56 -172 152c0 102 81 140 201 140h138c0 96 -32 140 -124 140c-62 0 -103 -31 -132 -76l-64 46c48 65 106 102 196 102zM223 62c82 0 136 56 151 130v32h-133
c-82 0 -121 -33 -121 -82c0 -48 36 -80 103 -80z" />
    <glyph glyph-name="aacute" unicode="&#xe1;" horiz-adv-x="518" 
d="M404 690l-135 -140h-62l108 140h89zM250 496c127 0 200 -77 200 -199v-297h-69l-6 86c-35 -63 -102 -94 -168 -94c-100 0 -172 56 -172 152c0 102 81 140 201 140h138c0 96 -32 140 -124 140c-62 0 -103 -31 -132 -76l-64 46c48 65 106 102 196 102zM223 62
c82 0 136 56 151 130v32h-133c-82 0 -121 -33 -121 -82c0 -48 36 -80 103 -80z" />
    <glyph glyph-name="abreve" unicode="&#x103;" horiz-adv-x="518" 
d="M248 560c-103 0 -151 46 -151 130h59c0 -54 37 -80 92 -80c56 0 91 27 91 80h59c0 -87 -52 -130 -150 -130zM250 496c127 0 200 -77 200 -199v-297h-69l-6 86c-35 -63 -102 -94 -168 -94c-100 0 -172 56 -172 152c0 102 81 140 201 140h138c0 96 -32 140 -124 140
c-62 0 -103 -31 -132 -76l-64 46c48 65 106 102 196 102zM223 62c82 0 136 56 151 130v32h-133c-82 0 -121 -33 -121 -82c0 -48 36 -80 103 -80z" />
    <glyph glyph-name="uni1EAF" unicode="&#x1eaf;" horiz-adv-x="518" 
d="M404 892l-135 -140h-62l108 140h89zM248 560c-103 0 -151 46 -151 130h59c0 -54 37 -80 92 -80c56 0 91 27 91 80h59c0 -87 -52 -130 -150 -130zM250 496c127 0 200 -77 200 -199v-297h-69l-6 86c-35 -63 -102 -94 -168 -94c-100 0 -172 56 -172 152
c0 102 81 140 201 140h138c0 96 -32 140 -124 140c-62 0 -103 -31 -132 -76l-64 46c48 65 106 102 196 102zM223 62c82 0 136 56 151 130v32h-133c-82 0 -121 -33 -121 -82c0 -48 36 -80 103 -80z" />
    <glyph glyph-name="uni1EB7" unicode="&#x1eb7;" horiz-adv-x="518" 
d="M248 560c-103 0 -151 46 -151 130h59c0 -54 37 -80 92 -80c56 0 91 27 91 80h59c0 -87 -52 -130 -150 -130zM250 496c127 0 200 -77 200 -199v-297h-69l-6 86c-35 -63 -102 -94 -168 -94c-100 0 -172 56 -172 152c0 102 81 140 201 140h138c0 96 -32 140 -124 140
c-62 0 -103 -31 -132 -76l-64 46c48 65 106 102 196 102zM223 62c82 0 136 56 151 130v32h-133c-82 0 -121 -33 -121 -82c0 -48 36 -80 103 -80zM205 -202v103h86v-103h-86z" />
    <glyph glyph-name="uni1EB1" unicode="&#x1eb1;" horiz-adv-x="518" 
d="M287 745h-62l-134 147h88zM156 690c0 -54 37 -80 92 -80c56 0 91 27 91 80h59c0 -87 -52 -130 -150 -130c-103 0 -151 46 -151 130h59zM250 496c127 0 200 -77 200 -199v-297h-69l-6 86c-35 -63 -102 -94 -168 -94c-100 0 -172 56 -172 152c0 102 81 140 201 140h138
c0 96 -32 140 -124 140c-62 0 -103 -31 -132 -76l-64 46c48 65 106 102 196 102zM223 62c82 0 136 56 151 130v32h-133c-82 0 -121 -33 -121 -82c0 -48 36 -80 103 -80z" />
    <glyph glyph-name="uni1EB3" unicode="&#x1eb3;" horiz-adv-x="518" 
d="M237 879c-13 0 -28 -5 -41 -18l-27 41c18 14 43 25 77 25c56 0 90 -32 90 -80c0 -46 -29 -66 -61 -75v-39h-54v59c37 8 55 26 55 50c0 22 -15 37 -39 37zM248 560c-102 0 -150 46 -150 130h59c0 -54 36 -80 91 -80c57 0 91 27 91 80h60c0 -87 -52 -130 -151 -130z
M250 496c127 0 200 -77 200 -199v-297h-69l-6 86c-35 -63 -102 -94 -168 -94c-100 0 -172 56 -172 152c0 102 81 140 201 140h138c0 96 -32 140 -124 140c-62 0 -103 -31 -132 -76l-64 46c48 65 106 102 196 102zM223 62c82 0 136 56 151 130v32h-133
c-82 0 -121 -33 -121 -82c0 -48 36 -80 103 -80z" />
    <glyph glyph-name="uni1EB5" unicode="&#x1eb5;" horiz-adv-x="518" 
d="M181 837c-27 0 -44 -28 -44 -75h-48c0 81 36 127 95 127c73 0 83 -81 131 -81c24 0 41 29 41 77h51c0 -81 -36 -130 -93 -130c-80 0 -85 82 -133 82zM248 610c56 0 91 27 91 80h59c0 -87 -52 -130 -150 -130c-103 0 -151 46 -151 130h59c0 -54 37 -80 92 -80zM250 496
c127 0 200 -77 200 -199v-297h-69l-6 86c-35 -63 -102 -94 -168 -94c-100 0 -172 56 -172 152c0 102 81 140 201 140h138c0 96 -32 140 -124 140c-62 0 -103 -31 -132 -76l-64 46c48 65 106 102 196 102zM223 62c82 0 136 56 151 130v32h-133c-82 0 -121 -33 -121 -82
c0 -48 36 -80 103 -80z" />
    <glyph glyph-name="uni01CE" unicode="&#x1ce;" horiz-adv-x="518" 
d="M398 690l-150 -154l-150 154h67l83 -86l83 86h67zM250 496c127 0 200 -77 200 -199v-297h-69l-6 86c-35 -63 -102 -94 -168 -94c-100 0 -172 56 -172 152c0 102 81 140 201 140h138c0 96 -32 140 -124 140c-62 0 -103 -31 -132 -76l-64 46c48 65 106 102 196 102zM223 62
c82 0 136 56 151 130v32h-133c-82 0 -121 -33 -121 -82c0 -48 36 -80 103 -80z" />
    <glyph glyph-name="acircumflex" unicode="&#xe2;" horiz-adv-x="518" 
d="M247 630l-83 -89h-66l149 161l150 -161h-67zM250 496c127 0 200 -77 200 -199v-297h-69l-6 86c-35 -63 -102 -94 -168 -94c-100 0 -172 56 -172 152c0 102 81 140 201 140h138c0 96 -32 140 -124 140c-62 0 -103 -31 -132 -76l-64 46c48 65 106 102 196 102zM223 62
c82 0 136 56 151 130v32h-133c-82 0 -121 -33 -121 -82c0 -48 36 -80 103 -80z" />
    <glyph glyph-name="uni1EA5" unicode="&#x1ea5;" horiz-adv-x="518" 
d="M404 891l-135 -140h-62l108 140h89zM247 630l-83 -89h-66l149 161l150 -161h-67zM250 496c127 0 200 -77 200 -199v-297h-69l-6 86c-35 -63 -102 -94 -168 -94c-100 0 -172 56 -172 152c0 102 81 140 201 140h138c0 96 -32 140 -124 140c-62 0 -103 -31 -132 -76l-64 46
c48 65 106 102 196 102zM223 62c82 0 136 56 151 130v32h-133c-82 0 -121 -33 -121 -82c0 -48 36 -80 103 -80z" />
    <glyph glyph-name="uni1EAD" unicode="&#x1ead;" horiz-adv-x="518" 
d="M247 630l-83 -89h-66l149 161l150 -161h-67zM250 496c127 0 200 -77 200 -199v-297h-69l-6 86c-35 -63 -102 -94 -168 -94c-100 0 -172 56 -172 152c0 102 81 140 201 140h138c0 96 -32 140 -124 140c-62 0 -103 -31 -132 -76l-64 46c48 65 106 102 196 102zM223 62
c82 0 136 56 151 130v32h-133c-82 0 -121 -33 -121 -82c0 -48 36 -80 103 -80zM205 -202v103h86v-103h-86z" />
    <glyph glyph-name="uni1EA7" unicode="&#x1ea7;" horiz-adv-x="518" 
d="M287 744h-62l-134 147h88zM98 541l149 161l150 -161h-67l-83 89l-83 -89h-66zM250 496c127 0 200 -77 200 -199v-297h-69l-6 86c-35 -63 -102 -94 -168 -94c-100 0 -172 56 -172 152c0 102 81 140 201 140h138c0 96 -32 140 -124 140c-62 0 -103 -31 -132 -76l-64 46
c48 65 106 102 196 102zM223 62c82 0 136 56 151 130v32h-133c-82 0 -121 -33 -121 -82c0 -48 36 -80 103 -80z" />
    <glyph glyph-name="uni1EA9" unicode="&#x1ea9;" horiz-adv-x="518" 
d="M237 879c-13 0 -28 -6 -41 -18l-27 40c18 15 43 25 77 25c56 0 90 -32 90 -80c0 -46 -29 -65 -61 -75v-38h-54v59c37 7 55 25 55 50c0 21 -15 37 -39 37zM248 630l-83 -89h-67l150 161l150 -161h-67zM250 496c127 0 200 -77 200 -199v-297h-69l-6 86
c-35 -63 -102 -94 -168 -94c-100 0 -172 56 -172 152c0 102 81 140 201 140h138c0 96 -32 140 -124 140c-62 0 -103 -31 -132 -76l-64 46c48 65 106 102 196 102zM223 62c82 0 136 56 151 130v32h-133c-82 0 -121 -33 -121 -82c0 -48 36 -80 103 -80z" />
    <glyph glyph-name="uni1EAB" unicode="&#x1eab;" horiz-adv-x="518" 
d="M181 837c-27 0 -44 -28 -44 -75h-48c0 81 36 127 95 127c73 0 83 -81 131 -81c24 0 41 29 41 77h51c0 -81 -36 -130 -93 -130c-80 0 -85 82 -133 82zM98 541l149 161l150 -161h-67l-83 89l-83 -89h-66zM250 496c127 0 200 -77 200 -199v-297h-69l-6 86
c-35 -63 -102 -94 -168 -94c-100 0 -172 56 -172 152c0 102 81 140 201 140h138c0 96 -32 140 -124 140c-62 0 -103 -31 -132 -76l-64 46c48 65 106 102 196 102zM223 62c82 0 136 56 151 130v32h-133c-82 0 -121 -33 -121 -82c0 -48 36 -80 103 -80z" />
    <glyph glyph-name="adieresis" unicode="&#xe4;" horiz-adv-x="518" 
d="M191 690v-103h-70v103h70zM373 690v-103h-70v103h70zM250 496c127 0 200 -77 200 -199v-297h-69l-6 86c-35 -63 -102 -94 -168 -94c-100 0 -172 56 -172 152c0 102 81 140 201 140h138c0 96 -32 140 -124 140c-62 0 -103 -31 -132 -76l-64 46c48 65 106 102 196 102z
M223 62c82 0 136 56 151 130v32h-133c-82 0 -121 -33 -121 -82c0 -48 36 -80 103 -80z" />
    <glyph glyph-name="uni1EA1" unicode="&#x1ea1;" horiz-adv-x="518" 
d="M250 496c127 0 200 -77 200 -199v-297h-69l-6 86c-35 -63 -102 -94 -168 -94c-100 0 -172 56 -172 152c0 102 81 140 201 140h138c0 96 -32 140 -124 140c-62 0 -103 -31 -132 -76l-64 46c48 65 106 102 196 102zM223 62c82 0 136 56 151 130v32h-133
c-82 0 -121 -33 -121 -82c0 -48 36 -80 103 -80zM205 -202v103h86v-103h-86z" />
    <glyph glyph-name="agrave" unicode="&#xe0;" horiz-adv-x="518" 
d="M287 543h-62l-134 147h88zM250 496c127 0 200 -77 200 -199v-297h-69l-6 86c-35 -63 -102 -94 -168 -94c-100 0 -172 56 -172 152c0 102 81 140 201 140h138c0 96 -32 140 -124 140c-62 0 -103 -31 -132 -76l-64 46c48 65 106 102 196 102zM223 62c82 0 136 56 151 130
v32h-133c-82 0 -121 -33 -121 -82c0 -48 36 -80 103 -80z" />
    <glyph glyph-name="uni1EA3" unicode="&#x1ea3;" horiz-adv-x="518" 
d="M236 677c-13 0 -28 -5 -41 -18l-27 41c19 14 43 25 77 25c56 0 90 -32 90 -80c0 -46 -29 -66 -61 -75v-39h-53v59c37 8 55 26 55 50c0 22 -16 37 -40 37zM250 496c127 0 200 -77 200 -199v-297h-69l-6 86c-35 -63 -102 -94 -168 -94c-100 0 -172 56 -172 152
c0 102 81 140 201 140h138c0 96 -32 140 -124 140c-62 0 -103 -31 -132 -76l-64 46c48 65 106 102 196 102zM223 62c82 0 136 56 151 130v32h-133c-82 0 -121 -33 -121 -82c0 -48 36 -80 103 -80z" />
    <glyph glyph-name="amacron" unicode="&#x101;" horiz-adv-x="518" 
d="M383 634v-50h-269v50h269zM250 496c127 0 200 -77 200 -199v-297h-69l-6 86c-35 -63 -102 -94 -168 -94c-100 0 -172 56 -172 152c0 102 81 140 201 140h138c0 96 -32 140 -124 140c-62 0 -103 -31 -132 -76l-64 46c48 65 106 102 196 102zM223 62c82 0 136 56 151 130
v32h-133c-82 0 -121 -33 -121 -82c0 -48 36 -80 103 -80z" />
    <glyph glyph-name="aogonek" unicode="&#x105;" horiz-adv-x="518" 
d="M449 -134l43 -29c-25 -36 -58 -59 -106 -59c-62 0 -104 37 -104 95c0 72 69 119 99 127l-6 86c-35 -63 -102 -94 -168 -94c-100 0 -172 56 -172 152c0 102 81 140 201 140h138c0 96 -32 140 -124 140c-62 0 -103 -31 -132 -76l-64 46c48 65 106 102 196 102
c127 0 200 -77 200 -199v-297h-1c-38 -11 -117 -54 -117 -116c0 -39 22 -54 52 -54c28 0 48 12 65 36zM223 62c82 0 136 56 151 130v32h-133c-82 0 -121 -33 -121 -82c0 -48 36 -80 103 -80z" />
    <glyph glyph-name="aring" unicode="&#xe5;" horiz-adv-x="518" 
d="M247 530c-56 0 -100 46 -100 101c0 56 45 101 100 101s101 -45 101 -101s-44 -101 -101 -101zM247 686c-31 0 -54 -24 -54 -54c0 -32 24 -56 54 -56c32 0 55 24 55 56c0 30 -22 54 -55 54zM250 496c127 0 200 -77 200 -199v-297h-69l-6 86c-35 -63 -102 -94 -168 -94
c-100 0 -172 56 -172 152c0 102 81 140 201 140h138c0 96 -32 140 -124 140c-62 0 -103 -31 -132 -76l-64 46c48 65 106 102 196 102zM223 62c82 0 136 56 151 130v32h-133c-82 0 -121 -33 -121 -82c0 -48 36 -80 103 -80z" />
    <glyph glyph-name="aringacute" unicode="&#x1fb;" horiz-adv-x="518" 
d="M247 530c-56 0 -100 46 -100 101c0 56 45 101 100 101c19 0 38 -6 53 -15l79 102h89l-133 -138c8 -15 13 -32 13 -50c0 -56 -44 -101 -101 -101zM247 686c-31 0 -54 -24 -54 -54c0 -32 24 -56 54 -56c32 0 55 24 55 56c0 20 -10 38 -27 47h-4l1 2c-7 3 -16 5 -25 5z
M250 496c127 0 200 -77 200 -199v-297h-69l-6 86c-35 -63 -102 -94 -168 -94c-100 0 -172 56 -172 152c0 102 81 140 201 140h138c0 96 -32 140 -124 140c-62 0 -103 -31 -132 -76l-64 46c48 65 106 102 196 102zM223 62c82 0 136 56 151 130v32h-133
c-82 0 -121 -33 -121 -82c0 -48 36 -80 103 -80z" />
    <glyph glyph-name="atilde" unicode="&#xe3;" horiz-adv-x="518" 
d="M181 635c-27 0 -44 -28 -44 -75h-48c0 81 36 127 95 127c73 0 83 -81 131 -81c24 0 41 29 41 77h51c0 -81 -36 -130 -93 -130c-80 0 -85 82 -133 82zM250 496c127 0 200 -77 200 -199v-297h-69l-6 86c-35 -63 -102 -94 -168 -94c-100 0 -172 56 -172 152
c0 102 81 140 201 140h138c0 96 -32 140 -124 140c-62 0 -103 -31 -132 -76l-64 46c48 65 106 102 196 102zM223 62c82 0 136 56 151 130v32h-133c-82 0 -121 -33 -121 -82c0 -48 36 -80 103 -80z" />
    <glyph glyph-name="uni0250" unicode="&#x250;" horiz-adv-x="518" 
d="M268 64c62 0 103 31 132 76l64 -46c-48 -65 -106 -102 -196 -102c-127 0 -200 77 -200 199v297h69l6 -86c35 63 102 94 168 94c100 0 172 -56 172 -152c0 -102 -81 -140 -201 -140h-138c0 -96 32 -140 124 -140zM295 426c-82 0 -136 -56 -151 -130v-32h133
c82 0 121 33 121 82c0 48 -36 80 -103 80z" />
    <glyph glyph-name="ae" unicode="&#xe6;" horiz-adv-x="839" 
d="M203 -8c-94 0 -169 57 -169 148c0 104 81 140 202 140h137c0 14 -1 27 -3 39c-8 71 -47 105 -124 105c-58 0 -102 -28 -132 -71l-59 43c49 67 108 99 194 99s146 -40 170 -111c33 66 89 110 168 110c161 0 212 -125 212 -237c0 -14 -3 -35 -4 -38h-343
c4 -91 49 -151 136 -151c59 0 97 16 137 58l58 -51c-57 -59 -115 -81 -194 -81c-89 0 -151 41 -182 106c-42 -64 -99 -108 -204 -108zM451 280h266c1 12 0 23 -2 33c-8 57 -49 111 -135 111c-80 0 -127 -65 -129 -144zM215 54c78 0 128 36 166 102c-5 19 -7 42 -8 63h-133
c-83 0 -128 -27 -128 -79c0 -51 40 -86 103 -86z" />
    <glyph glyph-name="aeacute" unicode="&#x1fd;" horiz-adv-x="839" 
d="M370 550l108 140h89l-135 -140h-62zM203 -8c-94 0 -169 57 -169 148c0 104 81 140 202 140h137c0 14 -1 27 -3 39c-8 71 -47 105 -124 105c-58 0 -102 -28 -132 -71l-59 43c49 67 108 99 194 99s146 -40 170 -111c33 66 89 110 168 110c161 0 212 -125 212 -237
c0 -14 -3 -35 -4 -38h-343c4 -91 49 -151 136 -151c59 0 97 16 137 58l58 -51c-57 -59 -115 -81 -194 -81c-89 0 -151 41 -182 106c-42 -64 -99 -108 -204 -108zM451 280h266c1 12 0 23 -2 33c-8 57 -49 111 -135 111c-80 0 -127 -65 -129 -144zM215 54c78 0 128 36 166 102
c-5 19 -7 42 -8 63h-133c-83 0 -128 -27 -128 -79c0 -51 40 -86 103 -86z" />
    <glyph glyph-name="b" unicode="b" horiz-adv-x="582" 
d="M331 -8c-68 0 -131 34 -163 96v-88h-85v690h85v-290c32 62 93 96 162 96c134 0 209 -114 209 -252c0 -137 -75 -252 -208 -252zM311 68c96 0 144 77 144 176s-48 177 -144 177c-95 0 -150 -77 -150 -177s55 -176 150 -176z" />
    <glyph glyph-name="c" unicode="c" horiz-adv-x="494" 
d="M266 -8c-146 0 -225 116 -225 251c0 128 73 253 224 253c92 0 165 -46 200 -137l-79 -31c-18 57 -63 93 -121 93c-97 0 -140 -87 -140 -178c0 -92 42 -176 140 -176c59 0 104 36 121 91l75 -28c-30 -87 -103 -138 -195 -138z" />
    <glyph glyph-name="cacute" unicode="&#x107;" horiz-adv-x="494" 
d="M224 550l108 140h89l-135 -140h-62zM266 -8c-146 0 -225 116 -225 251c0 128 73 253 224 253c92 0 165 -46 200 -137l-79 -31c-18 57 -63 93 -121 93c-97 0 -140 -87 -140 -178c0 -92 42 -176 140 -176c59 0 104 36 121 91l75 -28c-30 -87 -103 -138 -195 -138z" />
    <glyph glyph-name="ccaron" unicode="&#x10d;" horiz-adv-x="494" 
d="M265 536l-150 154h67l83 -86l83 86h67zM266 -8c-146 0 -225 116 -225 251c0 128 73 253 224 253c92 0 165 -46 200 -137l-79 -31c-18 57 -63 93 -121 93c-97 0 -140 -87 -140 -178c0 -92 42 -176 140 -176c59 0 104 36 121 91l75 -28c-30 -87 -103 -138 -195 -138z" />
    <glyph glyph-name="ccedilla" unicode="&#xe7;" horiz-adv-x="494" 
d="M265 67c59 0 104 36 121 91l75 -28c-28 -80 -92 -130 -174 -137l-35 -53c11 0 21 -2 30 -4c51 -12 78 -43 78 -88c0 -59 -43 -101 -105 -101c-44 0 -86 23 -98 73l47 19c7 -23 27 -43 53 -43c33 0 53 19 53 49c0 34 -32 58 -86 61h-40l53 88c-128 14 -196 123 -196 249
c0 128 73 253 224 253c92 0 165 -46 200 -137l-79 -31c-18 57 -63 93 -121 93c-97 0 -140 -87 -140 -178c0 -92 42 -176 140 -176z" />
    <glyph glyph-name="cdotaccent" unicode="&#x10b;" horiz-adv-x="494" 
d="M222 587v103h86v-103h-86zM266 -8c-146 0 -225 116 -225 251c0 128 73 253 224 253c92 0 165 -46 200 -137l-79 -31c-18 57 -63 93 -121 93c-97 0 -140 -87 -140 -178c0 -92 42 -176 140 -176c59 0 104 36 121 91l75 -28c-30 -87 -103 -138 -195 -138z" />
    <glyph glyph-name="d" unicode="d" horiz-adv-x="586" 
d="M257 -8c-133 0 -215 114 -215 252c0 137 82 252 214 252c68 0 131 -34 163 -96v290h84v-690h-77l-4 92c-31 -64 -94 -100 -165 -100zM277 67c95 0 149 76 149 177c0 100 -54 177 -149 177c-96 0 -151 -78 -151 -177c0 -100 55 -177 151 -177z" />
    <glyph glyph-name="eth" unicode="&#xf0;" horiz-adv-x="548" 
d="M274 -8c-137 0 -240 108 -240 233c0 129 109 226 239 226c22 0 43 -7 59 -19l-74 122l-64 -57h-60l105 86l-67 107h91l39 -64l79 64h60l-120 -93l157 -255c23 -37 35 -75 35 -119c0 -128 -107 -231 -239 -231zM273 72c86 0 156 68 156 153c0 83 -70 152 -156 152
c-85 0 -155 -69 -155 -152c0 -84 70 -153 155 -153z" />
    <glyph glyph-name="dcaron" unicode="&#x10f;" horiz-adv-x="586" 
d="M257 -8c-133 0 -215 114 -215 252c0 137 82 252 214 252c68 0 131 -34 163 -96v290h84v-690h-77l-4 92c-31 -64 -94 -100 -165 -100zM554 479l57 211h87l-93 -211h-51zM277 67c95 0 149 76 149 177c0 100 -54 177 -149 177c-96 0 -151 -78 -151 -177
c0 -100 55 -177 151 -177z" />
    <glyph glyph-name="dcroat" unicode="&#x111;" horiz-adv-x="586" 
d="M569 623v-56h-66v-567h-77l-4 92c-31 -64 -94 -100 -165 -100c-133 0 -215 114 -215 252c0 137 82 252 214 252c68 0 131 -34 163 -96v167h-160v56h160v67h84v-67h66zM277 67c95 0 149 76 149 177c0 100 -54 177 -149 177c-96 0 -151 -78 -151 -177
c0 -100 55 -177 151 -177z" />
    <glyph glyph-name="uni01F3" unicode="&#x1f3;" horiz-adv-x="1068" 
d="M419 400v290h84v-690h-77l-4 92c-31 -64 -94 -100 -165 -100c-133 0 -215 114 -215 252c0 137 82 252 214 252c68 0 131 -34 163 -96zM1031 488v-63l-303 -355h301v-70h-412v58l309 360h-294v70h399zM277 67c95 0 149 76 149 177c0 100 -54 177 -149 177
c-96 0 -151 -78 -151 -177c0 -100 55 -177 151 -177z" />
    <glyph glyph-name="uni01C6" unicode="&#x1c6;" horiz-adv-x="1068" 
d="M419 400v290h84v-690h-77l-4 92c-31 -64 -94 -100 -165 -100c-133 0 -215 114 -215 252c0 137 82 252 214 252c68 0 131 -34 163 -96zM973 690l-150 -154l-150 154h67l83 -86l83 86h67zM1031 488v-63l-303 -355h301v-70h-412v58l309 360h-294v70h399zM277 67
c95 0 149 76 149 177c0 100 -54 177 -149 177c-96 0 -151 -78 -151 -177c0 -100 55 -177 151 -177z" />
    <glyph glyph-name="e" unicode="e" horiz-adv-x="524" 
d="M275 -8c-154 0 -234 113 -234 250c0 134 77 254 226 254c164 0 217 -131 217 -232c0 -18 -2 -37 -4 -45h-351c6 -94 56 -152 147 -152c54 0 94 15 134 59l58 -51c-55 -58 -113 -83 -193 -83zM129 280h273c0 10 0 21 -2 31c-8 60 -51 115 -133 115
c-83 0 -129 -61 -138 -146z" />
    <glyph glyph-name="eacute" unicode="&#xe9;" horiz-adv-x="524" 
d="M219 550l108 140h89l-135 -140h-62zM275 -8c-154 0 -234 113 -234 250c0 134 77 254 226 254c164 0 217 -131 217 -232c0 -18 -2 -37 -4 -45h-351c6 -94 56 -152 147 -152c54 0 94 15 134 59l58 -51c-55 -58 -113 -83 -193 -83zM129 280h273c0 10 0 21 -2 31
c-8 60 -51 115 -133 115c-83 0 -129 -61 -138 -146z" />
    <glyph glyph-name="ebreve" unicode="&#x115;" horiz-adv-x="524" 
d="M260 560c-103 0 -151 46 -151 130h59c0 -54 37 -80 92 -80c56 0 91 27 91 80h59c0 -87 -52 -130 -150 -130zM275 -8c-154 0 -234 113 -234 250c0 134 77 254 226 254c164 0 217 -131 217 -232c0 -18 -2 -37 -4 -45h-351c6 -94 56 -152 147 -152c54 0 94 15 134 59l58 -51
c-55 -58 -113 -83 -193 -83zM129 280h273c0 10 0 21 -2 31c-8 60 -51 115 -133 115c-83 0 -129 -61 -138 -146z" />
    <glyph glyph-name="ecaron" unicode="&#x11b;" horiz-adv-x="524" 
d="M260 536l-150 154h67l83 -86l83 86h67zM275 -8c-154 0 -234 113 -234 250c0 134 77 254 226 254c164 0 217 -131 217 -232c0 -18 -2 -37 -4 -45h-351c6 -94 56 -152 147 -152c54 0 94 15 134 59l58 -51c-55 -58 -113 -83 -193 -83zM129 280h273c0 10 0 21 -2 31
c-8 60 -51 115 -133 115c-83 0 -129 -61 -138 -146z" />
    <glyph glyph-name="ecircumflex" unicode="&#xea;" horiz-adv-x="524" 
d="M110 541l149 161l150 -161h-67l-83 89l-83 -89h-66zM275 -8c-154 0 -234 113 -234 250c0 134 77 254 226 254c164 0 217 -131 217 -232c0 -18 -2 -37 -4 -45h-351c6 -94 56 -152 147 -152c54 0 94 15 134 59l58 -51c-55 -58 -113 -83 -193 -83zM129 280h273
c0 10 0 21 -2 31c-8 60 -51 115 -133 115c-83 0 -129 -61 -138 -146z" />
    <glyph glyph-name="uni1EBF" unicode="&#x1ebf;" horiz-adv-x="524" 
d="M219 751l108 140h89l-135 -140h-62zM110 541l149 161l150 -161h-67l-83 89l-83 -89h-66zM275 -8c-154 0 -234 113 -234 250c0 134 77 254 226 254c164 0 217 -131 217 -232c0 -18 -2 -37 -4 -45h-351c6 -94 56 -152 147 -152c54 0 94 15 134 59l58 -51
c-55 -58 -113 -83 -193 -83zM129 280h273c0 10 0 21 -2 31c-8 60 -51 115 -133 115c-83 0 -129 -61 -138 -146z" />
    <glyph glyph-name="uni1EC7" unicode="&#x1ec7;" horiz-adv-x="524" 
d="M110 541l149 161l150 -161h-67l-83 89l-83 -89h-66zM275 -8c-154 0 -234 113 -234 250c0 134 77 254 226 254c164 0 217 -131 217 -232c0 -18 -2 -37 -4 -45h-351c6 -94 56 -152 147 -152c54 0 94 15 134 59l58 -51c-55 -58 -113 -83 -193 -83zM129 280h273
c0 10 0 21 -2 31c-8 60 -51 115 -133 115c-83 0 -129 -61 -138 -146zM217 -202v103h86v-103h-86z" />
    <glyph glyph-name="uni1EC1" unicode="&#x1ec1;" horiz-adv-x="524" 
d="M237 744l-134 147h88l108 -147h-62zM110 541l149 161l150 -161h-67l-83 89l-83 -89h-66zM275 -8c-154 0 -234 113 -234 250c0 134 77 254 226 254c164 0 217 -131 217 -232c0 -18 -2 -37 -4 -45h-351c6 -94 56 -152 147 -152c54 0 94 15 134 59l58 -51
c-55 -58 -113 -83 -193 -83zM129 280h273c0 10 0 21 -2 31c-8 60 -51 115 -133 115c-83 0 -129 -61 -138 -146z" />
    <glyph glyph-name="uni1EC3" unicode="&#x1ec3;" horiz-adv-x="524" 
d="M233 733v59c37 7 55 25 55 50c0 21 -15 37 -39 37c-13 0 -28 -6 -41 -18l-27 40c18 15 43 25 77 25c56 0 90 -32 90 -80c0 -46 -29 -65 -61 -75v-38h-54zM110 541l150 161l150 -161h-67l-83 89l-83 -89h-67zM275 -8c-154 0 -234 113 -234 250c0 134 77 254 226 254
c164 0 217 -131 217 -232c0 -18 -2 -37 -4 -45h-351c6 -94 56 -152 147 -152c54 0 94 15 134 59l58 -51c-55 -58 -113 -83 -193 -83zM129 280h273c0 10 0 21 -2 31c-8 60 -51 115 -133 115c-83 0 -129 -61 -138 -146z" />
    <glyph glyph-name="uni1EC5" unicode="&#x1ec5;" horiz-adv-x="524" 
d="M326 755c-80 0 -85 82 -133 82c-27 0 -44 -28 -44 -75h-48c0 81 36 127 95 127c73 0 83 -81 131 -81c24 0 41 29 41 77h51c0 -81 -36 -130 -93 -130zM110 541l149 161l150 -161h-67l-83 89l-83 -89h-66zM275 -8c-154 0 -234 113 -234 250c0 134 77 254 226 254
c164 0 217 -131 217 -232c0 -18 -2 -37 -4 -45h-351c6 -94 56 -152 147 -152c54 0 94 15 134 59l58 -51c-55 -58 -113 -83 -193 -83zM129 280h273c0 10 0 21 -2 31c-8 60 -51 115 -133 115c-83 0 -129 -61 -138 -146z" />
    <glyph glyph-name="edieresis" unicode="&#xeb;" horiz-adv-x="524" 
d="M133 587v103h70v-103h-70zM315 587v103h70v-103h-70zM275 -8c-154 0 -234 113 -234 250c0 134 77 254 226 254c164 0 217 -131 217 -232c0 -18 -2 -37 -4 -45h-351c6 -94 56 -152 147 -152c54 0 94 15 134 59l58 -51c-55 -58 -113 -83 -193 -83zM129 280h273
c0 10 0 21 -2 31c-8 60 -51 115 -133 115c-83 0 -129 -61 -138 -146z" />
    <glyph glyph-name="edotaccent" unicode="&#x117;" horiz-adv-x="524" 
d="M217 587v103h86v-103h-86zM275 -8c-154 0 -234 113 -234 250c0 134 77 254 226 254c164 0 217 -131 217 -232c0 -18 -2 -37 -4 -45h-351c6 -94 56 -152 147 -152c54 0 94 15 134 59l58 -51c-55 -58 -113 -83 -193 -83zM129 280h273c0 10 0 21 -2 31
c-8 60 -51 115 -133 115c-83 0 -129 -61 -138 -146z" />
    <glyph glyph-name="uni1EB9" unicode="&#x1eb9;" horiz-adv-x="524" 
d="M275 -8c-154 0 -234 113 -234 250c0 134 77 254 226 254c164 0 217 -131 217 -232c0 -18 -2 -37 -4 -45h-351c6 -94 56 -152 147 -152c54 0 94 15 134 59l58 -51c-55 -58 -113 -83 -193 -83zM129 280h273c0 10 0 21 -2 31c-8 60 -51 115 -133 115
c-83 0 -129 -61 -138 -146zM217 -202v103h86v-103h-86z" />
    <glyph glyph-name="egrave" unicode="&#xe8;" horiz-adv-x="524" 
d="M237 543l-134 147h88l108 -147h-62zM275 -8c-154 0 -234 113 -234 250c0 134 77 254 226 254c164 0 217 -131 217 -232c0 -18 -2 -37 -4 -45h-351c6 -94 56 -152 147 -152c54 0 94 15 134 59l58 -51c-55 -58 -113 -83 -193 -83zM129 280h273c0 10 0 21 -2 31
c-8 60 -51 115 -133 115c-83 0 -129 -61 -138 -146z" />
    <glyph glyph-name="uni1EBB" unicode="&#x1ebb;" horiz-adv-x="524" 
d="M233 531v59c37 8 55 26 55 50c0 22 -16 37 -40 37c-13 0 -28 -5 -41 -18l-27 41c19 14 43 25 77 25c56 0 90 -32 90 -80c0 -46 -29 -66 -61 -75v-39h-53zM275 -8c-154 0 -234 113 -234 250c0 134 77 254 226 254c164 0 217 -131 217 -232c0 -18 -2 -37 -4 -45h-351
c6 -94 56 -152 147 -152c54 0 94 15 134 59l58 -51c-55 -58 -113 -83 -193 -83zM129 280h273c0 10 0 21 -2 31c-8 60 -51 115 -133 115c-83 0 -129 -61 -138 -146z" />
    <glyph glyph-name="emacron" unicode="&#x113;" horiz-adv-x="524" 
d="M126 584v50h269v-50h-269zM275 -8c-154 0 -234 113 -234 250c0 134 77 254 226 254c164 0 217 -131 217 -232c0 -18 -2 -37 -4 -45h-351c6 -94 56 -152 147 -152c54 0 94 15 134 59l58 -51c-55 -58 -113 -83 -193 -83zM129 280h273c0 10 0 21 -2 31
c-8 60 -51 115 -133 115c-83 0 -129 -61 -138 -146z" />
    <glyph glyph-name="eogonek" unicode="&#x119;" horiz-adv-x="524" 
d="M484 264c0 -18 -2 -37 -4 -45h-351c6 -94 56 -152 147 -152c54 0 94 15 134 59l58 -51c-35 -37 -72 -61 -115 -73c-35 -21 -70 -54 -70 -95c0 -39 22 -54 52 -54c28 0 48 12 65 36l43 -29c-25 -36 -58 -59 -106 -59c-62 0 -104 37 -104 95c0 41 22 74 47 96h-5
c-154 0 -234 113 -234 250c0 134 77 254 226 254c164 0 217 -131 217 -232zM129 280h273c0 10 0 21 -2 31c-8 60 -51 115 -133 115c-83 0 -129 -61 -138 -146z" />
    <glyph glyph-name="uni0258" unicode="&#x258;" horiz-adv-x="524" 
d="M249 -8c-80 0 -138 25 -193 83l58 51c40 -44 80 -59 134 -59c91 0 141 58 147 152h-351c-2 8 -4 27 -4 45c0 101 53 232 217 232c149 0 226 -120 226 -254c0 -137 -80 -250 -234 -250zM395 280c-9 85 -55 146 -138 146c-82 0 -125 -55 -133 -115c-2 -10 -2 -21 -2 -31
h273z" />
    <glyph glyph-name="uni1EBD" unicode="&#x1ebd;" horiz-adv-x="524" 
d="M326 553c-80 0 -85 82 -133 82c-27 0 -44 -28 -44 -75h-48c0 81 36 127 95 127c73 0 83 -81 131 -81c24 0 41 29 41 77h51c0 -81 -36 -130 -93 -130zM275 -8c-154 0 -234 113 -234 250c0 134 77 254 226 254c164 0 217 -131 217 -232c0 -18 -2 -37 -4 -45h-351
c6 -94 56 -152 147 -152c54 0 94 15 134 59l58 -51c-55 -58 -113 -83 -193 -83zM129 280h273c0 10 0 21 -2 31c-8 60 -51 115 -133 115c-83 0 -129 -61 -138 -146z" />
    <glyph glyph-name="uni01DD" unicode="&#x1dd;" horiz-adv-x="524" 
d="M249 496c154 0 234 -113 234 -250c0 -134 -77 -254 -226 -254c-164 0 -217 131 -217 232c0 18 2 37 4 45h351c-6 94 -56 152 -147 152c-54 0 -94 -15 -134 -59l-58 51c55 58 113 83 193 83zM395 208h-273c0 -10 0 -21 2 -31c8 -60 51 -115 133 -115c83 0 129 61 138 146z
" />
    <glyph glyph-name="uni0259" unicode="&#x259;" horiz-adv-x="524" 
d="M249 496c154 0 234 -113 234 -250c0 -134 -77 -254 -226 -254c-164 0 -217 131 -217 232c0 18 2 37 4 45h351c-6 94 -56 152 -147 152c-54 0 -94 -15 -134 -59l-58 51c55 58 113 83 193 83zM395 208h-273c0 -10 0 -21 2 -31c8 -60 51 -115 133 -115c83 0 129 61 138 146z
" />
    <glyph glyph-name="f" unicode="f" horiz-adv-x="342" 
d="M114 0v418h-98v70h98v72c0 90 63 138 145 138c27 0 54 -7 77 -19l-27 -68c-14 8 -29 13 -43 13c-41 0 -67 -22 -67 -72v-64h133v-70h-133v-418h-85z" />
    <glyph glyph-name="g" unicode="g" horiz-adv-x="510" 
d="M277 64c97 -14 198 -30 198 -137c0 -101 -88 -137 -207 -137c-144 0 -225 54 -225 151c0 10 1 16 2 22l68 60c-35 18 -59 46 -59 94c0 42 18 72 51 96c-27 30 -42 68 -42 112c0 101 85 171 190 171c46 0 88 -13 120 -37l70 60l43 -53l-67 -56c15 -26 24 -56 24 -90
c0 -103 -83 -169 -188 -169c-37 0 -71 8 -99 23c-21 -10 -30 -24 -30 -43c0 -49 64 -54 151 -67zM256 432c-66 0 -108 -45 -108 -108c0 -62 40 -105 107 -105s106 43 106 105c0 63 -40 108 -105 108zM272 -147c67 0 125 19 125 67c0 52 -59 61 -148 72c-27 4 -57 7 -85 14
l-46 -61c0 -4 1 -9 1 -13c8 -50 69 -79 153 -79z" />
    <glyph glyph-name="gbreve" unicode="&#x11f;" horiz-adv-x="513" 
d="M258 560c-103 0 -151 46 -151 130h59c0 -54 37 -80 92 -80c56 0 91 27 91 80h59c0 -87 -52 -130 -150 -130zM277 64c97 -14 198 -30 198 -137c0 -101 -88 -137 -207 -137c-144 0 -225 54 -225 151c0 10 1 16 2 22l68 60c-35 18 -59 46 -59 94c0 42 18 72 51 96
c-27 30 -42 68 -42 112c0 101 85 171 190 171c46 0 88 -13 120 -37l70 60l43 -53l-67 -56c15 -26 24 -56 24 -90c0 -103 -83 -169 -188 -169c-37 0 -71 8 -99 23c-21 -10 -30 -24 -30 -43c0 -49 64 -54 151 -67zM256 432c-66 0 -108 -45 -108 -108c0 -62 40 -105 107 -105
s106 43 106 105c0 63 -40 108 -105 108zM272 -147c67 0 125 19 125 67c0 52 -59 61 -148 72c-27 4 -57 7 -85 14l-46 -61c0 -4 1 -9 1 -13c8 -50 69 -79 153 -79z" />
    <glyph glyph-name="gcaron" unicode="&#x1e7;" horiz-adv-x="510" 
d="M403 690l-150 -154l-150 154h67l83 -86l83 86h67zM277 64c97 -14 198 -30 198 -137c0 -101 -88 -137 -207 -137c-144 0 -225 54 -225 151c0 10 1 16 2 22l68 60c-35 18 -59 46 -59 94c0 42 18 72 51 96c-27 30 -42 68 -42 112c0 101 85 171 190 171c46 0 88 -13 120 -37
l70 60l43 -53l-67 -56c15 -26 24 -56 24 -90c0 -103 -83 -169 -188 -169c-37 0 -71 8 -99 23c-21 -10 -30 -24 -30 -43c0 -49 64 -54 151 -67zM256 432c-66 0 -108 -45 -108 -108c0 -62 40 -105 107 -105s106 43 106 105c0 63 -40 108 -105 108zM272 -147
c67 0 125 19 125 67c0 52 -59 61 -148 72c-27 4 -57 7 -85 14l-46 -61c0 -4 1 -9 1 -13c8 -50 69 -79 153 -79z" />
    <glyph glyph-name="gcircumflex" unicode="&#x11d;" horiz-adv-x="510" 
d="M252 630l-83 -89h-66l149 161l150 -161h-67zM277 64c97 -14 198 -30 198 -137c0 -101 -88 -137 -207 -137c-144 0 -225 54 -225 151c0 10 1 16 2 22l68 60c-35 18 -59 46 -59 94c0 42 18 72 51 96c-27 30 -42 68 -42 112c0 101 85 171 190 171c46 0 88 -13 120 -37l70 60
l43 -53l-67 -56c15 -26 24 -56 24 -90c0 -103 -83 -169 -188 -169c-37 0 -71 8 -99 23c-21 -10 -30 -24 -30 -43c0 -49 64 -54 151 -67zM256 432c-66 0 -108 -45 -108 -108c0 -62 40 -105 107 -105s106 43 106 105c0 63 -40 108 -105 108zM272 -147c67 0 125 19 125 67
c0 52 -59 61 -148 72c-27 4 -57 7 -85 14l-46 -61c0 -4 1 -9 1 -13c8 -50 69 -79 153 -79z" />
    <glyph glyph-name="uni0123" unicode="&#x123;" horiz-adv-x="511" 
d="M365 697l-81 -149h-87l118 149h50zM277 64c97 -14 198 -30 198 -137c0 -101 -88 -137 -207 -137c-144 0 -225 54 -225 151c0 10 1 16 2 22l68 60c-35 18 -59 46 -59 94c0 42 18 72 51 96c-27 30 -42 68 -42 112c0 101 85 171 190 171c46 0 88 -13 120 -37l70 60l43 -53
l-67 -56c15 -26 24 -56 24 -90c0 -103 -83 -169 -188 -169c-37 0 -71 8 -99 23c-21 -10 -30 -24 -30 -43c0 -49 64 -54 151 -67zM256 432c-66 0 -108 -45 -108 -108c0 -62 40 -105 107 -105s106 43 106 105c0 63 -40 108 -105 108zM272 -147c67 0 125 19 125 67
c0 52 -59 61 -148 72c-27 4 -57 7 -85 14l-46 -61c0 -4 1 -9 1 -13c8 -50 69 -79 153 -79z" />
    <glyph glyph-name="gdotaccent" unicode="&#x121;" horiz-adv-x="513" 
d="M301 690v-103h-87v103h87zM277 64c97 -14 198 -30 198 -137c0 -101 -88 -137 -207 -137c-144 0 -225 54 -225 151c0 10 1 16 2 22l68 60c-35 18 -59 46 -59 94c0 42 18 72 51 96c-27 30 -42 68 -42 112c0 101 85 171 190 171c46 0 88 -13 120 -37l70 60l43 -53l-67 -56
c15 -26 24 -56 24 -90c0 -103 -83 -169 -188 -169c-37 0 -71 8 -99 23c-21 -10 -30 -24 -30 -43c0 -49 64 -54 151 -67zM256 432c-66 0 -108 -45 -108 -108c0 -62 40 -105 107 -105s106 43 106 105c0 63 -40 108 -105 108zM272 -147c67 0 125 19 125 67c0 52 -59 61 -148 72
c-27 4 -57 7 -85 14l-46 -61c0 -4 1 -9 1 -13c8 -50 69 -79 153 -79z" />
    <glyph glyph-name="uni0261" unicode="&#x261;" horiz-adv-x="581" 
d="M265 -210c-103 0 -172 48 -212 117l63 46c24 -50 77 -91 150 -91c86 0 150 58 150 167v66c-32 -62 -93 -97 -162 -97c-134 0 -215 115 -215 250c0 133 81 248 214 248c68 0 131 -34 163 -96v88h83v-459c0 -149 -95 -239 -234 -239zM273 75c95 0 149 75 149 173
c0 96 -54 173 -149 173s-150 -78 -150 -173c0 -97 55 -173 150 -173z" />
    <glyph glyph-name="h" unicode="h" horiz-adv-x="558" 
d="M83 0v690h84v-276c33 55 89 82 148 82c119 0 172 -88 174 -192v-304h-84v289c0 78 -28 132 -109 132c-84 0 -129 -64 -129 -153v-268h-84z" />
    <glyph glyph-name="hbar" unicode="&#x127;" horiz-adv-x="558" 
d="M315 496c119 0 172 -88 174 -192v-304h-84v289c0 78 -28 132 -109 132c-84 0 -129 -64 -129 -153v-268h-84v552h-83v56h83v82h84v-82h143v-56h-143v-138c33 55 89 82 148 82z" />
    <glyph glyph-name="hcircumflex" unicode="&#x125;" horiz-adv-x="558" 
d="M-24 743l149 161l150 -161h-67l-83 89l-83 -89h-66zM83 0v690h84v-276c33 55 89 82 148 82c119 0 172 -88 174 -192v-304h-84v289c0 78 -28 132 -109 132c-84 0 -129 -64 -129 -153v-268h-84z" />
    <glyph glyph-name="i" unicode="i" horiz-adv-x="246" 
d="M80 587v103h87v-103h-87zM82 0v488h82v-488h-82z" />
    <glyph glyph-name="dotlessi" unicode="&#x131;" horiz-adv-x="247" 
d="M82 0v488h83v-488h-83z" />
    <glyph glyph-name="iacute" unicode="&#xed;" horiz-adv-x="247" 
d="M82 550l108 140h89l-135 -140h-62zM82 0v488h83v-488h-83z" />
    <glyph glyph-name="ibreve" unicode="&#x12d;" horiz-adv-x="247" 
d="M124 560c-103 0 -151 46 -151 130h59c0 -54 37 -80 92 -80c56 0 91 27 91 80h59c0 -87 -52 -130 -150 -130zM82 0v488h83v-488h-83z" />
    <glyph glyph-name="uni01D0" unicode="&#x1d0;" horiz-adv-x="247" 
d="M123 536l-150 154h67l83 -86l83 86h67zM82 0v488h83v-488h-83z" />
    <glyph glyph-name="icircumflex" unicode="&#xee;" horiz-adv-x="247" 
d="M-26 541l149 161l150 -161h-67l-83 89l-83 -89h-66zM82 0v488h83v-488h-83z" />
    <glyph glyph-name="idieresis" unicode="&#xef;" horiz-adv-x="247" 
d="M-3 587v103h70v-103h-70zM179 587v103h70v-103h-70zM82 0v488h83v-488h-83z" />
    <glyph glyph-name="i.loclTRK" horiz-adv-x="247" 
d="M80 587v103h86v-103h-86zM82 0v488h83v-488h-83z" />
    <glyph glyph-name="uni1ECB" unicode="&#x1ecb;" horiz-adv-x="246" 
d="M80 587v103h87v-103h-87zM82 0v488h82v-488h-82zM81 -202v103h86v-103h-86z" />
    <glyph glyph-name="igrave" unicode="&#xec;" horiz-adv-x="247" 
d="M100 543l-134 147h88l108 -147h-62zM82 0v488h83v-488h-83z" />
    <glyph glyph-name="uni1EC9" unicode="&#x1ec9;" horiz-adv-x="247" 
d="M97 531v59c37 8 55 26 55 50c0 22 -16 37 -40 37c-13 0 -28 -5 -41 -18l-27 41c19 14 43 25 77 25c56 0 90 -32 90 -80c0 -46 -29 -66 -61 -75v-39h-53zM82 0v488h83v-488h-83z" />
    <glyph glyph-name="ij" unicode="&#x133;" horiz-adv-x="500" 
d="M80 587v103h87v-103h-87zM331 587v103h88v-103h-88zM82 0v488h82v-488h-82zM283 -212c-26 0 -60 7 -81 15l22 72c18 -7 38 -12 51 -12c40 0 58 23 58 73v552h84v-546c0 -90 -42 -154 -134 -154z" />
    <glyph glyph-name="imacron" unicode="&#x12b;" horiz-adv-x="247" 
d="M-11 584v50h269v-50h-269zM82 0v488h83v-488h-83z" />
    <glyph glyph-name="iogonek" unicode="&#x12f;" horiz-adv-x="247" 
d="M166 690v-103h-86v103h86zM164 -134l43 -29c-25 -36 -58 -59 -106 -59c-62 0 -104 37 -104 95c0 72 68 118 98 127h-13v488h83v-488h-1c-38 -11 -117 -54 -117 -116c0 -39 22 -54 52 -54c28 0 48 12 65 36z" />
    <glyph glyph-name="itilde" unicode="&#x129;" horiz-adv-x="247" 
d="M189 553c-80 0 -85 82 -133 82c-27 0 -44 -28 -44 -75h-48c0 81 36 127 95 127c73 0 83 -81 131 -81c24 0 41 29 41 77h51c0 -81 -36 -130 -93 -130zM82 0v488h83v-488h-83z" />
    <glyph glyph-name="j" unicode="j" horiz-adv-x="249" 
d="M81 587v103h88v-103h-88zM33 -212c-26 0 -60 7 -81 15l22 72c18 -7 38 -12 51 -12c40 0 58 23 58 73v552h84v-546c0 -90 -42 -154 -134 -154z" />
    <glyph glyph-name="uni0237" unicode="&#x237;" horiz-adv-x="249" 
d="M33 -210c-26 0 -60 7 -81 15l22 72c18 -7 38 -12 51 -12c40 0 58 23 58 73v550h84v-544c0 -90 -42 -154 -134 -154z" />
    <glyph glyph-name="uni006A0301" horiz-adv-x="249" 
d="M82 550l108 140h89l-135 -140h-62zM33 -210c-26 0 -60 7 -81 15l22 72c18 -7 38 -12 51 -12c40 0 58 23 58 73v550h84v-544c0 -90 -42 -154 -134 -154z" />
    <glyph glyph-name="jcircumflex" unicode="&#x135;" horiz-adv-x="249" 
d="M-27 541l149 161l150 -161h-67l-83 89l-83 -89h-66zM33 -210c-26 0 -60 7 -81 15l22 72c18 -7 38 -12 51 -12c40 0 58 23 58 73v550h84v-544c0 -90 -42 -154 -134 -154z" />
    <glyph glyph-name="k" unicode="k" horiz-adv-x="537" 
d="M83 0v690h83v-447l228 245h108l-179 -185l205 -303h-98l-163 252l-101 -108v-144h-83z" />
    <glyph glyph-name="uni0137" unicode="&#x137;" horiz-adv-x="537" 
d="M83 0v690h83v-447l228 245h108l-179 -185l205 -303h-98l-163 252l-101 -108v-144h-83zM181 -220l81 166h87l-118 -166h-50z" />
    <glyph glyph-name="kgreenlandic" unicode="&#x138;" horiz-adv-x="536" 
d="M82 0v488h83v-245l228 245h108l-179 -185l205 -303h-98l-163 252l-101 -108v-144h-83z" />
    <glyph glyph-name="l" unicode="l" horiz-adv-x="272" 
d="M173 -8c-65 0 -94 34 -94 109v589h83v-567c0 -33 8 -57 49 -57c9 0 23 2 37 4l1 -70c-23 -4 -52 -8 -76 -8z" />
    <glyph glyph-name="lacute" unicode="&#x13a;" horiz-adv-x="272" 
d="M91 751l108 140h89l-135 -140h-62zM173 -8c-65 0 -94 34 -94 109v589h83v-567c0 -33 8 -57 49 -57c9 0 23 2 37 4l1 -70c-23 -4 -52 -8 -76 -8z" />
    <glyph glyph-name="lcaron" unicode="&#x13e;" horiz-adv-x="272" 
d="M173 -8c-65 0 -94 34 -94 109v589h83v-567c0 -33 8 -57 49 -57c9 0 23 2 37 4l1 -70c-23 -4 -52 -8 -76 -8zM211 479l57 211h87l-93 -211h-51z" />
    <glyph glyph-name="uni013C" unicode="&#x13c;" horiz-adv-x="272" 
d="M173 -8c-65 0 -94 34 -94 109v589h83v-567c0 -33 8 -57 49 -57c9 0 23 2 37 4l1 -70c-23 -4 -52 -8 -76 -8zM60 -220l81 166h87l-118 -166h-50z" />
    <glyph glyph-name="ldot" unicode="&#x140;" horiz-adv-x="370" 
d="M173 -8c-65 0 -94 34 -94 109v589h83v-567c0 -33 8 -57 49 -57c9 0 23 2 37 4l1 -70c-23 -4 -52 -8 -76 -8zM289 291c-38 0 -67 31 -67 68c0 38 30 67 67 67c38 0 68 -29 68 -67c0 -37 -30 -68 -68 -68z" />
    <glyph glyph-name="uni01C9" unicode="&#x1c9;" horiz-adv-x="522" 
d="M173 -8c-65 0 -94 34 -94 109v589h83v-567c0 -33 8 -57 49 -57c9 0 23 2 37 4l1 -70c-23 -4 -52 -8 -76 -8zM353 587v103h88v-103h-88zM305 -212c-26 0 -60 7 -81 15l22 72c18 -7 38 -12 51 -12c40 0 58 23 58 73v552h84v-546c0 -90 -42 -154 -134 -154z" />
    <glyph glyph-name="lslash" unicode="&#x142;" horiz-adv-x="278" 
d="M250 70l1 -70c-23 -4 -52 -8 -76 -8c-65 0 -94 34 -94 109v127l-44 -45v79l44 45v383h83v-299l79 80v-79l-79 -80v-189c0 -33 8 -57 49 -57c9 0 23 2 37 4z" />
    <glyph glyph-name="m" unicode="m" horiz-adv-x="851" 
d="M83 0l-1 488h80v-77c29 60 82 85 142 85c66 0 124 -29 148 -100c32 68 92 100 160 100c119 0 170 -91 170 -208v-288h-83v278c0 87 -27 141 -103 141s-122 -59 -122 -137v-282h-83v290c0 77 -29 129 -103 129c-76 0 -123 -59 -123 -137v-282h-82z" />
    <glyph glyph-name="n" unicode="n" horiz-adv-x="555" 
d="M82 0v488h83v-74c33 55 90 82 149 82c119 0 171 -88 172 -192v-304h-82v289c0 80 -39 131 -113 131c-77 0 -126 -47 -126 -139v-281h-83z" />
    <glyph glyph-name="nacute" unicode="&#x144;" horiz-adv-x="555" 
d="M240 550l108 140h89l-135 -140h-62zM82 0v488h83v-74c33 55 90 82 149 82c119 0 171 -88 172 -192v-304h-82v289c0 80 -39 131 -113 131c-77 0 -126 -47 -126 -139v-281h-83z" />
    <glyph glyph-name="napostrophe" unicode="&#x149;" horiz-adv-x="631" 
d="M8 410l90 280h95l-129 -280h-56zM158 0v488h83v-74c33 55 90 82 149 82c119 0 171 -88 172 -192v-304h-82v289c0 80 -39 131 -113 131c-77 0 -126 -47 -126 -139v-281h-83z" />
    <glyph glyph-name="ncaron" unicode="&#x148;" horiz-adv-x="555" 
d="M280 536l-150 154h67l83 -86l83 86h67zM82 0v488h83v-74c33 55 90 82 149 82c119 0 171 -88 172 -192v-304h-82v289c0 80 -39 131 -113 131c-77 0 -126 -47 -126 -139v-281h-83z" />
    <glyph glyph-name="uni0146" unicode="&#x146;" horiz-adv-x="555" 
d="M82 0v488h83v-74c33 55 90 82 149 82c119 0 171 -88 172 -192v-304h-82v289c0 80 -39 131 -113 131c-77 0 -126 -47 -126 -139v-281h-83zM163 -220l81 166h87l-118 -166h-50z" />
    <glyph glyph-name="eng" unicode="&#x14b;" horiz-adv-x="555" 
d="M347 -210c-25 0 -56 7 -74 14l19 62c17 -5 38 -8 53 -8c44 0 59 26 59 75v356c0 80 -39 131 -113 131c-77 0 -127 -47 -127 -139v-281h-82v488h82v-74c33 55 91 82 150 82c119 0 172 -88 172 -192v-362c0 -89 -45 -152 -139 -152z" />
    <glyph glyph-name="uni0272" unicode="&#x272;" horiz-adv-x="556" 
d="M27 -210c-25 0 -56 7 -74 14l19 62c17 -5 38 -8 53 -8c44 0 59 26 59 75v555h82v-74c33 55 91 82 150 82c118 0 170 -88 171 -192v-305h-82v290c0 80 -38 131 -112 131c-77 0 -127 -47 -127 -139v-339c0 -89 -45 -152 -139 -152z" />
    <glyph glyph-name="uni01CC" unicode="&#x1cc;" horiz-adv-x="805" 
d="M636 587v103h88v-103h-88zM82 0v488h83v-74c33 55 90 82 149 82c119 0 171 -88 172 -192v-304h-82v289c0 80 -39 131 -113 131c-77 0 -126 -47 -126 -139v-281h-83zM588 -212c-26 0 -60 7 -81 15l22 72c18 -7 38 -12 51 -12c40 0 58 23 58 73v552h84v-546
c0 -90 -42 -154 -134 -154z" />
    <glyph glyph-name="ntilde" unicode="&#xf1;" horiz-adv-x="555" 
d="M347 553c-80 0 -85 82 -133 82c-27 0 -44 -28 -44 -75h-48c0 81 36 127 95 127c73 0 83 -81 131 -81c24 0 41 29 41 77h51c0 -81 -36 -130 -93 -130zM82 0v488h83v-74c33 55 90 82 149 82c119 0 171 -88 172 -192v-304h-82v289c0 80 -39 131 -113 131
c-77 0 -126 -47 -126 -139v-281h-83z" />
    <glyph glyph-name="o" unicode="o" horiz-adv-x="559" 
d="M279 -8c-143 0 -240 113 -240 253c0 139 97 251 240 251s241 -112 241 -251s-98 -253 -241 -253zM279 64c101 0 155 82 155 181c0 98 -54 179 -155 179c-100 0 -154 -80 -154 -179s54 -181 154 -181z" />
    <glyph glyph-name="oacute" unicode="&#xf3;" horiz-adv-x="559" 
d="M238 550l108 140h89l-135 -140h-62zM279 -8c-143 0 -240 113 -240 253c0 139 97 251 240 251s241 -112 241 -251s-98 -253 -241 -253zM279 64c101 0 155 82 155 181c0 98 -54 179 -155 179c-100 0 -154 -80 -154 -179s54 -181 154 -181z" />
    <glyph glyph-name="obreve" unicode="&#x14f;" horiz-adv-x="559" 
d="M280 560c-103 0 -151 46 -151 130h59c0 -54 37 -80 92 -80c56 0 91 27 91 80h59c0 -87 -52 -130 -150 -130zM279 -8c-143 0 -240 113 -240 253c0 139 97 251 240 251s241 -112 241 -251s-98 -253 -241 -253zM279 64c101 0 155 82 155 181c0 98 -54 179 -155 179
c-100 0 -154 -80 -154 -179s54 -181 154 -181z" />
    <glyph glyph-name="uni01D2" unicode="&#x1d2;" horiz-adv-x="559" 
d="M279 536l-150 154h67l83 -86l83 86h67zM279 -8c-143 0 -240 113 -240 253c0 139 97 251 240 251s241 -112 241 -251s-98 -253 -241 -253zM279 64c101 0 155 82 155 181c0 98 -54 179 -155 179c-100 0 -154 -80 -154 -179s54 -181 154 -181z" />
    <glyph glyph-name="ocircumflex" unicode="&#xf4;" horiz-adv-x="559" 
d="M130 541l149 161l150 -161h-67l-83 89l-83 -89h-66zM279 -8c-143 0 -240 113 -240 253c0 139 97 251 240 251s241 -112 241 -251s-98 -253 -241 -253zM279 64c101 0 155 82 155 181c0 98 -54 179 -155 179c-100 0 -154 -80 -154 -179s54 -181 154 -181z" />
    <glyph glyph-name="uni1ED1" unicode="&#x1ed1;" horiz-adv-x="559" 
d="M238 751l108 140h89l-135 -140h-62zM130 541l149 161l150 -161h-67l-83 89l-83 -89h-66zM279 -8c-143 0 -240 113 -240 253c0 139 97 251 240 251s241 -112 241 -251s-98 -253 -241 -253zM279 64c101 0 155 82 155 181c0 98 -54 179 -155 179c-100 0 -154 -80 -154 -179
s54 -181 154 -181z" />
    <glyph glyph-name="uni1ED9" unicode="&#x1ed9;" horiz-adv-x="559" 
d="M130 541l149 161l150 -161h-67l-83 89l-83 -89h-66zM279 -8c-143 0 -240 113 -240 253c0 139 97 251 240 251s241 -112 241 -251s-98 -253 -241 -253zM279 64c101 0 155 82 155 181c0 98 -54 179 -155 179c-100 0 -154 -80 -154 -179s54 -181 154 -181zM236 -202v103h86
v-103h-86z" />
    <glyph glyph-name="uni1ED3" unicode="&#x1ed3;" horiz-adv-x="559" 
d="M256 744l-134 147h88l108 -147h-62zM130 541l149 161l150 -161h-67l-83 89l-83 -89h-66zM279 -8c-143 0 -240 113 -240 253c0 139 97 251 240 251s241 -112 241 -251s-98 -253 -241 -253zM279 64c101 0 155 82 155 181c0 98 -54 179 -155 179c-100 0 -154 -80 -154 -179
s54 -181 154 -181z" />
    <glyph glyph-name="uni1ED5" unicode="&#x1ed5;" horiz-adv-x="559" 
d="M252 733v59c37 7 55 25 55 50c0 21 -15 37 -39 37c-13 0 -28 -6 -41 -18l-27 40c18 15 43 25 77 25c56 0 90 -32 90 -80c0 -46 -29 -65 -61 -75v-38h-54zM129 541l150 161l150 -161h-67l-83 89l-83 -89h-67zM279 -8c-143 0 -240 113 -240 253c0 139 97 251 240 251
s241 -112 241 -251s-98 -253 -241 -253zM279 64c101 0 155 82 155 181c0 98 -54 179 -155 179c-100 0 -154 -80 -154 -179s54 -181 154 -181z" />
    <glyph glyph-name="uni1ED7" unicode="&#x1ed7;" horiz-adv-x="559" 
d="M345 755c-80 0 -85 82 -133 82c-27 0 -44 -28 -44 -75h-48c0 81 36 127 95 127c73 0 83 -81 131 -81c24 0 41 29 41 77h51c0 -81 -36 -130 -93 -130zM130 541l149 161l150 -161h-67l-83 89l-83 -89h-66zM279 -8c-143 0 -240 113 -240 253c0 139 97 251 240 251
s241 -112 241 -251s-98 -253 -241 -253zM279 64c101 0 155 82 155 181c0 98 -54 179 -155 179c-100 0 -154 -80 -154 -179s54 -181 154 -181z" />
    <glyph glyph-name="odieresis" unicode="&#xf6;" horiz-adv-x="559" 
d="M153 587v103h70v-103h-70zM335 587v103h70v-103h-70zM279 -8c-143 0 -240 113 -240 253c0 139 97 251 240 251s241 -112 241 -251s-98 -253 -241 -253zM279 64c101 0 155 82 155 181c0 98 -54 179 -155 179c-100 0 -154 -80 -154 -179s54 -181 154 -181z" />
    <glyph glyph-name="uni1ECD" unicode="&#x1ecd;" horiz-adv-x="559" 
d="M279 -8c-143 0 -240 113 -240 253c0 139 97 251 240 251s241 -112 241 -251s-98 -253 -241 -253zM279 64c101 0 155 82 155 181c0 98 -54 179 -155 179c-100 0 -154 -80 -154 -179s54 -181 154 -181zM236 -202v103h86v-103h-86z" />
    <glyph glyph-name="ograve" unicode="&#xf2;" horiz-adv-x="559" 
d="M256 543l-134 147h88l108 -147h-62zM279 -8c-143 0 -240 113 -240 253c0 139 97 251 240 251s241 -112 241 -251s-98 -253 -241 -253zM279 64c101 0 155 82 155 181c0 98 -54 179 -155 179c-100 0 -154 -80 -154 -179s54 -181 154 -181z" />
    <glyph glyph-name="uni1ECF" unicode="&#x1ecf;" horiz-adv-x="559" 
d="M253 531v59c37 8 55 26 55 50c0 22 -16 37 -40 37c-13 0 -28 -5 -41 -18l-27 41c19 14 43 25 77 25c56 0 90 -32 90 -80c0 -46 -29 -66 -61 -75v-39h-53zM279 -8c-143 0 -240 113 -240 253c0 139 97 251 240 251s241 -112 241 -251s-98 -253 -241 -253zM279 64
c101 0 155 82 155 181c0 98 -54 179 -155 179c-100 0 -154 -80 -154 -179s54 -181 154 -181z" />
    <glyph glyph-name="ohorn" unicode="&#x1a1;" horiz-adv-x="559" 
d="M532 561h63v-45c0 -77 -31 -135 -103 -150c18 -36 28 -77 28 -121c0 -139 -98 -253 -241 -253s-240 113 -240 253c0 139 97 251 240 251c74 0 137 -30 179 -79c56 2 74 44 74 93v51zM279 64c101 0 155 82 155 181c0 98 -54 179 -155 179c-100 0 -154 -80 -154 -179
s54 -181 154 -181z" />
    <glyph glyph-name="uni1EDB" unicode="&#x1edb;" horiz-adv-x="559" 
d="M435 690l-135 -140h-62l108 140h89zM532 561h63v-45c0 -77 -31 -135 -103 -150c18 -36 28 -77 28 -121c0 -139 -98 -253 -241 -253s-240 113 -240 253c0 139 97 251 240 251c74 0 137 -30 179 -79c56 2 74 44 74 93v51zM279 64c101 0 155 82 155 181
c0 98 -54 179 -155 179c-100 0 -154 -80 -154 -179s54 -181 154 -181z" />
    <glyph glyph-name="uni1EE3" unicode="&#x1ee3;" horiz-adv-x="559" 
d="M532 561h63v-45c0 -77 -31 -135 -103 -150c18 -36 28 -77 28 -121c0 -139 -98 -253 -241 -253s-240 113 -240 253c0 139 97 251 240 251c74 0 137 -30 179 -79c56 2 74 44 74 93v51zM279 64c101 0 155 82 155 181c0 98 -54 179 -155 179c-100 0 -154 -80 -154 -179
s54 -181 154 -181zM236 -202v103h86v-103h-86z" />
    <glyph glyph-name="uni1EDD" unicode="&#x1edd;" horiz-adv-x="559" 
d="M318 543h-62l-134 147h88zM532 561h63v-45c0 -77 -31 -135 -103 -150c18 -36 28 -77 28 -121c0 -139 -98 -253 -241 -253s-240 113 -240 253c0 139 97 251 240 251c74 0 137 -30 179 -79c56 2 74 44 74 93v51zM279 64c101 0 155 82 155 181c0 98 -54 179 -155 179
c-100 0 -154 -80 -154 -179s54 -181 154 -181z" />
    <glyph glyph-name="uni1EDF" unicode="&#x1edf;" horiz-adv-x="559" 
d="M268 677c-13 0 -28 -5 -41 -18l-27 41c19 14 43 25 77 25c56 0 90 -32 90 -80c0 -46 -29 -66 -61 -75v-39h-53v59c37 8 55 26 55 50c0 22 -16 37 -40 37zM532 561h63v-45c0 -77 -31 -135 -103 -150c18 -36 28 -77 28 -121c0 -139 -98 -253 -241 -253s-240 113 -240 253
c0 139 97 251 240 251c74 0 137 -30 179 -79c56 2 74 44 74 93v51zM279 64c101 0 155 82 155 181c0 98 -54 179 -155 179c-100 0 -154 -80 -154 -179s54 -181 154 -181z" />
    <glyph glyph-name="uni1EE1" unicode="&#x1ee1;" horiz-adv-x="559" 
d="M212 635c-27 0 -44 -28 -44 -75h-48c0 81 36 127 95 127c73 0 83 -81 131 -81c24 0 41 29 41 77h51c0 -81 -36 -130 -93 -130c-80 0 -85 82 -133 82zM532 561h63v-45c0 -77 -31 -135 -103 -150c18 -36 28 -77 28 -121c0 -139 -98 -253 -241 -253s-240 113 -240 253
c0 139 97 251 240 251c74 0 137 -30 179 -79c56 2 74 44 74 93v51zM279 64c101 0 155 82 155 181c0 98 -54 179 -155 179c-100 0 -154 -80 -154 -179s54 -181 154 -181z" />
    <glyph glyph-name="ohungarumlaut" unicode="&#x151;" horiz-adv-x="559" 
d="M161 537l108 153h75l-121 -153h-62zM336 537l107 153h89l-134 -153h-62zM279 -8c-143 0 -240 113 -240 253c0 139 97 251 240 251s241 -112 241 -251s-98 -253 -241 -253zM279 64c101 0 155 82 155 181c0 98 -54 179 -155 179c-100 0 -154 -80 -154 -179
s54 -181 154 -181z" />
    <glyph glyph-name="omacron" unicode="&#x14d;" horiz-adv-x="559" 
d="M145 584v50h269v-50h-269zM279 -8c-143 0 -240 113 -240 253c0 139 97 251 240 251s241 -112 241 -251s-98 -253 -241 -253zM279 64c101 0 155 82 155 181c0 98 -54 179 -155 179c-100 0 -154 -80 -154 -179s54 -181 154 -181z" />
    <glyph glyph-name="uni01EB" unicode="&#x1eb;" horiz-adv-x="559" 
d="M333 -2c-40 -14 -110 -56 -110 -114c0 -39 22 -54 52 -54c28 0 48 12 65 36l43 -29c-25 -36 -58 -59 -106 -59c-62 0 -104 37 -104 95c0 61 48 103 82 120c-130 12 -216 120 -216 252c0 139 97 251 240 251s241 -112 241 -251c0 -121 -74 -223 -187 -247zM125 245
c0 -99 54 -181 154 -181c101 0 155 82 155 181c0 98 -54 179 -155 179c-100 0 -154 -80 -154 -179z" />
    <glyph glyph-name="uni0254" unicode="&#x254;" horiz-adv-x="494" 
d="M228 -8c-92 0 -165 51 -195 138l75 28c17 -55 62 -91 121 -91c98 0 140 84 140 176c0 91 -43 178 -140 178c-58 0 -103 -36 -121 -93l-79 31c35 91 108 137 200 137c151 0 224 -125 224 -253c0 -135 -79 -251 -225 -251z" />
    <glyph glyph-name="oslash" unicode="&#xf8;" horiz-adv-x="559" 
d="M427 447c58 -46 93 -119 93 -202c0 -139 -98 -253 -241 -253c-43 0 -82 10 -115 28l-13 -20h-44l25 41c-58 46 -93 120 -93 204c0 139 97 251 240 251c43 0 82 -10 116 -28l12 20h45zM125 245c0 -55 16 -104 48 -138l183 298c-22 12 -47 19 -77 19
c-100 0 -154 -80 -154 -179zM279 64c101 0 155 82 155 181c0 54 -16 103 -48 136l-183 -297c21 -13 46 -20 76 -20z" />
    <glyph glyph-name="oslashacute" unicode="&#x1ff;" horiz-adv-x="559" 
d="M435 690l-135 -140h-62l108 140h89zM427 447c58 -46 93 -119 93 -202c0 -139 -98 -253 -241 -253c-43 0 -82 10 -115 28l-13 -20h-44l25 41c-58 46 -93 120 -93 204c0 139 97 251 240 251c43 0 82 -10 116 -28l12 20h45zM125 245c0 -55 16 -104 48 -138l183 298
c-22 12 -47 19 -77 19c-100 0 -154 -80 -154 -179zM279 64c101 0 155 82 155 181c0 54 -16 103 -48 136l-183 -297c21 -13 46 -20 76 -20z" />
    <glyph glyph-name="otilde" unicode="&#xf5;" horiz-adv-x="559" 
d="M345 553c-80 0 -85 82 -133 82c-27 0 -44 -28 -44 -75h-48c0 81 36 127 95 127c73 0 83 -81 131 -81c24 0 41 29 41 77h51c0 -81 -36 -130 -93 -130zM279 -8c-143 0 -240 113 -240 253c0 139 97 251 240 251s241 -112 241 -251s-98 -253 -241 -253zM279 64
c101 0 155 82 155 181c0 98 -54 179 -155 179c-100 0 -154 -80 -154 -179s54 -181 154 -181z" />
    <glyph glyph-name="oe" unicode="&#x153;" horiz-adv-x="917" 
d="M877 264c0 -18 -2 -37 -4 -45h-351c6 -94 56 -152 147 -152c54 0 94 15 134 59l58 -51c-55 -58 -113 -83 -193 -83c-91 0 -156 39 -194 100c-42 -61 -111 -100 -195 -100c-143 0 -240 113 -240 253c0 139 97 251 240 251c85 0 153 -39 196 -100c37 60 99 100 185 100
c164 0 217 -131 217 -232zM522 280h273c0 10 0 21 -2 31c-8 60 -51 115 -133 115c-83 0 -129 -61 -138 -146zM279 64c101 0 155 82 155 181c0 98 -54 179 -155 179c-100 0 -154 -80 -154 -179s54 -181 154 -181z" />
    <glyph glyph-name="p" unicode="p" horiz-adv-x="582" 
d="M83 -202v690h85v-88c32 62 95 96 163 96c133 0 208 -115 208 -252c0 -138 -75 -252 -209 -252c-69 0 -130 34 -162 96v-290h-85zM311 67c96 0 144 78 144 177s-48 176 -144 176c-95 0 -150 -76 -150 -176s55 -177 150 -177z" />
    <glyph glyph-name="thorn" unicode="&#xfe;" horiz-adv-x="582" 
d="M83 -202v892h85v-290c32 62 95 96 163 96c133 0 208 -115 208 -252c0 -138 -75 -252 -209 -252c-69 0 -130 34 -162 96v-290h-85zM311 67c96 0 144 78 144 177s-48 176 -144 176c-95 0 -150 -76 -150 -176s55 -177 150 -177z" />
    <glyph glyph-name="q" unicode="q" horiz-adv-x="582" 
d="M499 -202h-85v290c-32 -62 -93 -96 -162 -96c-134 0 -209 114 -209 252c0 137 75 252 208 252c68 0 131 -34 163 -96v88h85v-690zM271 67c95 0 150 77 150 177s-55 176 -150 176c-96 0 -144 -77 -144 -176s48 -177 144 -177z" />
    <glyph glyph-name="r" unicode="r" horiz-adv-x="391" 
d="M82 0v488h81v-96c23 70 86 104 144 104c28 0 58 -8 80 -27l-38 -68c-16 9 -35 15 -54 15c-62 0 -133 -52 -133 -181v-235h-80z" />
    <glyph glyph-name="racute" unicode="&#x155;" horiz-adv-x="391" 
d="M176 550l108 140h89l-135 -140h-62zM82 0v488h81v-96c23 70 86 104 144 104c28 0 58 -8 80 -27l-38 -68c-16 9 -35 15 -54 15c-62 0 -133 -52 -133 -181v-235h-80z" />
    <glyph glyph-name="rcaron" unicode="&#x159;" horiz-adv-x="391" 
d="M217 536l-150 154h67l83 -86l83 86h67zM82 0v488h81v-96c23 70 86 104 144 104c28 0 58 -8 80 -27l-38 -68c-16 9 -35 15 -54 15c-62 0 -133 -52 -133 -181v-235h-80z" />
    <glyph glyph-name="uni0157" unicode="&#x157;" horiz-adv-x="391" 
d="M82 0v488h81v-96c23 70 86 104 144 104c28 0 58 -8 80 -27l-38 -68c-16 9 -35 15 -54 15c-62 0 -133 -52 -133 -181v-235h-80zM78 -220l81 166h87l-118 -166h-50z" />
    <glyph glyph-name="s" unicode="s" horiz-adv-x="450" 
d="M228 -8c-99 0 -176 57 -201 131l67 29c17 -46 58 -91 130 -91c67 0 101 36 101 79c0 116 -270 41 -270 216c0 92 78 140 171 140c80 0 141 -38 176 -103l-64 -35c-21 40 -57 72 -114 72c-55 0 -90 -26 -90 -63c0 -105 273 -39 273 -223c0 -103 -85 -152 -179 -152z" />
    <glyph glyph-name="sacute" unicode="&#x15b;" horiz-adv-x="450" 
d="M175 550l108 140h89l-135 -140h-62zM228 -8c-99 0 -176 57 -201 131l67 29c17 -46 58 -91 130 -91c67 0 101 36 101 79c0 116 -270 41 -270 216c0 92 78 140 171 140c80 0 141 -38 176 -103l-64 -35c-21 40 -57 72 -114 72c-55 0 -90 -26 -90 -63
c0 -105 273 -39 273 -223c0 -103 -85 -152 -179 -152z" />
    <glyph glyph-name="scaron" unicode="&#x161;" horiz-adv-x="450" 
d="M216 536l-150 154h67l83 -86l83 86h67zM228 -8c-99 0 -176 57 -201 131l67 29c17 -46 58 -91 130 -91c67 0 101 36 101 79c0 116 -270 41 -270 216c0 92 78 140 171 140c80 0 141 -38 176 -103l-64 -35c-21 40 -57 72 -114 72c-55 0 -90 -26 -90 -63
c0 -105 273 -39 273 -223c0 -103 -85 -152 -179 -152z" />
    <glyph glyph-name="scedilla" unicode="&#x15f;" horiz-adv-x="450" 
d="M407 144c0 -90 -64 -138 -143 -150l-36 -54c11 0 21 -2 30 -4c51 -12 78 -43 78 -88c0 -59 -43 -101 -105 -101c-44 0 -86 23 -98 73l47 19c7 -23 27 -43 53 -43c33 0 53 19 53 49c0 34 -32 58 -86 61h-40l52 86c-91 6 -161 61 -185 131l67 29c17 -46 58 -91 130 -91
c67 0 101 36 101 79c0 116 -270 41 -270 216c0 92 78 140 171 140c80 0 141 -38 176 -103l-64 -35c-21 40 -57 72 -114 72c-55 0 -90 -26 -90 -63c0 -105 273 -39 273 -223z" />
    <glyph glyph-name="uni0219" unicode="&#x219;" horiz-adv-x="450" 
d="M228 -8c-99 0 -176 57 -201 131l67 29c17 -46 58 -91 130 -91c67 0 101 36 101 79c0 116 -270 41 -270 216c0 92 78 140 171 140c80 0 141 -38 176 -103l-64 -35c-21 40 -57 72 -114 72c-55 0 -90 -26 -90 -63c0 -105 273 -39 273 -223c0 -103 -85 -152 -179 -152z
M124 -220l81 166h87l-118 -166h-50z" />
    <glyph glyph-name="germandbls" unicode="&#xdf;" horiz-adv-x="564" 
d="M334 -8c-36 0 -70 8 -106 20l25 71c28 -13 55 -21 81 -21c58 0 93 36 93 96c0 67 -42 94 -82 124c-30 24 -59 50 -59 96c0 40 22 61 50 86c26 23 40 45 40 80c0 53 -33 85 -87 85c-106 0 -126 -135 -126 -235v-394h-81v394c0 197 73 305 203 305c102 0 171 -66 171 -155
c0 -56 -28 -89 -52 -113c-22 -22 -41 -37 -41 -53c0 -19 25 -36 54 -59c42 -31 92 -74 92 -159c0 -99 -67 -168 -175 -168z" />
    <glyph glyph-name="t" unicode="t" horiz-adv-x="351" 
d="M238 -8c-89 0 -139 52 -139 144v282h-80v70h81v134l82 60v-194h131v-70h-131v-268c0 -62 26 -85 70 -85c23 0 47 7 61 14l1 -76c-16 -5 -46 -11 -76 -11z" />
    <glyph glyph-name="tbar" unicode="&#x167;" horiz-adv-x="351" 
d="M325 216h-143v-66c0 -62 26 -85 70 -85c23 0 47 7 61 14l1 -76c-16 -5 -46 -11 -76 -11c-89 0 -139 52 -139 144v80h-84v56h84v146h-80v70h81v134l82 60v-194h131v-70h-131v-146h143v-56z" />
    <glyph glyph-name="tcaron" unicode="&#x165;" horiz-adv-x="351" 
d="M246 552l57 211h87l-93 -211h-51zM238 -8c-89 0 -139 52 -139 144v282h-80v70h81v134l82 60v-194h131v-70h-131v-268c0 -62 26 -85 70 -85c23 0 47 7 61 14l1 -76c-16 -5 -46 -11 -76 -11z" />
    <glyph glyph-name="uni0163" unicode="&#x163;" horiz-adv-x="351" 
d="M254 -64c51 -12 78 -43 78 -88c0 -59 -43 -101 -105 -101c-44 0 -86 23 -98 73l47 19c7 -23 27 -43 53 -43c33 0 53 19 53 49c0 34 -32 58 -86 61h-40l53 88c-71 10 -110 61 -110 142v282h-80v70h81v134l82 60v-194h131v-70h-131v-268c0 -62 26 -85 70 -85
c23 0 47 7 61 14l1 -76c-12 -4 -33 -8 -55 -10l-35 -53c11 0 21 -2 30 -4z" />
    <glyph glyph-name="uni021B" unicode="&#x21b;" horiz-adv-x="351" 
d="M238 -8c-89 0 -139 52 -139 144v282h-80v70h81v134l82 60v-194h131v-70h-131v-268c0 -62 26 -85 70 -85c23 0 47 7 61 14l1 -76c-16 -5 -46 -11 -76 -11zM119 -220l81 166h87l-118 -166h-50z" />
    <glyph glyph-name="u" unicode="u" horiz-adv-x="555" 
d="M241 -8c-119 0 -171 88 -172 192v304h82v-289c0 -80 39 -131 112 -131c78 0 128 47 128 139v281h82v-488h-82v74c-34 -55 -91 -82 -150 -82z" />
    <glyph glyph-name="uacute" unicode="&#xfa;" horiz-adv-x="555" 
d="M236 550l108 140h89l-135 -140h-62zM241 -8c-119 0 -171 88 -172 192v304h82v-289c0 -80 39 -131 112 -131c78 0 128 47 128 139v281h82v-488h-82v74c-34 -55 -91 -82 -150 -82z" />
    <glyph glyph-name="uni01D4" unicode="&#x1d4;" horiz-adv-x="555" 
d="M276 536l-150 154h67l83 -86l83 86h67zM241 -8c-119 0 -171 88 -172 192v304h82v-289c0 -80 39 -131 112 -131c78 0 128 47 128 139v281h82v-488h-82v74c-34 -55 -91 -82 -150 -82z" />
    <glyph glyph-name="ucircumflex" unicode="&#xfb;" horiz-adv-x="555" 
d="M127 541l149 161l150 -161h-67l-83 89l-83 -89h-66zM241 -8c-119 0 -171 88 -172 192v304h82v-289c0 -80 39 -131 112 -131c78 0 128 47 128 139v281h82v-488h-82v74c-34 -55 -91 -82 -150 -82z" />
    <glyph glyph-name="udieresis" unicode="&#xfc;" horiz-adv-x="555" 
d="M150 587v103h70v-103h-70zM332 587v103h70v-103h-70zM241 -8c-119 0 -171 88 -172 192v304h82v-289c0 -80 39 -131 112 -131c78 0 128 47 128 139v281h82v-488h-82v74c-34 -55 -91 -82 -150 -82z" />
    <glyph glyph-name="uni01D8" unicode="&#x1d8;" horiz-adv-x="555" 
d="M236 752l108 140h89l-135 -140h-62zM150 587v103h70v-103h-70zM332 587v103h70v-103h-70zM241 -8c-119 0 -171 88 -172 192v304h82v-289c0 -80 39 -131 112 -131c78 0 128 47 128 139v281h82v-488h-82v74c-34 -55 -91 -82 -150 -82z" />
    <glyph glyph-name="uni01DA" unicode="&#x1da;" horiz-adv-x="555" 
d="M276 738l-150 154h67l83 -86l83 86h67zM150 587v103h70v-103h-70zM332 587v103h70v-103h-70zM241 -8c-119 0 -171 88 -172 192v304h82v-289c0 -80 39 -131 112 -131c78 0 128 47 128 139v281h82v-488h-82v74c-34 -55 -91 -82 -150 -82z" />
    <glyph glyph-name="uni01DC" unicode="&#x1dc;" horiz-adv-x="555" 
d="M253 745l-134 147h88l108 -147h-62zM150 587v103h70v-103h-70zM332 587v103h70v-103h-70zM241 -8c-119 0 -171 88 -172 192v304h82v-289c0 -80 39 -131 112 -131c78 0 128 47 128 139v281h82v-488h-82v74c-34 -55 -91 -82 -150 -82z" />
    <glyph glyph-name="uni01D6" unicode="&#x1d6;" horiz-adv-x="555" 
d="M142 786v50h269v-50h-269zM150 587v103h70v-103h-70zM332 587v103h70v-103h-70zM241 -8c-119 0 -171 88 -172 192v304h82v-289c0 -80 39 -131 112 -131c78 0 128 47 128 139v281h82v-488h-82v74c-34 -55 -91 -82 -150 -82z" />
    <glyph glyph-name="uni1EE5" unicode="&#x1ee5;" horiz-adv-x="555" 
d="M241 -8c-119 0 -171 88 -172 192v304h82v-289c0 -80 39 -131 112 -131c78 0 128 47 128 139v281h82v-488h-82v74c-34 -55 -91 -82 -150 -82zM233 -202v103h86v-103h-86z" />
    <glyph glyph-name="ugrave" unicode="&#xf9;" horiz-adv-x="555" 
d="M253 543l-134 147h88l108 -147h-62zM241 -8c-119 0 -171 88 -172 192v304h82v-289c0 -80 39 -131 112 -131c78 0 128 47 128 139v281h82v-488h-82v74c-34 -55 -91 -82 -150 -82z" />
    <glyph glyph-name="uni1EE7" unicode="&#x1ee7;" horiz-adv-x="555" 
d="M250 531v59c37 8 55 26 55 50c0 22 -16 37 -40 37c-13 0 -28 -5 -41 -18l-27 41c19 14 43 25 77 25c56 0 90 -32 90 -80c0 -46 -29 -66 -61 -75v-39h-53zM241 -8c-119 0 -171 88 -172 192v304h82v-289c0 -80 39 -131 112 -131c78 0 128 47 128 139v281h82v-488h-82v74
c-34 -55 -91 -82 -150 -82z" />
    <glyph glyph-name="uhorn" unicode="&#x1b0;" horiz-adv-x="555" 
d="M533 561h63v-45c0 -84 -37 -146 -123 -153v-363h-82v74c-34 -55 -91 -82 -150 -82c-119 0 -171 88 -172 192v304h82v-289c0 -80 39 -131 112 -131c78 0 128 47 128 139v281h82v-69c45 8 60 46 60 91v51z" />
    <glyph glyph-name="uni1EE9" unicode="&#x1ee9;" horiz-adv-x="555" 
d="M433 690l-135 -140h-62l108 140h89zM533 561h63v-45c0 -84 -37 -146 -123 -153v-363h-82v74c-34 -55 -91 -82 -150 -82c-119 0 -171 88 -172 192v304h82v-289c0 -80 39 -131 112 -131c78 0 128 47 128 139v281h82v-69c45 8 60 46 60 91v51z" />
    <glyph glyph-name="uni1EF1" unicode="&#x1ef1;" horiz-adv-x="555" 
d="M533 561h63v-45c0 -84 -37 -146 -123 -153v-363h-82v74c-34 -55 -91 -82 -150 -82c-119 0 -171 88 -172 192v304h82v-289c0 -80 39 -131 112 -131c78 0 128 47 128 139v281h82v-69c45 8 60 46 60 91v51zM233 -202v103h86v-103h-86z" />
    <glyph glyph-name="uni1EEB" unicode="&#x1eeb;" horiz-adv-x="555" 
d="M315 543h-62l-134 147h88zM533 561h63v-45c0 -84 -37 -146 -123 -153v-363h-82v74c-34 -55 -91 -82 -150 -82c-119 0 -171 88 -172 192v304h82v-289c0 -80 39 -131 112 -131c78 0 128 47 128 139v281h82v-69c45 8 60 46 60 91v51z" />
    <glyph glyph-name="uni1EED" unicode="&#x1eed;" horiz-adv-x="555" 
d="M265 677c-13 0 -28 -5 -41 -18l-27 41c19 14 43 25 77 25c56 0 90 -32 90 -80c0 -46 -29 -66 -61 -75v-39h-53v59c37 8 55 26 55 50c0 22 -16 37 -40 37zM533 561h63v-45c0 -84 -37 -146 -123 -153v-363h-82v74c-34 -55 -91 -82 -150 -82c-119 0 -171 88 -172 192v304h82
v-289c0 -80 39 -131 112 -131c78 0 128 47 128 139v281h82v-69c45 8 60 46 60 91v51z" />
    <glyph glyph-name="uni1EEF" unicode="&#x1eef;" horiz-adv-x="555" 
d="M210 635c-27 0 -44 -28 -44 -75h-48c0 81 36 127 95 127c73 0 83 -81 131 -81c24 0 41 29 41 77h51c0 -81 -36 -130 -93 -130c-80 0 -85 82 -133 82zM533 561h63v-45c0 -84 -37 -146 -123 -153v-363h-82v74c-34 -55 -91 -82 -150 -82c-119 0 -171 88 -172 192v304h82
v-289c0 -80 39 -131 112 -131c78 0 128 47 128 139v281h82v-69c45 8 60 46 60 91v51z" />
    <glyph glyph-name="uhungarumlaut" unicode="&#x171;" horiz-adv-x="555" 
d="M158 537l108 153h75l-121 -153h-62zM333 537l107 153h89l-134 -153h-62zM241 -8c-119 0 -171 88 -172 192v304h82v-289c0 -80 39 -131 112 -131c78 0 128 47 128 139v281h82v-488h-82v74c-34 -55 -91 -82 -150 -82z" />
    <glyph glyph-name="umacron" unicode="&#x16b;" horiz-adv-x="555" 
d="M142 584v50h269v-50h-269zM241 -8c-119 0 -171 88 -172 192v304h82v-289c0 -80 39 -131 112 -131c78 0 128 47 128 139v281h82v-488h-82v74c-34 -55 -91 -82 -150 -82z" />
    <glyph glyph-name="uogonek" unicode="&#x173;" horiz-adv-x="555" 
d="M472 -134l43 -29c-25 -36 -58 -59 -106 -59c-62 0 -104 37 -104 95c0 72 68 118 98 127h-12v74c-34 -55 -91 -82 -150 -82c-119 0 -171 88 -172 192v304h82v-289c0 -80 39 -131 112 -131c78 0 128 47 128 139v281h82v-488h-1c-38 -11 -117 -54 -117 -116
c0 -39 22 -54 52 -54c28 0 48 12 65 36z" />
    <glyph glyph-name="uring" unicode="&#x16f;" horiz-adv-x="555" 
d="M275 530c-56 0 -100 46 -100 101c0 56 45 101 100 101s101 -45 101 -101s-44 -101 -101 -101zM275 576c32 0 55 24 55 56c0 30 -22 54 -55 54c-31 0 -54 -24 -54 -54c0 -32 24 -56 54 -56zM241 -8c-119 0 -171 88 -172 192v304h82v-289c0 -80 39 -131 112 -131
c78 0 128 47 128 139v281h82v-488h-82v74c-34 -55 -91 -82 -150 -82z" />
    <glyph glyph-name="utilde" unicode="&#x169;" horiz-adv-x="555" 
d="M343 553c-80 0 -85 82 -133 82c-27 0 -44 -28 -44 -75h-48c0 81 36 127 95 127c73 0 83 -81 131 -81c24 0 41 29 41 77h51c0 -81 -36 -130 -93 -130zM241 -8c-119 0 -171 88 -172 192v304h82v-289c0 -80 39 -131 112 -131c78 0 128 47 128 139v281h82v-488h-82v74
c-34 -55 -91 -82 -150 -82z" />
    <glyph glyph-name="v" unicode="v" horiz-adv-x="489" 
d="M210 0l-200 488h91l143 -382l144 382h90l-199 -488h-69z" />
    <glyph glyph-name="w" unicode="w" horiz-adv-x="722" 
d="M164 0l-145 488h89l99 -363l118 363h73l118 -362l99 362h89l-146 -488h-76l-121 373l-121 -373h-76z" />
    <glyph glyph-name="wacute" unicode="&#x1e83;" horiz-adv-x="722" 
d="M321 550l108 140h89l-135 -140h-62zM164 0l-145 488h89l99 -363l118 363h73l118 -362l99 362h89l-146 -488h-76l-121 373l-121 -373h-76z" />
    <glyph glyph-name="wcircumflex" unicode="&#x175;" horiz-adv-x="722" 
d="M213 541l149 161l150 -161h-67l-83 89l-83 -89h-66zM164 0l-145 488h89l99 -363l118 363h73l118 -362l99 362h89l-146 -488h-76l-121 373l-121 -373h-76z" />
    <glyph glyph-name="wdieresis" unicode="&#x1e85;" horiz-adv-x="722" 
d="M236 587v103h70v-103h-70zM418 587v103h70v-103h-70zM164 0l-145 488h89l99 -363l118 363h73l118 -362l99 362h89l-146 -488h-76l-121 373l-121 -373h-76z" />
    <glyph glyph-name="wgrave" unicode="&#x1e81;" horiz-adv-x="722" 
d="M339 543l-134 147h88l108 -147h-62zM164 0l-145 488h89l99 -363l118 363h73l118 -362l99 362h89l-146 -488h-76l-121 373l-121 -373h-76z" />
    <glyph glyph-name="x" unicode="x" horiz-adv-x="495" 
d="M17 0l175 245l-175 243h101l129 -186l129 186h101l-175 -243l176 -245h-102l-129 188l-129 -188h-101z" />
    <glyph glyph-name="y" unicode="y" horiz-adv-x="500" 
d="M130 -202l82 210l-202 480h91l155 -384l142 384h91l-269 -690h-90z" />
    <glyph glyph-name="yacute" unicode="&#xfd;" horiz-adv-x="500" 
d="M208 550l108 140h89l-135 -140h-62zM130 -202l82 210l-202 480h91l155 -384l142 384h91l-269 -690h-90z" />
    <glyph glyph-name="ycircumflex" unicode="&#x177;" horiz-adv-x="500" 
d="M99 541l149 161l150 -161h-67l-83 89l-83 -89h-66zM130 -202l82 210l-202 480h91l155 -384l142 384h91l-269 -690h-90z" />
    <glyph glyph-name="ydieresis" unicode="&#xff;" horiz-adv-x="500" 
d="M122 587v103h70v-103h-70zM304 587v103h70v-103h-70zM130 -202l82 210l-202 480h91l155 -384l142 384h91l-269 -690h-90z" />
    <glyph glyph-name="uni1EF5" unicode="&#x1ef5;" horiz-adv-x="500" 
d="M130 -202l82 210l-202 480h91l155 -384l142 384h91l-269 -690h-90zM346 -202v103h86v-103h-86z" />
    <glyph glyph-name="ygrave" unicode="&#x1ef3;" horiz-adv-x="500" 
d="M225 543l-134 147h88l108 -147h-62zM130 -202l82 210l-202 480h91l155 -384l142 384h91l-269 -690h-90z" />
    <glyph glyph-name="uni1EF7" unicode="&#x1ef7;" horiz-adv-x="500" 
d="M222 531v59c37 8 55 26 55 50c0 22 -16 37 -40 37c-13 0 -28 -5 -41 -18l-27 41c19 14 43 25 77 25c56 0 90 -32 90 -80c0 -46 -29 -66 -61 -75v-39h-53zM130 -202l82 210l-202 480h91l155 -384l142 384h91l-269 -690h-90z" />
    <glyph glyph-name="uni0233" unicode="&#x233;" horiz-adv-x="500" 
d="M114 584v50h269v-50h-269zM130 -202l82 210l-202 480h91l155 -384l142 384h91l-269 -690h-90z" />
    <glyph glyph-name="uni1EF9" unicode="&#x1ef9;" horiz-adv-x="500" 
d="M315 553c-80 0 -85 82 -133 82c-27 0 -44 -28 -44 -75h-48c0 81 36 127 95 127c73 0 83 -81 131 -81c24 0 41 29 41 77h51c0 -81 -36 -130 -93 -130zM130 -202l82 210l-202 480h91l155 -384l142 384h91l-269 -690h-90z" />
    <glyph glyph-name="z" unicode="z" horiz-adv-x="482" 
d="M445 488v-63l-303 -355h301v-70h-412v58l309 360h-294v70h399z" />
    <glyph glyph-name="zacute" unicode="&#x17a;" horiz-adv-x="482" 
d="M393 690l-135 -140h-62l108 140h89zM445 488v-63l-303 -355h301v-70h-412v58l309 360h-294v70h399z" />
    <glyph glyph-name="zcaron" unicode="&#x17e;" horiz-adv-x="482" 
d="M387 690l-150 -154l-150 154h67l83 -86l83 86h67zM445 488v-63l-303 -355h301v-70h-412v58l309 360h-294v70h399z" />
    <glyph glyph-name="zdotaccent" unicode="&#x17c;" horiz-adv-x="482" 
d="M280 690v-103h-86v103h86zM445 488v-63l-303 -355h301v-70h-412v58l309 360h-294v70h399z" />
    <glyph glyph-name="g.ss01" horiz-adv-x="581" 
d="M265 -210c-103 0 -172 48 -212 117l63 46c24 -50 77 -91 150 -91c86 0 150 58 150 167v66c-32 -62 -93 -97 -162 -97c-134 0 -215 115 -215 250c0 133 81 248 214 248c68 0 131 -34 163 -96v88h83v-459c0 -149 -95 -239 -234 -239zM273 75c95 0 149 75 149 173
c0 96 -54 173 -149 173s-150 -78 -150 -173c0 -97 55 -173 150 -173z" />
    <glyph glyph-name="gbreve.ss01" horiz-adv-x="580" 
d="M290 560c-103 0 -151 46 -151 130h59c0 -54 37 -80 92 -80c56 0 91 27 91 80h59c0 -87 -52 -130 -150 -130zM265 -210c-103 0 -172 48 -212 117l63 46c24 -50 77 -91 150 -91c86 0 150 58 150 167v66c-32 -62 -93 -97 -162 -97c-134 0 -215 115 -215 250
c0 133 81 248 214 248c68 0 131 -34 163 -96v88h83v-459c0 -149 -95 -239 -234 -239zM273 75c95 0 149 75 149 173c0 96 -54 173 -149 173s-150 -78 -150 -173c0 -97 55 -173 150 -173z" />
    <glyph glyph-name="uni0123.ss01" horiz-adv-x="580" 
d="M408 685l-82 -149h-87l118 149h51zM265 -210c-103 0 -172 48 -212 117l63 46c24 -50 77 -91 150 -91c86 0 150 58 150 167v66c-32 -62 -93 -97 -162 -97c-134 0 -215 115 -215 250c0 133 81 248 214 248c68 0 131 -34 163 -96v88h83v-459c0 -149 -95 -239 -234 -239z
M273 75c95 0 149 75 149 173c0 96 -54 173 -149 173s-150 -78 -150 -173c0 -97 55 -173 150 -173z" />
    <glyph glyph-name="gdotaccent.ss01" horiz-adv-x="580" 
d="M246 587v103h87v-103h-87zM265 -210c-103 0 -172 48 -212 117l63 46c24 -50 77 -91 150 -91c86 0 150 58 150 167v66c-32 -62 -93 -97 -162 -97c-134 0 -215 115 -215 250c0 133 81 248 214 248c68 0 131 -34 163 -96v88h83v-459c0 -149 -95 -239 -234 -239zM273 75
c95 0 149 75 149 173c0 96 -54 173 -149 173s-150 -78 -150 -173c0 -97 55 -173 150 -173z" />
    <glyph glyph-name="g.ss02" horiz-adv-x="519" 
d="M323 71c86 0 161 -32 161 -130c0 -95 -71 -152 -215 -152c-129 0 -234 46 -234 153c0 14 2 26 6 37l72 39c-33 17 -63 50 -64 101c0 38 16 74 56 102c-22 28 -35 64 -35 104c0 101 81 171 188 171c48 0 90 -14 121 -38l75 65l42 -54l-73 -62c14 -25 22 -54 22 -85
c0 -103 -82 -169 -187 -169c-39 0 -75 9 -104 26c-21 -15 -28 -33 -27 -52c0 -46 46 -56 89 -56h107zM260 430c-66 0 -107 -46 -107 -107c0 -60 40 -104 106 -104s106 44 106 104c0 61 -40 107 -105 107zM269 -147c77 0 136 19 136 83c0 52 -43 65 -115 65h-115h-9l-54 -45
v-13c0 -42 23 -90 157 -90z" />
    <glyph glyph-name="gbreve.ss02" horiz-adv-x="519" 
d="M259 560c-103 0 -151 46 -151 130h59c0 -54 37 -80 92 -80c56 0 91 27 91 80h59c0 -87 -52 -130 -150 -130zM323 71c86 0 161 -32 161 -130c0 -95 -71 -152 -215 -152c-129 0 -234 46 -234 153c0 14 2 26 6 37l72 39c-33 17 -63 50 -64 101c0 38 16 74 56 102
c-22 28 -35 64 -35 104c0 101 81 171 188 171c48 0 90 -14 121 -38l75 65l42 -54l-73 -62c14 -25 22 -54 22 -85c0 -103 -82 -169 -187 -169c-39 0 -75 9 -104 26c-21 -15 -28 -33 -27 -52c0 -46 46 -56 89 -56h107zM260 430c-66 0 -107 -46 -107 -107
c0 -60 40 -104 106 -104s106 44 106 104c0 61 -40 107 -105 107zM269 -147c77 0 136 19 136 83c0 52 -43 65 -115 65h-115h-9l-54 -45v-13c0 -42 23 -90 157 -90z" />
    <glyph glyph-name="uni0123.ss02" horiz-adv-x="519" 
d="M372 697l-82 -149h-87l118 149h51zM323 71c86 0 161 -32 161 -130c0 -95 -71 -152 -215 -152c-129 0 -234 46 -234 153c0 14 2 26 6 37l72 39c-33 17 -63 50 -64 101c0 38 16 74 56 102c-22 28 -35 64 -35 104c0 101 81 171 188 171c48 0 90 -14 121 -38l75 65l42 -54
l-73 -62c14 -25 22 -54 22 -85c0 -103 -82 -169 -187 -169c-39 0 -75 9 -104 26c-21 -15 -28 -33 -27 -52c0 -46 46 -56 89 -56h107zM260 430c-66 0 -107 -46 -107 -107c0 -60 40 -104 106 -104s106 44 106 104c0 61 -40 107 -105 107zM269 -147c77 0 136 19 136 83
c0 52 -43 65 -115 65h-115h-9l-54 -45v-13c0 -42 23 -90 157 -90z" />
    <glyph glyph-name="gdotaccent.ss02" horiz-adv-x="519" 
d="M302 690v-103h-86v103h86zM323 71c86 0 161 -32 161 -130c0 -95 -71 -152 -215 -152c-129 0 -234 46 -234 153c0 14 2 26 6 37l72 39c-33 17 -63 50 -64 101c0 38 16 74 56 102c-22 28 -35 64 -35 104c0 101 81 171 188 171c48 0 90 -14 121 -38l75 65l42 -54l-73 -62
c14 -25 22 -54 22 -85c0 -103 -82 -169 -187 -169c-39 0 -75 9 -104 26c-21 -15 -28 -33 -27 -52c0 -46 46 -56 89 -56h107zM260 430c-66 0 -107 -46 -107 -107c0 -60 40 -104 106 -104s106 44 106 104c0 61 -40 107 -105 107zM269 -147c77 0 136 19 136 83
c0 52 -43 65 -115 65h-115h-9l-54 -45v-13c0 -42 23 -90 157 -90z" />
    <glyph glyph-name="T_h" horiz-adv-x="1031" 
d="M257 0v613h-233v77h616v-276c33 55 89 82 148 82c119 0 172 -88 174 -192v-304h-84v289c0 78 -28 132 -109 132c-84 0 -129 -64 -129 -153v-268h-84v613h-213v-613h-86z" />
    <glyph glyph-name="f_t" horiz-adv-x="603" 
d="M490 -8c-90 0 -140 52 -140 144v282h-170v-418h-83v418h-81v70h81v39c0 114 81 171 179 171c65 0 116 -14 156 -38v-172h133v-70h-133v-268c0 -62 27 -85 72 -85c22 0 46 7 60 14l1 -76c-16 -5 -46 -11 -75 -11zM180 488h172v125c-18 12 -44 18 -72 18
c-66 0 -100 -35 -100 -106v-37z" />
    <glyph glyph-name="t_t" horiz-adv-x="665" 
d="M252 -8c-95 0 -147 52 -147 144v282h-86v70h87v134l81 60v-194h216v134l80 60v-194h144v-70h-144v-268c0 -62 30 -85 80 -85c24 0 49 7 64 14v-76c-16 -5 -48 -11 -77 -11c-96 0 -148 52 -148 144v282h-215v-268c0 -62 28 -85 79 -85c23 0 48 7 63 14l1 -76
c-17 -5 -48 -11 -78 -11z" />
    <glyph glyph-name="ordfeminine" unicode="&#xaa;" horiz-adv-x="494" 
d="M209 344c-66 0 -118 41 -118 105c0 72 57 104 141 104h98c0 9 0 16 -2 23c-5 49 -33 75 -88 75c-45 0 -74 -23 -97 -55l-41 28c38 53 78 74 139 74c89 0 139 -53 139 -138v-209h-46l-2 57c-31 -43 -71 -64 -123 -64zM218 392c47 0 85 29 106 70c3 14 6 30 6 45h-95
c-58 0 -89 -21 -89 -58c0 -34 32 -57 72 -57z" />
    <glyph glyph-name="ordmasculine" unicode="&#xba;" horiz-adv-x="492" 
d="M246 349c-100 0 -170 78 -170 175c0 96 70 174 170 174c99 0 169 -78 169 -174c0 -97 -70 -175 -169 -175zM246 399c72 0 111 55 111 125s-39 124 -111 124c-73 0 -112 -54 -112 -124s39 -125 112 -125z" />
    <glyph glyph-name="uni01C3" unicode="&#x1c3;" horiz-adv-x="283" 
d="M110 199l-9 491h81l-9 -491h-63zM97 0v114h90v-114h-90z" />
    <glyph glyph-name="uni03BC" unicode="&#x3bc;" horiz-adv-x="631" 
d="M123 -167v655h82v-289c0 -80 39 -131 113 -131c77 0 127 47 127 139v281h82v-488h-82v74c-33 -55 -91 -82 -150 -82c-47 0 -83 16 -104 46v-205h-68z" />
    <glyph glyph-name="pi" unicode="&#x3c0;" horiz-adv-x="513" 
d="M431 -8c-73 0 -112 67 -112 190v236h-157v-418h-70v418h-48v70h394v-70h-49v-226c0 -100 18 -138 47 -138c8 0 19 1 30 7l22 -55c-18 -10 -38 -14 -57 -14z" />
    <glyph glyph-name="zero" unicode="0" horiz-adv-x="567" 
d="M288 -8c-204 0 -243 205 -243 353c0 150 37 354 236 354c182 0 242 -181 242 -355c0 -173 -59 -352 -235 -352zM286 73c121 0 149 142 149 272c0 133 -29 272 -154 272c-129 0 -151 -147 -151 -272c0 -124 22 -272 156 -272z" />
    <glyph glyph-name="one" unicode="1" horiz-adv-x="567" 
d="M292 690h81v-690h-85v514h-169v66h109c41 0 64 16 64 56v54z" />
    <glyph glyph-name="two" unicode="2" horiz-adv-x="567" 
d="M177 78h350v-78h-485v73c150 93 363 241 363 420c0 75 -42 127 -125 127c-101 0 -142 -77 -144 -168l-84 5c0 132 83 241 227 241c125 0 212 -75 212 -207c0 -172 -179 -333 -314 -413z" />
    <glyph glyph-name="three" unicode="3" horiz-adv-x="567" 
d="M278 -8c-138 0 -246 75 -246 218l82 4c0 -90 68 -143 165 -143c90 0 162 48 162 134c0 112 -109 124 -196 123v69c105 -1 159 31 159 110c0 70 -55 111 -127 111c-78 0 -131 -46 -131 -120l-82 5c0 122 94 195 212 195c113 0 211 -70 211 -181c0 -76 -48 -125 -121 -149
c94 -19 157 -76 157 -170c0 -132 -111 -206 -245 -206z" />
    <glyph glyph-name="four" unicode="4" horiz-adv-x="567" 
d="M437 242h112v-78h-112v-164h-85v164h-336v52l346 474h75v-448zM125 242h227v319z" />
    <glyph glyph-name="five" unicode="5" horiz-adv-x="567" 
d="M297 465c126 0 226 -103 226 -233c0 -131 -109 -240 -243 -240c-119 0 -213 86 -239 202l80 22c17 -79 69 -146 159 -146s156 76 156 163c0 86 -59 155 -151 155c-55 0 -108 -28 -141 -77l-82 21l65 358h364v-79h-296l-35 -194c45 34 89 48 137 48z" />
    <glyph glyph-name="six" unicode="6" horiz-adv-x="567" 
d="M284 457c132 0 240 -104 240 -232c0 -129 -108 -233 -240 -233s-240 104 -240 233c0 47 15 91 40 128l204 337h98l-143 -236c13 2 27 3 41 3zM284 72c86 0 156 69 156 153c0 83 -70 152 -156 152s-156 -69 -156 -152c0 -85 70 -153 156 -153z" />
    <glyph glyph-name="seven" unicode="7" horiz-adv-x="567" 
d="M36 690h495v-48l-328 -642h-95l319 611h-391v79z" />
    <glyph glyph-name="eight" unicode="8" horiz-adv-x="567" 
d="M283 -8c-122 0 -240 67 -240 203c0 84 48 149 121 179c-52 30 -82 83 -82 147c0 113 99 177 201 177c109 0 202 -68 202 -179c0 -64 -33 -117 -83 -145c75 -32 119 -96 119 -179c0 -137 -117 -203 -238 -203zM285 399c68 0 118 44 118 113c0 71 -50 114 -118 114
c-62 0 -119 -37 -119 -110c0 -70 47 -117 119 -117zM282 66c82 0 154 44 154 137c0 86 -65 139 -154 139c-90 0 -155 -53 -155 -138c0 -94 74 -138 155 -138z" />
    <glyph glyph-name="nine" unicode="9" horiz-adv-x="567" 
d="M527 465c0 -42 -12 -82 -32 -116l-212 -349h-98l144 237c-14 -3 -28 -4 -42 -4c-131 0 -239 104 -239 232c0 129 107 233 239 233s240 -104 240 -233zM132 465c0 -83 69 -152 155 -152s156 69 156 152c0 85 -69 153 -156 153c-86 0 -155 -69 -155 -153z" />
    <glyph glyph-name="zero.lf" horiz-adv-x="600" 
d="M305 -8c-205 0 -243 205 -243 353c0 150 37 354 236 354c181 0 242 -181 242 -355c0 -173 -59 -352 -235 -352zM303 73c121 0 148 142 148 272c0 133 -28 272 -153 272c-130 0 -151 -147 -151 -272c0 -124 22 -272 156 -272z" />
    <glyph glyph-name="one.lf" horiz-adv-x="376" 
d="M195 690h82v-690h-85v514h-169v66h109c41 0 63 16 63 56v54z" />
    <glyph glyph-name="two.lf" horiz-adv-x="570" 
d="M178 78h351v-78h-486v73c150 93 364 241 364 420c0 75 -42 127 -126 127c-100 0 -141 -77 -143 -168l-84 5c0 132 83 241 227 241c124 0 212 -75 212 -207c0 -172 -180 -333 -315 -413z" />
    <glyph glyph-name="three.lf" horiz-adv-x="578" 
d="M283 -8c-137 0 -246 75 -246 218l82 4c0 -90 68 -143 166 -143c90 0 162 48 162 134c0 112 -110 124 -196 123v69c105 -1 159 31 159 110c0 70 -55 111 -127 111c-79 0 -131 -46 -132 -120l-81 5c0 122 94 195 211 195c114 0 211 -70 211 -181c0 -76 -48 -125 -121 -149
c95 -19 158 -76 158 -170c0 -132 -111 -206 -246 -206z" />
    <glyph glyph-name="four.lf" horiz-adv-x="580" 
d="M444 242h112v-78h-112v-164h-85v164h-336v52l346 474h75v-448zM132 242h227v319z" />
    <glyph glyph-name="five.lf" horiz-adv-x="578" 
d="M302 465c126 0 227 -103 227 -233c0 -131 -109 -240 -244 -240c-118 0 -213 86 -238 202l80 22c16 -79 68 -146 158 -146c91 0 156 76 156 163c0 86 -59 155 -151 155c-54 0 -108 -28 -141 -77l-81 21l64 358h364v-79h-296l-35 -194c45 34 90 48 137 48z" />
    <glyph glyph-name="six.lf" horiz-adv-x="553" 
d="M278 457c131 0 239 -104 239 -232c0 -129 -108 -233 -239 -233c-133 0 -240 104 -240 233c0 42 12 82 32 116l211 349h98l-143 -237c14 3 28 4 42 4zM278 72c85 0 155 69 155 153c0 83 -70 152 -155 152c-87 0 -156 -69 -156 -152c0 -85 69 -153 156 -153z" />
    <glyph glyph-name="seven.lf" horiz-adv-x="541" 
d="M23 690h495v-48l-327 -642h-95l319 611h-392v79z" />
    <glyph glyph-name="eight.lf" horiz-adv-x="578" 
d="M289 -8c-122 0 -239 67 -239 203c0 84 47 149 120 179c-52 30 -82 83 -82 147c0 113 99 177 202 177c108 0 201 -68 201 -179c0 -64 -32 -117 -83 -145c75 -32 120 -96 120 -179c0 -137 -117 -203 -239 -203zM291 399c69 0 118 44 118 113c0 71 -50 114 -118 114
c-62 0 -118 -37 -118 -110c0 -70 47 -117 118 -117zM288 66c83 0 154 44 154 137c0 86 -65 139 -154 139c-90 0 -154 -53 -154 -138c0 -94 73 -138 154 -138z" />
    <glyph glyph-name="nine.lf" horiz-adv-x="553" 
d="M515 465c0 -42 -12 -82 -32 -116l-211 -349h-98l143 237c-14 -3 -28 -4 -42 -4c-131 0 -239 104 -239 232c0 129 108 233 239 233c133 0 240 -104 240 -233zM120 465c0 -83 70 -152 155 -152c87 0 156 69 156 152c0 85 -69 153 -156 153c-85 0 -155 -69 -155 -153z" />
    <glyph glyph-name="zero.dnom" horiz-adv-x="370" 
d="M188 -5c-125 0 -155 124 -155 212c0 89 29 213 150 213c111 0 154 -110 154 -214c0 -103 -42 -211 -149 -211zM186 48c70 0 93 84 93 159c0 77 -23 159 -96 159c-75 0 -94 -85 -94 -159c0 -73 20 -159 97 -159z" />
    <glyph glyph-name="one.dnom" horiz-adv-x="224" 
d="M105 414h53v-414h-56v304h-100v44h63c25 0 40 11 40 36v30z" />
    <glyph glyph-name="two.dnom" horiz-adv-x="349" 
d="M107 51h216v-51h-306v47c85 52 228 142 228 248c0 42 -23 73 -72 73c-58 0 -81 -47 -83 -99l-55 4c0 78 50 146 138 146c75 0 129 -45 129 -125c0 -102 -105 -192 -195 -243z" />
    <glyph glyph-name="three.dnom" horiz-adv-x="348" 
d="M169 -5c-82 0 -149 45 -149 132l54 4c0 -54 41 -84 96 -84c50 0 94 26 94 78c0 64 -65 74 -114 74v38c62 0 92 20 92 61c0 46 -33 68 -72 68c-45 0 -76 -27 -77 -69l-53 4c0 74 57 118 128 118c68 0 128 -42 128 -110c0 -41 -24 -70 -64 -86c53 -12 86 -50 86 -103
c0 -81 -68 -125 -149 -125z" />
    <glyph glyph-name="four.dnom" horiz-adv-x="338" 
d="M255 151h67v-52h-67v-99h-56v99h-199v34l206 281h49v-263zM73 151h126v177z" />
    <glyph glyph-name="five.dnom" horiz-adv-x="354" 
d="M186 281c76 0 137 -63 137 -142c0 -78 -67 -144 -148 -144c-72 0 -129 53 -145 122l53 15c9 -45 39 -86 92 -86c52 0 90 46 90 94c0 49 -34 90 -88 90c-31 0 -63 -17 -81 -45l-53 13l39 216h222v-53h-177l-19 -105c26 18 52 25 78 25z" />
    <glyph glyph-name="six.dnom" horiz-adv-x="319" 
d="M180 272c68 -6 126 -67 126 -136c0 -75 -63 -141 -146 -141c-81 0 -146 62 -146 140c0 26 8 49 22 71l125 208h64l-96 -149c17 6 33 8 51 7zM160 49c50 0 90 38 90 87c0 48 -40 88 -90 88c-49 0 -90 -40 -90 -88c0 -49 41 -87 90 -87z" />
    <glyph glyph-name="seven.dnom" horiz-adv-x="298" 
d="M4 414h293v-31l-186 -383h-63l182 362h-226v52z" />
    <glyph glyph-name="eight.dnom" horiz-adv-x="354" 
d="M177 -5c-75 0 -146 40 -146 122c0 50 27 88 69 107c-30 19 -47 50 -47 87c0 69 61 108 124 108c66 0 124 -41 124 -109c0 -37 -18 -68 -46 -86c43 -20 68 -58 68 -106c0 -83 -72 -123 -146 -123zM179 245c39 0 68 24 68 63c0 40 -29 64 -69 64c-37 0 -69 -21 -69 -62
c0 -39 28 -65 70 -65zM177 44c48 0 89 24 89 76c0 49 -38 77 -89 77c-53 0 -91 -28 -91 -76c0 -53 43 -77 91 -77z" />
    <glyph glyph-name="nine.dnom" horiz-adv-x="320" 
d="M305 278c0 -26 -8 -51 -21 -73l-125 -205h-65l85 138c-7 -1 -13 -1 -20 -1c-79 0 -145 64 -145 141c0 78 66 141 145 141c81 0 146 -63 146 -141zM69 278c0 -48 41 -88 90 -88c51 0 91 40 91 88c0 49 -40 88 -91 88c-49 0 -90 -39 -90 -88z" />
    <glyph glyph-name="zero.numr" horiz-adv-x="370" 
d="M188 275c-125 0 -155 124 -155 212c0 89 29 213 150 213c111 0 154 -110 154 -214c0 -103 -42 -211 -149 -211zM186 328c70 0 93 84 93 159c0 77 -23 159 -96 159c-75 0 -94 -85 -94 -159c0 -73 20 -159 97 -159z" />
    <glyph glyph-name="one.numr" horiz-adv-x="224" 
d="M105 694h53v-414h-56v304h-100v44h63c25 0 40 11 40 36v30z" />
    <glyph glyph-name="two.numr" horiz-adv-x="349" 
d="M107 331h216v-51h-306v47c85 52 228 142 228 248c0 42 -23 73 -72 73c-58 0 -81 -47 -83 -99l-55 4c0 78 50 146 138 146c75 0 129 -45 129 -125c0 -102 -105 -192 -195 -243z" />
    <glyph glyph-name="three.numr" horiz-adv-x="348" 
d="M169 275c-82 0 -149 45 -149 132l54 4c0 -54 41 -84 96 -84c50 0 94 26 94 78c0 64 -65 74 -114 74v38c62 0 92 20 92 61c0 46 -33 68 -72 68c-45 0 -76 -27 -77 -69l-53 4c0 74 57 118 128 118c68 0 128 -42 128 -110c0 -41 -24 -70 -64 -86c53 -12 86 -50 86 -103
c0 -81 -68 -125 -149 -125z" />
    <glyph glyph-name="four.numr" horiz-adv-x="338" 
d="M255 427h67v-52h-67v-99h-56v99h-199v34l206 281h49v-263zM73 427h126v177z" />
    <glyph glyph-name="five.numr" horiz-adv-x="354" 
d="M186 557c76 0 137 -63 137 -142c0 -78 -67 -144 -148 -144c-72 0 -129 53 -145 122l53 15c9 -45 39 -86 92 -86c52 0 90 46 90 94c0 49 -34 90 -88 90c-31 0 -63 -17 -81 -45l-53 13l39 216h222v-53h-177l-19 -105c26 18 52 25 78 25z" />
    <glyph glyph-name="six.numr" horiz-adv-x="319" 
d="M180 548c68 -6 126 -67 126 -136c0 -75 -63 -141 -146 -141c-81 0 -146 62 -146 140c0 26 8 49 22 71l125 208h64l-96 -149c17 6 33 8 51 7zM160 325c50 0 90 38 90 87c0 48 -40 88 -90 88c-49 0 -90 -40 -90 -88c0 -49 41 -87 90 -87z" />
    <glyph glyph-name="seven.numr" horiz-adv-x="298" 
d="M4 690h293v-31l-186 -383h-63l182 362h-226v52z" />
    <glyph glyph-name="eight.numr" horiz-adv-x="354" 
d="M177 275c-75 0 -146 40 -146 122c0 50 27 88 69 107c-30 19 -47 50 -47 87c0 69 61 108 124 108c66 0 124 -41 124 -109c0 -37 -18 -68 -46 -86c43 -20 68 -58 68 -106c0 -83 -72 -123 -146 -123zM179 525c39 0 68 24 68 63c0 40 -29 64 -69 64c-37 0 -69 -21 -69 -62
c0 -39 28 -65 70 -65zM177 324c48 0 89 24 89 76c0 49 -38 77 -89 77c-53 0 -91 -28 -91 -76c0 -53 43 -77 91 -77z" />
    <glyph glyph-name="nine.numr" horiz-adv-x="320" 
d="M305 558c0 -26 -8 -51 -21 -73l-125 -205h-65l85 138c-7 -1 -13 -1 -20 -1c-79 0 -145 64 -145 141c0 78 66 141 145 141c81 0 146 -63 146 -141zM69 558c0 -48 41 -88 90 -88c51 0 91 40 91 88c0 49 -40 88 -91 88c-49 0 -90 -39 -90 -88z" />
    <glyph glyph-name="uni00B9" unicode="&#xb9;" horiz-adv-x="224" 
d="M105 902h53v-414h-56v304h-100v44h63c25 0 40 11 40 36v30z" />
    <glyph glyph-name="uni00B2" unicode="&#xb2;" horiz-adv-x="349" 
d="M107 539h216v-51h-306v47c85 52 228 142 228 248c0 42 -23 73 -72 73c-58 0 -81 -47 -83 -99l-55 4c0 78 50 146 138 146c75 0 129 -45 129 -125c0 -102 -105 -192 -195 -243z" />
    <glyph glyph-name="uni00B3" unicode="&#xb3;" horiz-adv-x="348" 
d="M169 481c-82 0 -149 45 -149 132l54 4c0 -54 41 -84 96 -84c50 0 94 26 94 78c0 64 -65 74 -114 74v38c62 0 92 20 92 61c0 46 -33 68 -72 68c-45 0 -76 -27 -77 -69l-53 4c0 74 57 118 128 118c68 0 128 -42 128 -110c0 -41 -24 -70 -64 -86c53 -12 86 -50 86 -103
c0 -81 -68 -125 -149 -125z" />
    <glyph glyph-name="fraction" unicode="&#x2044;" horiz-adv-x="147" 
d="M-155 0l397 690h60l-397 -690h-60z" />
    <glyph glyph-name="onehalf" unicode="&#xbd;" horiz-adv-x="720" 
d="M102 280v304h-100v44h63c25 0 40 11 40 36v30h53v-414h-56zM466 690h60l-397 -690h-60zM478 51h216v-51h-306v47c85 52 228 142 228 248c0 42 -23 73 -72 73c-58 0 -81 -47 -83 -99l-55 4c0 78 50 146 138 146c75 0 129 -45 129 -125c0 -102 -105 -192 -195 -243z" />
    <glyph glyph-name="onequarter" unicode="&#xbc;" horiz-adv-x="709" 
d="M102 280v304h-100v44h63c25 0 40 11 40 36v30h53v-414h-56zM466 690h60l-397 -690h-60zM626 151h67v-52h-67v-99h-56v99h-199v34l206 281h49v-263zM444 151h126v177z" />
    <glyph glyph-name="threequarters" unicode="&#xbe;" horiz-adv-x="833" 
d="M318 400c0 -81 -68 -125 -149 -125c-82 0 -149 45 -149 132l54 4c0 -54 41 -84 96 -84c50 0 94 26 94 78c0 64 -65 74 -114 74v38c62 0 92 20 92 61c0 46 -33 68 -72 68c-45 0 -76 -27 -77 -69l-53 4c0 74 57 118 128 118c68 0 128 -42 128 -110c0 -41 -24 -70 -64 -86
c53 -12 86 -50 86 -103zM590 690h60l-397 -690h-60zM750 151h67v-52h-67v-99h-56v99h-199v34l206 281h49v-263zM568 151h126v177z" />
    <glyph glyph-name="period" unicode="." horiz-adv-x="309" 
d="M113 0v115h83v-115h-83z" />
    <glyph glyph-name="comma" unicode="," horiz-adv-x="316" 
d="M74 -152l90 280h95l-129 -280h-56z" />
    <glyph glyph-name="colon" unicode=":" horiz-adv-x="321" 
d="M115 351v115h90v-115h-90zM115 0v115h90v-115h-90z" />
    <glyph glyph-name="semicolon" unicode=";" horiz-adv-x="326" 
d="M143 351v115h90v-115h-90zM57 -152l90 280h95l-128 -280h-57z" />
    <glyph glyph-name="ellipsis" unicode="&#x2026;" horiz-adv-x="713" 
d="M113 0v115h83v-115h-83zM315 0v115h83v-115h-83zM517 0v115h83v-115h-83z" />
    <glyph glyph-name="exclam" unicode="!" horiz-adv-x="307" 
d="M122 199l-9 491h82l-10 -491h-63zM109 0v115h90v-115h-90z" />
    <glyph glyph-name="exclamdown" unicode="&#xa1;" horiz-adv-x="307" 
d="M109 690h90v-115h-90v115zM122 491h63l10 -491h-82z" />
    <glyph glyph-name="question" unicode="?" horiz-adv-x="506" 
d="M214 197v78c0 152 170 109 170 239c0 77 -53 115 -137 115c-88 0 -133 -49 -133 -131h-74c1 126 82 200 205 200c119 0 212 -65 212 -186c0 -175 -173 -151 -173 -238v-77h-70zM205 0v115h90v-115h-90z" />
    <glyph glyph-name="questiondown" unicode="&#xbf;" horiz-adv-x="506" 
d="M301 690v-115h-90v115h90zM292 493v-78c0 -152 -170 -109 -170 -239c0 -77 53 -115 137 -115c88 0 133 49 133 131h74c-1 -126 -82 -200 -205 -200c-119 0 -212 65 -212 186c0 175 173 151 173 238v77h70z" />
    <glyph glyph-name="periodcentered" unicode="&#xb7;" horiz-adv-x="323" 
d="M161 291c-38 0 -67 31 -67 68c0 38 30 67 67 67c38 0 68 -29 68 -67c0 -37 -30 -68 -68 -68z" />
    <glyph glyph-name="bullet" unicode="&#x2022;" horiz-adv-x="401" 
d="M200 119c-64 0 -116 52 -116 116s52 116 116 116s116 -52 116 -116s-52 -116 -116 -116z" />
    <glyph glyph-name="asterisk" unicode="*" horiz-adv-x="451" 
d="M169 410l-64 43l83 87l-118 16l25 71l107 -46l-15 109h78l-16 -109l108 46l25 -71l-118 -16l82 -87l-64 -43l-56 110z" />
    <glyph glyph-name="numbersign" unicode="#" horiz-adv-x="688" 
d="M126 0l43 207h-118v59h131l35 169h-125v62h138l43 193h66l-42 -195h156l41 195h66l-43 -195h121v-60h-134l-36 -169h129v-59h-141l-44 -207h-65l43 207h-156l-43 -207h-65zM248 266h156l35 169h-156z" />
    <glyph glyph-name="slash" unicode="/" horiz-adv-x="431" 
d="M-1 -209l355 899h78l-355 -899h-78z" />
    <glyph glyph-name="backslash" unicode="\" horiz-adv-x="448" 
d="M372 -209l-374 948h78l374 -948h-78z" />
    <glyph glyph-name="twodotenleader" unicode="&#x2025;" horiz-adv-x="511" 
d="M113 0v115h83v-115h-83zM315 0v115h83v-115h-83z" />
    <glyph glyph-name="uni2023" unicode="&#x2023;" horiz-adv-x="440" 
d="M115 89v324l280 -162z" />
    <glyph glyph-name="parenleft" unicode="(" horiz-adv-x="275" 
d="M172 -67c-70 93 -110 267 -110 377c0 114 31 269 111 380h73c-81 -109 -114 -266 -114 -380c0 -111 42 -288 113 -377h-73z" />
    <glyph glyph-name="parenright" unicode=")" horiz-adv-x="276" 
d="M104 -67h-73c71 89 113 266 113 377c0 114 -33 271 -114 380h73c80 -111 111 -266 111 -380c0 -110 -40 -284 -110 -377z" />
    <glyph glyph-name="braceleft" unicode="{" horiz-adv-x="304" 
d="M205 -70c-68 0 -103 50 -103 128v164c0 48 -30 62 -61 73v59c32 10 61 24 61 78v174c0 81 36 127 107 127h60v-55h-33c-47 0 -64 -28 -64 -73v-174c0 -60 -24 -89 -64 -104v-5c39 -17 64 -45 64 -99v-164c0 -44 19 -75 61 -75h35v-54h-63z" />
    <glyph glyph-name="braceright" unicode="}" horiz-adv-x="304" 
d="M99 -70h-63v54h35c42 0 61 31 61 75v164c0 54 25 82 64 99v5c-40 15 -64 44 -64 104v174c0 45 -17 73 -64 73h-33v55h60c71 0 107 -46 107 -127v-174c0 -54 29 -68 61 -78v-59c-31 -11 -61 -25 -61 -73v-164c0 -78 -35 -128 -103 -128z" />
    <glyph glyph-name="bracketleft" unicode="[" horiz-adv-x="319" 
d="M99 -67v823h192v-56h-125v-711h125v-56h-192z" />
    <glyph glyph-name="bracketright" unicode="]" horiz-adv-x="320" 
d="M220 -67h-191v56h124v711h-124v56h191v-823z" />
    <glyph glyph-name="hyphen" unicode="-" horiz-adv-x="427" 
d="M78 269v63h271v-63h-271z" />
    <glyph glyph-name="uni00AD" unicode="&#xad;" horiz-adv-x="497" 
d="M78 269v63h341v-63h-341z" />
    <glyph glyph-name="endash" unicode="&#x2013;" horiz-adv-x="517" 
d="M78 269v63h361v-63h-361z" />
    <glyph glyph-name="emdash" unicode="&#x2014;" horiz-adv-x="1000" 
d="M0 269v63h1000v-63h-1000z" />
    <glyph glyph-name="underscore" unicode="_" horiz-adv-x="557" 
d="M78 -63v63h401v-63h-401z" />
    <glyph glyph-name="uni2015" unicode="&#x2015;" horiz-adv-x="757" 
d="M78 269v63h601v-63h-601z" />
    <glyph glyph-name="quotesinglbase" unicode="&#x201a;" horiz-adv-x="283" 
d="M57 -152l90 280h95l-128 -280h-57z" />
    <glyph glyph-name="quotedblbase" unicode="&#x201e;" horiz-adv-x="463" 
d="M57 -152l90 280h95l-128 -280h-57zM237 -152l90 280h95l-128 -280h-57z" />
    <glyph glyph-name="quotedblleft" unicode="&#x201c;" horiz-adv-x="456" 
d="M40 410l129 280h56l-90 -280h-95zM213 410l129 280h56l-90 -280h-95z" />
    <glyph glyph-name="quotedblright" unicode="&#x201d;" horiz-adv-x="456" 
d="M57 410l90 280h95l-128 -280h-57zM231 410l90 280h95l-129 -280h-56z" />
    <glyph glyph-name="quoteleft" unicode="&#x2018;" horiz-adv-x="283" 
d="M40 410l129 280h56l-90 -280h-95z" />
    <glyph glyph-name="quoteright" unicode="&#x2019;" horiz-adv-x="283" 
d="M57 410l90 280h95l-128 -280h-57z" />
    <glyph glyph-name="guillemotleft" unicode="&#xab;" horiz-adv-x="490" 
d="M225 81l-198 168l198 169v-73l-113 -96l113 -95v-73zM418 81l-198 168l198 169v-73l-113 -96l113 -95v-73z" />
    <glyph glyph-name="guillemotright" unicode="&#xbb;" horiz-adv-x="490" 
d="M72 81v73l113 95l-113 96v73l198 -169zM265 81v73l113 95l-113 96v73l198 -169z" />
    <glyph glyph-name="guilsinglleft" unicode="&#x2039;" horiz-adv-x="297" 
d="M225 81l-198 168l198 169v-73l-113 -96l113 -95v-73z" />
    <glyph glyph-name="guilsinglright" unicode="&#x203a;" horiz-adv-x="297" 
d="M72 81v73l113 95l-113 96v73l198 -169z" />
    <glyph glyph-name="quotedbl" unicode="&#x22;" horiz-adv-x="426" 
d="M98 461v229h70v-229h-70zM258 461v229h70v-229h-70z" />
    <glyph glyph-name="quotesingle" unicode="'" horiz-adv-x="265" 
d="M98 461v229h70v-229h-70z" />
    <glyph glyph-name="uni00A0" unicode="&#xa0;" horiz-adv-x="275" 
 />
    <glyph glyph-name="cent" unicode="&#xa2;" horiz-adv-x="566" 
d="M272 -104v98c-128 13 -197 122 -197 249c0 121 64 238 197 252v91h44v-90c83 -6 150 -52 184 -137l-79 -31c-18 51 -56 85 -105 91v-350c50 6 88 39 104 89l75 -28c-29 -82 -95 -132 -179 -138v-95zM272 71v346c-78 -14 -113 -92 -113 -174c0 -83 35 -159 113 -172z" />
    <glyph glyph-name="currency" unicode="&#xa4;" horiz-adv-x="679" 
d="M153 78l-44 46l50 50c-62 78 -61 192 0 270l-49 49l44 46l50 -50c79 62 192 62 271 0l50 50l45 -45l-50 -49c62 -79 62 -193 0 -272l50 -49l-45 -46l-50 51c-79 -62 -192 -62 -272 0zM223 194c64 -65 168 -65 232 0c63 64 64 167 0 230c-64 64 -168 64 -232 0
c-63 -64 -63 -168 0 -230z" />
    <glyph glyph-name="dollar" unicode="$" horiz-adv-x="559" 
d="M515 193c0 -116 -92 -192 -210 -199v-121l-37 -1v122c-112 6 -210 73 -230 193l86 21c11 -85 68 -130 144 -137v257c-91 36 -187 75 -187 190c0 107 83 174 187 180v112h37v-113c74 -6 137 -41 178 -113l-71 -44c-26 46 -61 73 -107 80v-220c97 -38 210 -77 210 -207z
M167 522c0 -54 44 -83 101 -107v206c-58 -4 -101 -45 -101 -99zM305 71c77 6 124 53 124 115c0 68 -57 99 -124 127v-242z" />
    <glyph glyph-name="Euro" unicode="&#x20ac;" horiz-adv-x="650" 
d="M401 -8c-147 0 -227 110 -252 242h-84l29 62h46c-1 17 -2 33 -2 49c0 18 2 38 3 54h-76l29 64h56c26 130 106 236 250 236c82 0 145 -34 191 -97l-54 -42c-32 50 -79 73 -136 73c-101 0 -158 -70 -177 -170h257l-29 -62h-239c-1 -17 -3 -33 -3 -51c0 -17 1 -35 3 -51h268
l-29 -62h-228c18 -100 75 -177 177 -177c58 0 101 27 133 70l51 -50c-45 -57 -107 -88 -184 -88z" />
    <glyph glyph-name="florin" unicode="&#x192;" horiz-adv-x="487" 
d="M54 -219v63c100 0 137 36 137 144v437h-85v63h85v62c0 91 58 153 135 153c42 0 77 -16 112 -46l-46 -53c-23 20 -41 29 -66 29c-36 0 -65 -27 -65 -83v-62h126v-63h-126v-444c0 -139 -72 -200 -207 -200z" />
    <glyph glyph-name="sterling" unicode="&#xa3;" horiz-adv-x="609" 
d="M192 70h392v-70h-505v76c72 23 130 80 130 140c0 34 -15 70 -26 103h-101v70h84c-9 24 -19 66 -19 111c0 112 76 201 203 201c95 0 164 -64 194 -148l-65 -24c-24 64 -70 102 -129 102c-81 0 -133 -49 -133 -132c0 -40 10 -82 21 -110h230v-70h-213
c10 -31 22 -65 22 -101c0 -77 -42 -122 -85 -148z" />
    <glyph glyph-name="uni20B1" unicode="&#x20b1;" horiz-adv-x="675" 
d="M623 513v-37h-49c-7 -116 -100 -179 -235 -179h-113v-297h-85v476h-64v37h64v177h198c132 0 225 -65 235 -177h49zM226 609v-96h263c-10 61 -60 96 -150 96h-113zM339 377c94 0 143 35 150 99h-263v-99h113z" />
    <glyph glyph-name="uni20B3" unicode="&#x20b3;" horiz-adv-x="792" 
d="M99 0l53 141h-68v74h97l33 88h-130v74h160l118 313h69l118 -313h159v-74h-130l33 -88h97v-74h-68l53 -141h-93l-50 141h-306l-51 -141h-94zM330 377h134l-67 190zM271 215h252l-32 88h-188z" />
    <glyph glyph-name="uni20B4" unicode="&#x20b4;" horiz-adv-x="719" 
d="M552 456h88v-61h-562v61h372c19 17 30 38 30 66c0 58 -49 100 -113 100c-58 0 -103 -28 -132 -82l-71 44c45 79 115 114 200 114c111 0 202 -68 202 -180c0 -25 -5 -45 -14 -62zM78 264v60h562v-60h-380c-25 -20 -42 -44 -42 -81c0 -70 60 -113 145 -113
c79 0 139 42 157 119l84 -19c-27 -117 -129 -177 -247 -177c-125 0 -225 72 -225 180c0 41 16 70 34 91h-88z" />
    <glyph glyph-name="uni20B8" unicode="&#x20b8;" horiz-adv-x="698" 
d="M74 619v71h551v-71h-551zM306 0v459h-232v71h551v-71h-233v-459h-86z" />
    <glyph glyph-name="uni20BD" unicode="&#x20bd;" horiz-adv-x="669" 
d="M168 0v145h-89v67h89v91h-89v74h89v313h198c140 0 236 -73 236 -198c0 -126 -95 -189 -236 -189h-113v-91h160v-67h-160v-145h-85zM253 377h113c102 0 151 41 151 115s-51 117 -151 117h-113v-232z" />
    <glyph glyph-name="yen" unicode="&#xa5;" horiz-adv-x="707" 
d="M309 0v107h-169v68h169v86h-169v67h130l-222 362h104l201 -341l202 341h104l-222 -362h129v-67h-168v-86h168v-68h-168v-107h-89z" />
    <glyph glyph-name="plus" unicode="+" horiz-adv-x="609" 
d="M273 54v220h-219v63h219v219h63v-219h219v-63h-219v-220h-63z" />
    <glyph glyph-name="minus" unicode="&#x2212;" horiz-adv-x="608" 
d="M120 275v64h368v-64h-368z" />
    <glyph glyph-name="multiply" unicode="&#xd7;" horiz-adv-x="535" 
d="M423 105l-155 156l-156 -156l-44 45l155 155l-155 155l44 45l156 -155l154 155l45 -45l-155 -155l155 -155z" />
    <glyph glyph-name="divide" unicode="&#xf7;" horiz-adv-x="490" 
d="M199 421v115h90v-115h-90zM56 275v64h375v-64h-375zM199 70v114h90v-114h-90z" />
    <glyph glyph-name="equal" unicode="=" horiz-adv-x="637" 
d="M123 393v71h391v-71h-391zM123 192v71h391v-71h-391z" />
    <glyph glyph-name="notequal" unicode="&#x2260;" horiz-adv-x="580" 
d="M63 0l109 192h-78v71h120l74 130h-194v71h237l129 226h59l-129 -226h94v-71h-136l-74 -130h210v-71h-253l-109 -192h-59z" />
    <glyph glyph-name="greater" unicode="&#x3e;" horiz-adv-x="631" 
d="M91 11l-31 55l402 230l-402 230l31 54l499 -284z" />
    <glyph glyph-name="less" unicode="&#x3c;" horiz-adv-x="631" 
d="M540 11l-499 285l499 284l31 -54l-402 -230l402 -230z" />
    <glyph glyph-name="greaterequal" unicode="&#x2265;" horiz-adv-x="661" 
d="M112 101l-32 55l403 230l-403 230l32 54l499 -284zM573 0v-63h-514v63h514z" />
    <glyph glyph-name="lessequal" unicode="&#x2264;" horiz-adv-x="661" 
d="M549 101l-499 285l499 284l32 -54l-403 -230l403 -230zM88 0h514v-63h-514v63z" />
    <glyph glyph-name="plusminus" unicode="&#xb1;" horiz-adv-x="655" 
d="M296 92v222h-229v63h229v221h64v-221h229v-63h-229v-222h-64zM67 -63v63h518v-63h-518z" />
    <glyph glyph-name="approxequal" unicode="&#x2248;" horiz-adv-x="609" 
d="M390 346c-108 0 -101 119 -174 119c-36 0 -57 -36 -57 -94h-63c0 91 47 151 120 151c112 0 107 -119 174 -119c36 0 60 43 60 105h63c0 -96 -49 -162 -123 -162zM390 122c-108 0 -101 119 -174 119c-36 0 -57 -37 -57 -94h-63c0 90 47 150 120 150
c112 0 107 -118 174 -118c36 0 60 43 60 105h63c0 -96 -49 -162 -123 -162z" />
    <glyph glyph-name="asciitilde" unicode="~" horiz-adv-x="608" 
d="M390 175c-108 0 -101 119 -174 119c-36 0 -57 -36 -57 -94h-63c0 91 47 151 120 151c112 0 107 -119 174 -119c36 0 60 43 60 105h63c0 -96 -49 -162 -123 -162z" />
    <glyph glyph-name="logicalnot" unicode="&#xac;" horiz-adv-x="645" 
d="M444 142v173h-370v74h449v-247h-79z" />
    <glyph glyph-name="asciicircum" unicode="^" horiz-adv-x="579" 
d="M47 217l242 503l243 -503h-88l-155 345l-154 -345h-88z" />
    <glyph glyph-name="infinity" unicode="&#x221e;" horiz-adv-x="968" 
d="M273 174c-115 0 -189 78 -189 183c0 106 74 184 189 184c77 0 153 -50 209 -127c61 78 137 127 213 127c115 0 189 -78 189 -184c0 -105 -74 -183 -189 -183c-77 0 -153 49 -213 126c-57 -78 -133 -126 -209 -126zM283 241c52 0 114 38 162 116c-49 79 -111 116 -162 116
c-73 0 -125 -46 -125 -116c0 -69 52 -116 125 -116zM685 241c73 0 125 47 125 116c0 70 -52 116 -125 116c-56 0 -118 -44 -165 -116c48 -72 109 -116 165 -116z" />
    <glyph glyph-name="integral" unicode="&#x222b;" horiz-adv-x="476" 
d="M39 -229v70c112 0 155 39 155 141v571c0 87 63 150 142 150c36 0 74 -14 105 -41l-44 -53c-21 17 -42 24 -61 24c-39 0 -72 -29 -72 -82v-571c0 -139 -84 -209 -225 -209z" />
    <glyph glyph-name="uni2126" unicode="&#x2126;" horiz-adv-x="814" 
d="M76 0v69h185l2 3c-101 60 -167 174 -167 287c0 77 31 158 80 211c58 62 148 101 231 101s173 -40 231 -102c48 -52 79 -134 79 -212c0 -121 -62 -235 -159 -288v-2h179v-67h-270v84c108 23 177 129 177 272c0 63 -22 126 -56 164c-46 50 -117 81 -181 81
c-65 0 -135 -32 -181 -81c-35 -38 -57 -101 -57 -164c0 -139 69 -245 177 -272v-84h-270z" />
    <glyph glyph-name="uni2206" unicode="&#x2206;" horiz-adv-x="656" 
d="M43 0l285 718l284 -718h-569zM145 70h365l-182 477z" />
    <glyph glyph-name="product" unicode="&#x220f;" horiz-adv-x="658" 
d="M131 0v620h-48v70h492v-70h-48v-620h-70v620h-256v-620h-70z" />
    <glyph glyph-name="summation" unicode="&#x2211;" horiz-adv-x="643" 
d="M577 690v-79h-386l257 -266l-257 -266h386v-79h-519v48l278 297l-278 297v48h519z" />
    <glyph glyph-name="radical" unicode="&#x221a;" horiz-adv-x="611" 
d="M252 -83l-133 353h-75v70h125l87 -243l238 593h75z" />
    <glyph glyph-name="uni00B5" unicode="&#xb5;" horiz-adv-x="631" 
d="M123 -167v655h82v-289c0 -80 39 -131 113 -131c77 0 127 47 127 139v281h82v-488h-82v74c-33 -55 -91 -82 -150 -82c-47 0 -83 16 -104 46v-205h-68z" />
    <glyph glyph-name="partialdiff" unicode="&#x2202;" horiz-adv-x="650" 
d="M284 -6c-135 0 -217 92 -217 222c0 166 122 280 265 280c76 0 124 -49 154 -102c1 26 -1 50 -6 71c-12 115 -68 171 -154 171c-53 0 -111 -22 -138 -91l-62 20c34 84 109 132 208 132c164 0 236 -134 236 -330c0 -207 -98 -373 -286 -373zM289 66c119 0 185 94 195 190
c5 77 -34 172 -142 172c-126 0 -198 -100 -198 -211c0 -98 65 -151 145 -151z" />
    <glyph glyph-name="percent" unicode="%" horiz-adv-x="730" 
d="M194 385c-87 0 -135 74 -135 157c0 82 47 156 132 156c78 0 134 -67 134 -157s-55 -156 -131 -156zM137 0l397 690h59l-397 -690h-59zM194 441c43 0 74 42 74 100c0 56 -28 101 -77 101c-51 0 -75 -48 -75 -100c0 -53 24 -101 78 -101zM540 -8c-86 0 -134 74 -134 157
c0 82 47 156 131 156c78 0 134 -67 134 -157s-55 -156 -131 -156zM540 48c44 0 75 42 75 100c0 56 -28 101 -78 101c-51 0 -75 -48 -75 -100c0 -53 25 -101 78 -101z" />
    <glyph glyph-name="perthousand" unicode="&#x2030;" horiz-adv-x="1040" 
d="M194 385c-87 0 -135 74 -135 157c0 82 47 156 132 156c78 0 134 -67 134 -157s-55 -156 -131 -156zM137 0l397 690h59l-397 -690h-59zM194 441c43 0 74 42 74 100c0 56 -28 101 -77 101c-51 0 -75 -48 -75 -100c0 -53 24 -101 78 -101zM540 -8c-86 0 -134 74 -134 157
c0 82 47 156 131 156c78 0 134 -67 134 -157s-55 -156 -131 -156zM850 -8c-87 0 -135 74 -135 157c0 82 47 156 132 156c78 0 134 -67 134 -157s-55 -156 -131 -156zM540 48c44 0 75 42 75 100c0 56 -28 101 -78 101c-51 0 -75 -48 -75 -100c0 -53 25 -101 78 -101zM850 48
c43 0 74 42 74 100c0 56 -28 101 -77 101c-51 0 -75 -48 -75 -100c0 -53 24 -101 78 -101z" />
    <glyph glyph-name="uni2031" unicode="&#x2031;" horiz-adv-x="1349" 
d="M194 385c-87 0 -135 74 -135 157c0 82 47 156 132 156c78 0 134 -67 134 -157s-55 -156 -131 -156zM137 0l397 690h59l-397 -690h-59zM194 441c43 0 74 42 74 100c0 56 -28 101 -77 101c-51 0 -75 -48 -75 -100c0 -53 24 -101 78 -101zM540 -8c-86 0 -134 74 -134 157
c0 82 47 156 131 156c78 0 134 -67 134 -157s-55 -156 -131 -156zM850 -8c-87 0 -135 74 -135 157c0 82 47 156 132 156c78 0 134 -67 134 -157s-55 -156 -131 -156zM1159 -8c-87 0 -135 74 -135 157c0 82 48 156 132 156c78 0 134 -67 134 -157s-55 -156 -131 -156zM540 48
c44 0 75 42 75 100c0 56 -28 101 -78 101c-51 0 -75 -48 -75 -100c0 -53 25 -101 78 -101zM850 48c43 0 74 42 74 100c0 56 -28 101 -77 101c-51 0 -75 -48 -75 -100c0 -53 24 -101 78 -101zM1159 48c43 0 74 42 74 100c0 56 -28 101 -77 101c-51 0 -75 -48 -75 -100
c0 -53 25 -101 78 -101z" />
    <glyph glyph-name="arrowright" unicode="&#x2192;" horiz-adv-x="1126" 
d="M586 34l-28 56l340 190l-846 -1v64l845 1l-339 188l28 56l498 -276z" />
    <glyph glyph-name="arrowleft" unicode="&#x2190;" horiz-adv-x="1125" 
d="M539 34l-498 278l498 276l28 -56l-339 -188l845 -1v-64l-846 1l340 -190z" />
    <glyph glyph-name="lozenge" unicode="&#x25ca;" horiz-adv-x="583" 
d="M234 0l-184 345l184 345h115l184 -345l-184 -345h-115zM285 45h14l152 300l-152 300h-14l-153 -300z" />
    <glyph glyph-name="uniF8FF" unicode="&#xf8ff;" horiz-adv-x="868" 
d="M434 -30c-209 0 -378 169 -378 378s169 378 378 378s378 -169 378 -378s-169 -378 -378 -378zM434 5c190 0 343 153 343 343s-153 343 -343 343s-343 -153 -343 -343s153 -343 343 -343zM237 200c-9 0 -17 7 -17 17v262c0 10 8 18 17 18c10 0 18 -8 18 -18v-262
c0 -10 -8 -17 -18 -17zM434 200c-10 0 -17 7 -17 17v262c0 10 7 18 17 18s17 -8 17 -18v-262c0 -10 -7 -17 -17 -17zM630 200c-4 0 -8 1 -11 5l-132 131c-3 4 -4 8 -4 12c0 5 1 9 4 12l132 131c3 4 7 6 11 6c9 0 18 -9 18 -18c0 -4 -1 -8 -5 -12l-119 -119l119 -119
c4 -4 5 -8 5 -12c0 -9 -9 -17 -18 -17zM303 331c-10 0 -17 7 -17 17s7 17 17 17h65c10 0 18 -7 18 -17s-8 -17 -18 -17h-65z" />
    <glyph glyph-name="at" unicode="@" horiz-adv-x="1016" 
d="M504 -172c-239 0 -436 162 -436 425c0 253 181 448 445 448c265 0 437 -195 437 -432c0 -150 -71 -303 -225 -303c-66 0 -105 35 -114 95c-3 16 -4 35 -4 56c-40 -54 -98 -92 -166 -92c-104 0 -157 81 -157 184c0 131 85 305 241 305c70 0 115 -36 131 -95l15 71l67 -1
c-20 -105 -69 -278 -73 -373c-4 -52 8 -82 58 -82c116 0 161 123 161 236c0 201 -144 367 -371 367s-380 -167 -380 -383c0 -227 170 -358 372 -358c47 0 86 7 127 21l23 -63c-48 -17 -95 -26 -151 -26zM446 91c122 0 185 139 185 244c0 71 -30 113 -97 113
c-123 0 -186 -138 -186 -242c0 -73 32 -115 98 -115z" />
    <glyph glyph-name="ampersand" unicode="&#x26;" horiz-adv-x="686" 
d="M635 18l-58 -52l-92 107c-56 -52 -128 -82 -212 -82c-124 0 -215 61 -215 168c0 106 82 163 167 209c-29 32 -89 96 -89 170c0 97 87 159 182 159c96 0 173 -69 173 -158c0 -90 -69 -142 -147 -187l138 -158c21 42 33 91 35 143l81 -8c-5 -74 -27 -142 -63 -196zM216 537
c0 -48 52 -106 75 -134c68 37 124 74 124 135c0 51 -37 94 -96 94c-58 0 -103 -37 -103 -95zM271 62c67 0 123 26 165 68l-159 184c-74 -42 -139 -85 -139 -157c0 -61 53 -95 133 -95z" />
    <glyph glyph-name="paragraph" unicode="&#xb6;" horiz-adv-x="624" 
d="M273 -120v424c-114 0 -221 71 -221 193s107 193 221 193h59v-810h-59zM440 -120v810h59v-810h-59z" />
    <glyph glyph-name="section" unicode="&#xa7;" horiz-adv-x="569" 
d="M298 -8c-94 0 -193 38 -221 138l78 24c24 -70 73 -94 141 -94c72 0 121 24 121 75c0 117 -319 54 -319 235c0 41 16 72 42 99c-29 24 -42 53 -42 87c0 90 80 142 184 142c86 0 150 -36 182 -88l-66 -38c-21 40 -60 62 -119 62c-77 0 -111 -38 -111 -79
c0 -112 319 -48 319 -234c0 -36 -11 -69 -40 -98c27 -23 40 -52 40 -88c0 -100 -88 -143 -189 -143zM376 253c27 14 41 38 41 66c0 81 -120 89 -209 123c-28 -17 -40 -45 -40 -70c0 -78 122 -85 208 -119z" />
    <glyph glyph-name="copyright" unicode="&#xa9;" horiz-adv-x="836" 
d="M418 -11c-200 0 -362 159 -362 356s162 356 362 356s362 -159 362 -356s-162 -356 -362 -356zM418 42c171 0 309 136 309 303s-138 303 -309 303s-309 -136 -309 -303s138 -303 309 -303zM429 123c-128 0 -197 101 -197 221c0 113 64 223 196 223c80 0 144 -41 176 -120
l-65 -26c-18 51 -59 84 -111 84c-88 0 -127 -79 -127 -161c0 -83 39 -159 127 -159c53 0 93 32 109 82l62 -24c-26 -76 -89 -120 -170 -120z" />
    <glyph glyph-name="registered" unicode="&#xae;" horiz-adv-x="836" 
d="M418 -11c-200 0 -362 159 -362 356s162 356 362 356s362 -159 362 -356s-162 -356 -362 -356zM418 42c171 0 309 136 309 303s-138 303 -309 303s-309 -136 -309 -303s138 -303 309 -303zM303 135v420h123c86 0 143 -47 143 -120c0 -53 -31 -93 -84 -108l115 -192h-64
l-106 186c-8 -1 -17 -1 -25 -1h-47v-185h-55zM358 366h73c53 1 83 26 83 68c0 45 -32 71 -87 71h-69v-139z" />
    <glyph glyph-name="trademark" unicode="&#x2122;" horiz-adv-x="614" 
d="M113 428v213h-74v49h201v-49h-74v-213h-53zM296 428v262h86l55 -174l54 174h84v-262h-52v206l-69 -194h-34l-71 196v-208h-53z" />
    <glyph glyph-name="degree" unicode="&#xb0;" horiz-adv-x="458" 
d="M229 416c-77 0 -141 63 -141 141s64 141 141 141c78 0 141 -63 141 -141s-63 -141 -141 -141zM229 472c48 0 85 38 85 85s-37 85 -85 85c-47 0 -84 -38 -84 -85s37 -85 84 -85z" />
    <glyph glyph-name="bar" unicode="|" horiz-adv-x="311" 
d="M124 -250v999h62v-999h-62z" />
    <glyph glyph-name="brokenbar" unicode="&#xa6;" horiz-adv-x="317" 
d="M124 357v363h69v-363h-69zM124 -150v355h69v-355h-69z" />
    <glyph glyph-name="dagger" unicode="&#x2020;" horiz-adv-x="400" 
d="M163 -100v520h-118v76h118v194h75v-194h117v-76h-117v-520h-75z" />
    <glyph glyph-name="daggerdbl" unicode="&#x2021;" horiz-adv-x="444" 
d="M184 -100v194h-117v75h117v251h-117v76h117v194h76v-194h117v-76h-117v-251h117v-75h-117v-194h-76z" />
    <glyph glyph-name="uni2116" unicode="&#x2116;" horiz-adv-x="1159" 
d="M516 141v549h83v-690h-89l-325 552v-552h-82v690h88zM901 157c-119 0 -200 94 -200 212c0 115 81 210 200 210s202 -95 202 -210c0 -117 -83 -212 -202 -212zM901 519c-84 0 -130 -68 -130 -150c0 -84 46 -153 130 -153s131 69 131 153c0 82 -47 150 -131 150zM707 0v63
h378v-63h-378z" />
    <glyph glyph-name="uni02F5" unicode="&#x2f5;" horiz-adv-x="541" 
d="M200 336l-136 152h89l109 -152h-62zM409 336l-138 152h89l111 -152h-62z" />
    <glyph glyph-name="uni02F6" unicode="&#x2f6;" horiz-adv-x="541" 
d="M132 336h-62l111 152h89zM341 336h-62l109 152h89z" />
    <glyph glyph-name="uni02D0" unicode="&#x2d0;" horiz-adv-x="280" 
d="M144 278l-119 210l226 8zM29 -8l107 218l119 -210z" />
    <glyph glyph-name="uni02D1" unicode="&#x2d1;" horiz-adv-x="285" 
d="M147 114l-119 210l225 8z" />
    <glyph glyph-name="uni0308" unicode="&#x308;" 
d="M-332 587v103h70v-103h-70zM-150 587v103h70v-103h-70z" />
    <glyph glyph-name="uni0307" unicode="&#x307;" 
d="M-166 587v103h86v-103h-86z" />
    <glyph glyph-name="gravecomb" unicode="&#x300;" 
d="M-91 543l-134 147h88l108 -147h-62z" />
    <glyph glyph-name="acutecomb" unicode="&#x301;" 
d="M-222 550l108 140h89l-135 -140h-62z" />
    <glyph glyph-name="uni030B" unicode="&#x30b;" 
d="M-395 537l108 153h75l-121 -153h-62zM-220 537l107 153h89l-134 -153h-62z" />
    <glyph glyph-name="caroncomb.alt" 
d="M-181 479l57 211h87l-93 -211h-51z" />
    <glyph glyph-name="uni0302" unicode="&#x302;" 
d="M-319 541l149 161l150 -161h-67l-83 89l-83 -89h-66z" />
    <glyph glyph-name="uni030C" unicode="&#x30c;" 
d="M-170 536l-150 154h67l83 -86l83 86h67z" />
    <glyph glyph-name="uni0306" unicode="&#x306;" 
d="M-205 560c-103 0 -151 46 -151 130h59c0 -54 37 -80 92 -80c56 0 91 27 91 80h59c0 -87 -52 -130 -150 -130z" />
    <glyph glyph-name="uni030A" unicode="&#x30a;" 
d="M-156 530c-56 0 -100 46 -100 101c0 56 45 101 100 101s101 -45 101 -101s-44 -101 -101 -101zM-156 576c32 0 55 24 55 56c0 30 -22 54 -55 54c-31 0 -54 -24 -54 -54c0 -32 24 -56 54 -56z" />
    <glyph glyph-name="tildecomb" unicode="&#x303;" 
d="M-154 560c-80 0 -85 82 -133 82c-27 0 -44 -28 -44 -75h-48c0 81 36 127 95 127c73 0 83 -81 131 -81c24 0 41 29 41 77h51c0 -81 -36 -130 -93 -130z" />
    <glyph glyph-name="uni0304" unicode="&#x304;" 
d="M-347 584v50h269v-50h-269z" />
    <glyph glyph-name="hookabovecomb" unicode="&#x309;" 
d="M-167 555v59c37 8 55 26 55 50c0 22 -16 37 -40 37c-13 0 -28 -5 -41 -18l-27 41c19 14 43 25 77 25c56 0 90 -32 90 -80c0 -46 -29 -66 -61 -75v-39h-53z" />
    <glyph glyph-name="uni030F" unicode="&#x30f;" 
d="M-267 537l-134 153h88l108 -153h-62zM-92 537l-121 153h75l108 -153h-62z" />
    <glyph glyph-name="uni0312" unicode="&#x312;" 
d="M-212 548l118 149h51l-82 -149h-87z" />
    <glyph glyph-name="uni031B" unicode="&#x31b;" 
d="M-201 362v55c59 0 78 43 78 93v51h63v-45c0 -90 -42 -154 -141 -154z" />
    <glyph glyph-name="dotbelowcomb" unicode="&#x323;" 
d="M-166 -202v103h86v-103h-86z" />
    <glyph glyph-name="uni0326" unicode="&#x326;" 
d="M-195 -220l81 166h87l-118 -166h-50z" />
    <glyph glyph-name="uni0327" unicode="&#x327;" 
d="M-151 -253c-44 0 -86 23 -98 73l47 19c7 -23 27 -43 53 -43c33 0 53 19 53 49c0 34 -32 58 -86 61h-40l56 93h51l-39 -59c11 0 21 -2 30 -4c51 -12 78 -43 78 -88c0 -59 -43 -101 -105 -101z" />
    <glyph glyph-name="uni0328" unicode="&#x328;" 
d="M-138 -222c-62 0 -104 37 -104 95c0 75 74 122 102 128l65 -1c-38 -11 -117 -54 -117 -116c0 -39 22 -54 52 -54c28 0 48 12 65 36l43 -29c-25 -36 -58 -59 -106 -59z" />
    <glyph glyph-name="uni0335" unicode="&#x335;" 
d="M-387 259v56h310v-56h-310z" />
    <glyph glyph-name="uni0336" unicode="&#x336;" 
d="M-713 253v50h635v-50h-635z" />
    <glyph glyph-name="uni0337" unicode="&#x337;" 
d="M-314 136v93l295 334v-92z" />
    <glyph glyph-name="uni0338" unicode="&#x338;" 
d="M-485 0l425 690h63l-425 -690h-63z" />
    <glyph glyph-name="acute" unicode="&#xb4;" horiz-adv-x="251" 
d="M29 550l108 140h89l-135 -140h-62z" />
    <glyph glyph-name="breve" unicode="&#x2d8;" horiz-adv-x="411" 
d="M206 560c-103 0 -151 46 -151 130h59c0 -54 37 -80 92 -80c56 0 91 27 91 80h59c0 -87 -52 -130 -150 -130z" />
    <glyph glyph-name="caron" unicode="&#x2c7;" horiz-adv-x="341" 
d="M171 536l-150 154h67l83 -86l83 86h67z" />
    <glyph glyph-name="cedilla" unicode="&#xb8;" horiz-adv-x="288" 
d="M137 -253c-44 0 -86 23 -98 73l47 19c7 -23 27 -43 53 -43c33 0 53 19 53 49c0 34 -32 58 -86 61h-40l56 93h51l-39 -59c11 0 21 -2 30 -4c51 -12 78 -43 78 -88c0 -59 -43 -101 -105 -101z" />
    <glyph glyph-name="circumflex" unicode="&#x2c6;" horiz-adv-x="339" 
d="M20 541l149 161l150 -161h-67l-83 89l-83 -89h-66z" />
    <glyph glyph-name="dieresis" unicode="&#xa8;" horiz-adv-x="412" 
d="M80 587v103h70v-103h-70zM262 587v103h70v-103h-70z" />
    <glyph glyph-name="dotaccent" unicode="&#x2d9;" horiz-adv-x="246" 
d="M80 587v103h86v-103h-86z" />
    <glyph glyph-name="grave" unicode="`" horiz-adv-x="249" 
d="M158 543l-134 147h88l108 -147h-62z" />
    <glyph glyph-name="hungarumlaut" unicode="&#x2dd;" horiz-adv-x="425" 
d="M30 537l108 153h75l-121 -153h-62zM205 537l107 153h89l-134 -153h-62z" />
    <glyph glyph-name="macron" unicode="&#xaf;" horiz-adv-x="425" 
d="M78 584v50h269v-50h-269z" />
    <glyph glyph-name="ogonek" unicode="&#x2db;" horiz-adv-x="294" 
d="M156 -222c-62 0 -104 37 -104 95c0 75 74 122 102 128l65 -1c-38 -11 -117 -54 -117 -116c0 -39 22 -54 52 -54c28 0 48 12 65 36l43 -29c-25 -36 -58 -59 -106 -59z" />
    <glyph glyph-name="ring" unicode="&#x2da;" horiz-adv-x="311" 
d="M155 530c-56 0 -100 46 -100 101c0 56 45 101 100 101s101 -45 101 -101s-44 -101 -101 -101zM155 576c32 0 55 24 55 56c0 30 -22 54 -55 54c-31 0 -54 -24 -54 -54c0 -32 24 -56 54 -56z" />
    <glyph glyph-name="tilde" unicode="&#x2dc;" horiz-adv-x="439" 
d="M285 560c-80 0 -85 82 -133 82c-27 0 -44 -28 -44 -75h-48c0 81 36 127 95 127c73 0 83 -81 131 -81c24 0 41 29 41 77h51c0 -81 -36 -130 -93 -130z" />
    <glyph glyph-name="tonos" unicode="&#x384;" horiz-adv-x="216" 
d="M64 550l32 140h68l-58 -140h-42z" />
    <glyph glyph-name="dieresistonos" unicode="&#x385;" horiz-adv-x="329" 
d="M136 752l31 140h69l-59 -140h-41zM33 587v103h70v-103h-70zM215 587v103h70v-103h-70z" />
    <glyph glyph-name="uni0483" unicode="&#x483;" 
d="M-475 764v149h325v68h85v-146h-327v-71h-83z" />
    <glyph glyph-name="brevecombcy" 
d="M-205 560c-103 0 -151 46 -151 130h59c0 -54 37 -80 92 -80c56 0 91 27 91 80h59c0 -87 -52 -130 -150 -130z" />
    <glyph glyph-name="descendercy" horiz-adv-x="243" 
d="M81 -116v174h82v-174h-82z" />
    <glyph glyph-name="uni03060301" 
d="M-240 752l108 140h88l-134 -140h-62zM-199 560c-103 0 -151 46 -151 130h59c0 -54 37 -80 92 -80c56 0 91 27 91 80h59c0 -87 -52 -130 -150 -130z" />
    <glyph glyph-name="uni03060300" 
d="M-197 745l-134 147h88l108 -147h-62zM-174 560c-102 0 -150 46 -150 130h59c0 -54 36 -80 91 -80c57 0 91 27 91 80h60c0 -87 -52 -130 -151 -130z" />
    <glyph glyph-name="uni03060309" 
d="M-207 733v59c37 8 55 26 55 50c0 22 -15 37 -39 37c-13 0 -28 -5 -41 -18l-27 41c18 14 43 25 77 25c56 0 90 -32 90 -80c0 -46 -29 -66 -61 -75v-39h-54zM-180 560c-102 0 -150 46 -150 130h59c0 -54 36 -80 91 -80c57 0 91 27 91 80h60c0 -87 -52 -130 -151 -130z" />
    <glyph glyph-name="uni03060303" 
d="M-147 756c-80 0 -85 81 -133 81c-28 0 -44 -27 -44 -75h-49c0 81 37 127 95 127c74 0 83 -81 131 -81c24 0 41 29 41 77h51c0 -81 -36 -129 -92 -129zM-214 560c-102 0 -150 46 -150 130h59c0 -54 36 -80 91 -80c57 0 91 27 91 80h60c0 -87 -52 -130 -151 -130z" />
    <glyph glyph-name="uni03020301" 
d="M-219 751l108 140h88l-134 -140h-62zM-328 541l149 161l150 -161h-67l-83 89l-83 -89h-66z" />
    <glyph glyph-name="uni03020300" 
d="M-175 745l-135 146h89l108 -146h-62zM-302 541l149 161l150 -161h-66l-84 89l-82 -89h-67z" />
    <glyph glyph-name="uni03020309" 
d="M-186 733v59c37 7 55 25 55 50c0 21 -15 37 -39 37c-13 0 -28 -6 -41 -18l-27 40c18 15 43 25 77 25c56 0 90 -32 90 -80c0 -46 -29 -65 -61 -75v-38h-54zM-309 541l150 161l150 -161h-67l-83 89l-83 -89h-67z" />
    <glyph glyph-name="uni03020303" 
d="M-129 755c-80 0 -85 82 -133 81c-27 1 -44 -27 -44 -74h-48c0 80 36 127 95 126c73 1 83 -80 131 -80c24 0 41 28 41 77h51c0 -82 -36 -130 -93 -130zM-345 541l149 161l150 -161h-66l-84 89l-82 -89h-67z" />
    <glyph glyph-name="doublestrike" horiz-adv-x="765" 
d="M81 317v74h604v-74h-604zM81 155v74h604v-74h-604z" />
    <glyph glyph-name="strokecy" horiz-adv-x="519" 
d="M78 148v73h363v-73h-363z" />
    <glyph glyph-name="basegreaterlessthan" horiz-adv-x="671" 
d="M78 0h515v-63h-515v63z" />
    <glyph glyph-name="_global" horiz-adv-x="741" 
 />
    <glyph glyph-name="IJacute" horiz-adv-x="858" 
d="M104 752l108 140h89l-135 -140h-62zM531 752l108 140h89l-135 -140h-62zM103 0v690h86v-690h-86zM546 -8c-134 0 -215 93 -224 214l84 9c6 -83 53 -143 140 -143c102 0 136 62 136 177v362h-273v79h359v-439c0 -155 -65 -259 -222 -259z" />
    <glyph glyph-name="ijacute" horiz-adv-x="496" 
d="M82 550l108 140h89l-135 -140h-62zM329 550l108 140h89l-135 -140h-62zM82 0v488h83v-488h-83zM280 -210c-26 0 -60 7 -81 15l22 72c18 -7 38 -12 51 -12c40 0 58 23 58 73v550h84v-544c0 -90 -42 -154 -134 -154z" />
    </font>
</defs>
</svg>
